<svg width="200" height="149" viewBox="0 0 200 149" fill="none" xmlns="http://www.w3.org/2000/svg">
<g id="Icons" clip-path="url(#clip0_122_18921)">
<path id="Vector" d="M103.899 49.2128C103.899 49.2128 114.226 40.1154 119.211 35.8788C124.176 31.6422 131.162 38.6401 139.526 37.581C147.89 36.5408 155.442 30.9424 155.442 30.9424L186.576 64.8163C186.576 64.8163 185.802 67.2183 183.253 70.5849C180.723 73.9515 174.851 85.0537 174.851 85.0537L160.596 102.322L111.3 52.5793L103.918 49.1749L103.899 49.2128Z" fill="#57CFC8"/>
<path id="Vector_2" d="M65.1184 127.533C66.1568 126.134 81.7709 112.157 81.7709 112.157C81.7709 112.157 90.9279 112.459 92.0607 116.412C93.1935 120.346 104.786 123.353 104.786 123.353L108.845 129.444L106.504 139.222L97.1396 145.331L88.0581 142.702L83.3946 135.723L73.8789 141.265L65.1184 137.312V127.533Z" fill="#57CFC8"/>
<g id="Group">
<path id="Vector_3" d="M160.578 106.029C159.52 106.029 158.463 105.575 157.727 104.686C156.443 103.116 156.669 100.79 158.237 99.5034C167.337 92.0326 170.83 84.9968 173.926 78.7743C176.532 73.5164 179.005 68.5421 184.216 64.7973C185.877 63.6057 188.162 64.0029 189.333 65.6484C190.522 67.2939 190.144 69.6013 188.483 70.7739C184.764 73.4407 182.875 77.2423 180.497 82.0463C177.249 88.5904 173.209 96.7232 162.9 105.196C162.22 105.764 161.39 106.029 160.578 106.029Z" fill="#666C92"/>
<path id="Vector_4" d="M59.7565 132.451C56.4902 132.451 53.2427 131.202 50.7505 128.725C45.785 123.751 45.785 115.656 50.7505 110.7L59.7376 101.697C64.7031 96.7232 72.7651 96.7232 77.7306 101.697C80.1284 104.099 81.45 107.296 81.45 110.719C81.45 114.143 80.1284 117.339 77.7306 119.741L68.7435 128.744C66.2702 131.221 63.0039 132.47 59.7376 132.47L59.7565 132.451ZM68.7435 105.329C67.3653 105.329 65.987 105.858 64.9297 106.899L55.9426 115.901C53.8469 118.001 53.8469 121.424 55.9426 123.524C58.0384 125.623 61.4557 125.623 63.5514 123.524L72.5385 114.521C73.5392 113.518 74.1056 112.157 74.1056 110.7C74.1056 109.244 73.558 107.901 72.5385 106.88C71.4812 105.821 70.1029 105.31 68.7247 105.31L68.7435 105.329Z" fill="#666C92"/>
<path id="Vector_5" d="M47.1254 119.627C43.8591 119.627 40.6116 118.379 38.1194 115.901C33.1539 110.927 33.1539 102.832 38.1194 97.8768L39.5543 96.4394C44.5199 91.4652 52.5818 91.4652 57.5473 96.4394C62.5129 101.414 62.5129 109.509 57.5473 114.464L56.1124 115.901C53.6391 118.379 50.3728 119.627 47.1065 119.627H47.1254ZM48.5603 100.071C47.182 100.071 45.8037 100.6 44.7464 101.641L43.3115 103.078C41.2158 105.177 41.2158 108.601 43.3115 110.7C45.4073 112.8 48.8246 112.8 50.9203 110.7L52.3552 109.263C54.451 107.163 54.451 103.74 52.3552 101.641C51.2979 100.581 49.9197 100.071 48.5414 100.071H48.5603Z" fill="#666C92"/>
<path id="Vector_6" d="M189.389 71.7764C188.37 71.7764 187.35 71.3414 186.614 70.5092L145.813 23.6228C144.473 22.0908 144.643 19.7645 146.172 18.4405L166.242 0.907763C167.771 -0.435091 170.093 -0.26487 171.415 1.26712C172.755 2.79911 172.586 5.12546 171.056 6.4494L153.762 21.5612L189.748 62.906L193.92 59.2557C195.45 57.9128 197.772 58.0831 199.094 59.6151C200.434 61.147 200.264 63.4734 198.735 64.7973L191.787 70.8496C191.088 71.4549 190.239 71.7575 189.37 71.7575L189.389 71.7764Z" fill="#666C92"/>
<path id="Vector_7" d="M38.1004 103.456C37.2508 103.456 36.4201 103.173 35.7215 102.568L34.8153 101.792C31.3413 98.8227 30.9825 98.5012 29.1511 96.6666C23.3926 90.9169 19.8809 84.6944 17.4831 79.9093C16.6523 78.2638 15.8782 76.6562 15.1608 75.1242C13.7259 72.1169 12.4986 69.5258 11.1581 67.5399C11.026 67.3508 10.9316 67.1616 10.8372 66.9536C9.62881 65.327 9.96866 63.0574 11.5924 61.828C13.2161 60.6176 15.5195 60.9769 16.7278 62.6035C16.9166 62.8494 17.1432 63.1709 17.3698 63.6059C18.9746 66.0268 20.334 68.9017 21.7878 71.9467C22.4864 73.422 23.2227 74.9729 24.0345 76.5805C26.2058 80.8739 29.3211 86.4344 34.3432 91.4465C35.967 93.073 36.1746 93.2622 39.592 96.1748L40.4983 96.9503C42.0464 98.2742 42.2164 100.601 40.9136 102.133C40.1962 102.984 39.1577 103.419 38.1193 103.419L38.1004 103.456Z" fill="#666C92"/>
<path id="Vector_8" d="M98.5367 28.9942C97.7814 28.9942 97.0451 28.7672 96.3843 28.2944C89.8139 23.5282 80.959 22.1664 72.6705 24.663C72.0475 24.8521 71.4999 25.0224 70.9335 25.1547C61.7388 27.8405 54.4698 28.6348 49.5043 27.4811C49.2211 27.4433 48.7113 27.3109 48.2015 27.1596H48.1638C47.975 27.1028 47.7862 27.0272 47.6351 26.9515C45.8037 26.0815 45.0296 23.8875 45.8792 22.0529C46.6911 20.3318 48.6358 19.5375 50.3917 20.1427C50.4294 20.1427 50.4672 20.1616 50.5049 20.1805C50.6182 20.2183 50.7315 20.2562 50.8637 20.2751C54.753 21.164 61.1157 20.3507 69.0077 18.0622C69.593 17.9109 70.0462 17.7785 70.4993 17.6461C80.9968 14.4687 92.2684 16.2276 100.689 22.3366C102.332 23.5282 102.69 25.8356 101.501 27.4811C100.783 28.4835 99.6695 28.9942 98.5178 28.9942H98.5367Z" fill="#666C92"/>
<path id="Vector_9" d="M135.939 128.441C132.673 128.441 129.425 127.193 126.933 124.715L117.946 115.712C116.511 114.275 116.511 111.949 117.946 110.511C119.381 109.074 121.703 109.074 123.138 110.511L132.125 119.514C134.221 121.613 137.638 121.613 139.734 119.514C141.83 117.415 141.83 113.991 139.734 111.892L123.006 95.1345C121.571 93.6971 121.571 91.3707 123.006 89.9333C124.441 88.4959 126.763 88.4959 128.198 89.9333L144.926 106.691C149.891 111.665 149.891 119.741 144.926 124.715C142.453 127.193 139.186 128.441 135.92 128.441H135.939Z" fill="#666C92"/>
<path id="Vector_10" d="M153.026 120.081C149.759 120.081 146.512 118.833 144.02 116.355L123.006 95.1156C121.571 93.6781 121.59 91.3518 123.025 89.9144C124.46 88.4769 126.782 88.4958 128.217 89.9333L149.212 111.154C151.289 113.254 154.725 113.235 156.821 111.154C158.916 109.055 158.916 105.631 156.821 103.532L155.386 102.095C153.951 100.657 153.951 98.3308 155.386 96.8934C156.821 95.456 159.143 95.456 160.578 96.8934L162.013 98.3308C166.978 103.305 166.978 111.381 162.013 116.355C159.539 118.833 156.273 120.081 153.007 120.081H153.026Z" fill="#666C92"/>
<path id="Vector_11" d="M122.855 141C119.437 141 116.246 139.676 113.849 137.274L103.899 127.306C102.464 125.869 102.464 123.542 103.899 122.105C105.334 120.668 107.656 120.668 109.091 122.105L119.041 132.072C121.061 134.096 124.629 134.096 126.65 132.072C128.745 129.973 128.745 126.55 126.65 124.45L109.846 107.617C108.411 106.18 108.411 103.854 109.846 102.416C111.281 100.979 113.603 100.979 115.038 102.416L131.842 119.249C136.807 124.223 136.807 132.318 131.842 137.274C129.444 139.676 126.253 141 122.836 141H122.855Z" fill="#666C92"/>
<path id="Vector_12" d="M10.6107 71.8898C9.72331 71.8898 8.8737 71.5683 8.194 70.9819L1.24602 64.9107C-0.283295 63.5679 -0.434338 61.2604 0.887289 59.7285C2.20892 58.1965 4.55009 58.0263 6.06052 59.3691L10.2331 63.0194L46.238 21.6746L28.9436 6.58172C27.4142 5.23887 27.2632 2.93143 28.5848 1.39944C29.9253 -0.132545 32.2287 -0.302766 33.7581 1.04009L53.8279 18.5539C55.3572 19.8968 55.5083 22.2042 54.1866 23.7362L13.3861 70.6226C12.7442 71.3602 11.8379 71.8141 10.875 71.8709C10.7806 71.8709 10.7051 71.8709 10.6296 71.8709L10.6107 71.8898Z" fill="#666C92"/>
<path id="Vector_13" d="M157.991 103.173C157.047 103.173 156.103 102.813 155.386 102.095L107.014 53.6383C105.919 52.5224 104.201 52.5035 103.087 53.5627C98.9709 57.4967 93.0803 63.1329 89.5496 66.5184L86.5854 69.3554C84.3009 71.5493 81.3933 72.7409 78.1459 72.6463C74.974 72.5707 72.0286 71.2845 69.8574 68.9771L68.649 67.7099C68.2148 67.2182 67.8561 66.8021 67.554 66.3481C64.1366 61.8089 64.6841 55.1136 68.97 50.9526L95.1005 25.9301C96.4598 24.6251 97.9136 23.4147 99.4429 22.3366C107.826 16.2465 119.097 14.4875 129.557 17.6461C138.79 20.4452 146.153 21.3531 149.759 20.1615C151.685 19.5185 153.762 20.5587 154.404 22.4879C155.046 24.4171 154.007 26.4975 152.081 27.1406C146.833 28.8806 138.544 28.0674 127.424 24.7008C119.135 22.2042 110.28 23.566 103.71 28.3321C102.445 29.2211 101.274 30.2046 100.179 31.2637L74.0488 56.2862C72.4251 57.856 72.2174 60.3715 73.5579 62.1683C73.7845 62.4898 73.8978 62.6033 73.9922 62.7168L75.1439 63.9083C75.9746 64.7783 77.0886 65.2701 78.2969 65.3079C79.543 65.3268 80.6381 64.8918 81.4877 64.0596L84.4708 61.2226C88.0014 57.856 93.8921 52.2198 98.008 48.2858C101.973 44.4842 108.354 44.5599 112.225 48.4939L160.578 96.9312C162.013 98.3686 162.013 100.695 160.578 102.132C159.86 102.851 158.916 103.21 157.972 103.21L157.991 103.173Z" fill="#666C92"/>
<path id="Vector_14" d="M72.8405 145.009C69.4231 145.009 66.2323 143.685 63.8345 141.283C58.869 136.309 58.869 128.214 63.8345 123.259L75.2005 111.873C77.5983 109.471 80.7891 108.147 84.2064 108.147C87.6238 108.147 90.8146 109.471 93.2124 111.873C95.6102 114.275 96.9318 117.471 96.9318 120.895C96.9318 124.318 95.6102 127.514 93.2124 129.916L81.8464 141.302C79.4486 143.704 76.2578 145.028 72.8405 145.028V145.009ZM84.2064 115.504C82.7715 115.504 81.4122 116.053 80.3926 117.074L69.0266 128.46C66.9309 130.559 66.9309 133.983 69.0266 136.082C71.0468 138.106 74.6152 138.106 76.6354 136.082L88.0014 124.696C89.0021 123.694 89.5685 122.332 89.5685 120.876C89.5685 119.419 89.021 118.077 88.0014 117.055C87.0007 116.034 85.6414 115.485 84.1876 115.485L84.2064 115.504Z" fill="#666C92"/>
<path id="Vector_15" d="M94.4775 149C91.0412 149 87.8504 147.676 85.4526 145.293C81.129 140.962 80.506 134.134 83.98 129.065C84.3387 128.479 84.8485 127.874 85.3582 127.344L90.7769 121.916C94.9306 117.736 101.879 117.036 106.787 120.271C106.863 120.327 106.939 120.384 107.014 120.441C107.599 120.838 108.166 121.311 108.77 121.916C109.28 122.427 109.771 122.994 110.224 123.656C113.754 128.744 113.15 135.571 108.77 139.922L103.446 145.274C102.804 145.917 102.162 146.428 101.463 146.863C99.5374 148.206 97.0452 149 94.4586 149H94.4775ZM99.8017 125.547C98.3479 125.547 96.9885 126.115 95.969 127.117L90.6447 132.451C90.5126 132.583 90.3049 132.81 90.135 133.075C88.5868 135.345 88.8511 138.295 90.6447 140.092C92.3817 141.832 95.4215 142.134 97.4606 140.716C97.857 140.47 98.0458 140.319 98.2535 140.092L103.578 134.739C105.39 132.943 105.655 129.992 104.182 127.893C103.993 127.628 103.804 127.382 103.559 127.155C103.313 126.909 103.087 126.701 102.823 126.512C102.766 126.474 102.709 126.436 102.653 126.38C101.803 125.85 100.802 125.566 99.764 125.566L99.8017 125.547Z" fill="#666C92"/>
</g>
</g>
<defs>
<clipPath id="clip0_122_18921">
<rect width="200" height="149" fill="white"/>
</clipPath>
</defs>
</svg>
