<svg width="200" height="200" viewBox="0 0 200 200" fill="none" xmlns="http://www.w3.org/2000/svg">
<g id="Frame" clip-path="url(#clip0_121_18155)">
<g id="Group">
<g id="Not Found">
<g id="Group_2">
<path id="Vector" d="M181.154 26.362V165.256C181.154 169.892 177.381 173.657 172.729 173.657H24.618C19.9662 173.657 16.1926 169.892 16.1926 165.256V26.362C16.1926 21.7261 19.9662 17.9614 24.618 17.9614H172.729C177.381 17.9614 181.154 21.7261 181.154 26.362Z" fill="#F5F5F5"/>
<path id="Vector_2" style="mix-blend-mode:multiply" d="M181.154 130.437V165.261C181.154 169.897 177.385 173.662 172.729 173.662H126.653C122.086 149.563 140.708 127.127 165.348 127.127C170.968 127.127 176.313 128.306 181.154 130.437Z" fill="url(#paint0_linear_121_18155)"/>
<path id="Vector_3" d="M172.729 175.078H24.6179C19.1877 175.078 14.7686 170.674 14.7686 165.257V26.3623C14.7686 20.9449 19.1877 16.541 24.6179 16.541H172.729C178.159 16.541 182.578 20.9449 182.578 26.3623V165.257C182.578 170.674 178.159 175.078 172.729 175.078ZM24.6179 19.3823C20.7589 19.3823 17.6166 22.5124 17.6166 26.3623V165.257C17.6166 169.106 20.7589 172.237 24.6179 172.237H172.729C176.588 172.237 179.73 169.106 179.73 165.257V26.3623C179.73 22.5124 176.588 19.3823 172.729 19.3823H24.6179Z" fill="#999DB6"/>
<path id="Vector_4" d="M181.154 26.362V36.6758H16.1926V26.362C16.1926 21.7261 19.9662 17.9614 24.618 17.9614H172.729C177.381 17.9614 181.154 21.7261 181.154 26.362Z" fill="#999DB6"/>
<path id="Vector_5" d="M28.8803 30.9552C30.8936 30.9552 32.5258 29.327 32.5258 27.3184C32.5258 25.3099 30.8936 23.6816 28.8803 23.6816C26.867 23.6816 25.2349 25.3099 25.2349 27.3184C25.2349 29.327 26.867 30.9552 28.8803 30.9552Z" fill="#F5F5F5"/>
<path id="Vector_6" d="M42.6884 30.9552C44.7018 30.9552 46.3339 29.327 46.3339 27.3184C46.3339 25.3099 44.7018 23.6816 42.6884 23.6816C40.6751 23.6816 39.043 25.3099 39.043 27.3184C39.043 29.327 40.6751 30.9552 42.6884 30.9552Z" fill="#F5F5F5"/>
<path id="Vector_7" d="M99.8196 139.595C125.815 139.595 146.888 118.572 146.888 92.6389C146.888 66.7057 125.815 45.6826 99.8196 45.6826C73.8246 45.6826 52.7515 66.7057 52.7515 92.6389C52.7515 118.572 73.8246 139.595 99.8196 139.595Z" fill="#DEE1EC"/>
<path id="Vector_8" d="M108.777 162.656H90.853C88.1902 162.656 86.0352 160.506 86.0352 157.85C86.0352 155.193 88.1902 153.043 90.853 153.043H108.777C111.439 153.043 113.594 155.193 113.594 157.85C113.594 160.506 111.439 162.656 108.777 162.656Z" fill="#A9AFC4"/>
<path id="Vector_9" d="M165.343 198.579C183.156 198.579 197.597 184.173 197.597 166.402C197.597 148.631 183.156 134.225 165.343 134.225C147.53 134.225 133.089 148.631 133.089 166.402C133.089 184.173 147.53 198.579 165.343 198.579Z" fill="#F5F5F5"/>
<path id="Vector_10" d="M165.343 200C146.774 200 131.665 184.927 131.665 166.402C131.665 147.877 146.774 132.805 165.343 132.805C183.912 132.805 199.021 147.877 199.021 166.402C199.021 184.927 183.912 200 165.343 200ZM165.343 135.651C148.345 135.651 134.513 149.445 134.513 166.407C134.513 183.369 148.34 197.164 165.343 197.164C182.345 197.164 196.172 183.369 196.172 166.407C196.172 149.445 182.345 135.651 165.343 135.651Z" fill="#999DB6"/>
<g id="Group_3">
<path id="Vector_11" d="M95.8299 101.678C95.9512 95.9687 98.773 90.6034 103.43 87.2585C105.126 86.044 106.089 84.0726 106.01 81.9916C105.884 78.7489 103.188 76.0587 99.8236 76.0587C96.4595 76.0587 93.8349 78.5749 93.6377 81.8592H85.6426C85.8436 74.0987 92.3557 67.7951 100.366 68.1015C107.724 68.3815 113.709 74.3485 113.989 81.6927C114.172 86.4488 111.968 90.9514 108.092 93.7287C105.513 95.5789 103.935 98.5303 103.817 101.678H95.8261H95.8299Z" fill="#999DB6"/>
<path id="Vector_12" d="M103.753 109.186H95.7273V117.192H103.753V109.186Z" fill="#999DB6"/>
</g>
<path id="Vector_13" d="M173.73 169.514C177.167 163.945 176.464 156.553 171.623 151.723C165.965 146.078 156.789 146.078 151.131 151.723C145.473 157.372 145.473 166.526 151.131 172.165C155.973 176.996 163.382 177.696 168.965 174.268C171.941 179.316 174.461 181.527 178.757 185.813C181.334 184.066 183.532 181.807 185.217 179.193C181.021 175.007 178.776 172.473 173.73 169.509V169.514ZM166.586 167.146C163.71 170.02 159.044 170.016 156.167 167.146C153.291 164.276 153.286 159.621 156.167 156.752C159.039 153.882 163.71 153.882 166.586 156.752C169.463 159.621 169.463 164.281 166.586 167.146Z" fill="#57CFC8"/>
<path id="Vector_14" d="M139.231 195.634H136.383V192.792H139.231V195.634ZM131.637 195.634H128.789V192.792H131.637V195.634ZM124.042 195.634H121.194V192.792H124.042V195.634ZM116.447 195.634H113.599V192.792H116.447V195.634ZM108.852 195.634H106.004V192.792H108.852V195.634ZM101.258 195.634H98.4098V192.792H101.258V195.634ZM93.6631 195.634H90.8151V192.792H93.6631V195.634ZM86.0684 195.634H83.2204V192.792H86.0684V195.634ZM78.4737 195.634H75.6257V192.792H78.4737V195.634ZM70.879 195.634H68.031V192.792H70.879V195.634Z" fill="#A9AFC4"/>
<path id="Vector_15" d="M70.8885 188.535H68.0405V185.694H70.8885V188.535ZM70.8885 180.959H68.0405V178.331H70.8885V180.959Z" fill="#A9AFC4"/>
<g id="Group_4">
<path id="Vector_16" d="M190.916 6.2913L184.58 12.6143L186.595 14.623L192.93 8.30001L190.916 6.2913Z" fill="#999DB6"/>
<path id="Vector_17" d="M179.63 0H176.782V8.94045H179.63V0Z" fill="#999DB6"/>
<path id="Vector_18" d="M199.495 19.0361H190.534V21.8774H199.495V19.0361Z" fill="#999DB6"/>
</g>
<path id="Vector_19" d="M4.97612 181.163C2.50785 181.163 0.5 179.159 0.5 176.702C0.5 174.244 2.50785 172.236 4.97612 172.236C7.4444 172.236 9.4475 174.239 9.4475 176.702C9.4475 179.164 7.43965 181.163 4.97612 181.163ZM4.97612 175.078C4.079 175.078 3.34801 175.807 3.34801 176.702C3.34801 177.597 4.079 178.321 4.97612 178.321C5.87325 178.321 6.59949 177.592 6.59949 176.702C6.59949 175.812 5.8685 175.078 4.97612 175.078Z" fill="#999DB6"/>
<path id="Vector_20" d="M25.7571 196.95C22.3775 196.95 19.6292 194.209 19.6292 190.832C19.6292 187.456 22.3775 184.719 25.7571 184.719C29.1368 184.719 31.8851 187.461 31.8851 190.832C31.8851 194.204 29.1368 196.95 25.7571 196.95ZM25.7571 187.56C23.9486 187.56 22.4772 189.028 22.4772 190.832C22.4772 192.636 23.9486 194.109 25.7571 194.109C27.5656 194.109 29.0371 192.641 29.0371 190.832C29.0371 189.023 27.5656 187.56 25.7571 187.56Z" fill="#999DB6"/>
<path id="Vector_21" d="M70.8885 169.3H68.0405V166.459H70.8885V169.3ZM70.8885 161.724H68.0405V158.882H70.8885V161.724ZM70.8885 154.147H68.0405V151.306H70.8885V154.147ZM70.8885 146.57H68.0405V143.729H70.8885V146.57ZM70.8885 138.994H68.0405V136.152H70.8885V138.994Z" fill="#A9AFC4"/>
</g>
</g>
</g>
</g>
<defs>
<linearGradient id="paint0_linear_121_18155" x1="125.96" y1="150.392" x2="181.154" y2="150.392" gradientUnits="userSpaceOnUse">
<stop stop-color="#CACFDD"/>
<stop offset="1" stop-color="#EEF0F1"/>
</linearGradient>
<clipPath id="clip0_121_18155">
<rect width="199" height="200" fill="white" transform="translate(0.5)"/>
</clipPath>
</defs>
</svg>
