<svg width="36" height="138" viewBox="0 0 36 138" fill="none" xmlns="http://www.w3.org/2000/svg">
<g id="Hand_Drawn_Arrows" clip-path="url(#clip0_144_940)">
<path id="Vector" d="M32.1552 64.1524C26.8114 67.566 20.7268 64.9057 16.7207 60.8279C16.5698 61.095 16.4292 61.3552 16.2989 61.6051C11.2878 71.1199 8.78744 81.9836 8.57822 92.7001C8.37586 103.136 10.3892 113.524 14.5462 123.069C14.5462 121.429 14.5462 119.786 14.5496 118.146C14.5531 113.887 21.183 113.88 21.1796 118.146C21.1727 123.662 21.1693 129.177 21.1624 134.693C21.1624 136.826 19.0428 138.473 16.9677 137.884C11.7063 136.391 6.62319 134.43 1.69788 132.057C-2.14358 130.208 1.21427 124.5 5.04201 126.342C6.58546 127.085 8.14262 127.77 9.72037 128.41C4.00276 116.478 1.32746 103.198 2.04773 89.9679C2.42502 83.0244 3.6632 76.0878 5.84803 69.4799C7.42921 64.6968 9.37052 59.4241 12.3545 55.1204C9.88157 51.2618 7.98142 47.0402 6.7055 42.6338C2.73371 28.9043 4.68531 13.5657 12.4951 1.53097C14.8069 -2.02979 20.5485 1.28103 18.2196 4.86918C12.8861 13.0897 10.6704 22.7586 11.5039 32.4959C11.9052 37.1865 13.1057 41.9182 15.0264 46.2185C15.5889 47.4785 16.2303 48.8206 16.9608 50.1559C21.4265 46.8382 27.8644 45.5954 32.4159 49.4129C36.9776 53.2407 37.4989 60.7355 32.1552 64.149V64.1524ZM27.2436 53.9324C24.8015 52.9497 22.5721 53.9221 20.7131 55.5861C21.5672 56.5208 22.4967 57.3527 23.505 58.0135C24.9422 58.9551 27.6038 59.8145 28.9791 58.2601C30.2859 56.7844 28.7493 54.5384 27.2436 53.9324Z" fill="#666C92"/>
</g>
<defs>
<clipPath id="clip0_144_940">
<rect width="36" height="138" fill="white" transform="matrix(-1 0 0 1 36 0)"/>
</clipPath>
</defs>
</svg>
