<svg width="14" height="14" viewBox="0 0 14 14" fill="none" xmlns="http://www.w3.org/2000/svg">
<g id="auto-reply 1">
<path id="Vector" d="M6.0836 9.75C6.0836 9.90538 6.09643 10.058 6.11522 10.2083H5.06385L3.01106 11.4316C2.72049 11.6264 2.33138 11.6356 2.02019 11.4683C1.69937 11.2964 1.5 10.9641 1.5 10.6002V3.79167C1.50046 2.52804 2.52846 1.5 3.79203 1.5H9.2918C10.5554 1.5 11.5834 2.52804 11.5834 3.79167V6.57925C11.0435 6.26575 10.4183 6.08333 9.75011 6.08333C7.72849 6.08333 6.0836 7.72829 6.0836 9.75ZM12.5 9.75C12.5 11.2689 11.269 12.5 9.75011 12.5C8.23126 12.5 7.00023 11.2689 7.00023 9.75C7.00023 8.23108 8.23126 7 9.75011 7C11.269 7 12.5 8.23108 12.5 9.75ZM11.5834 9.75C11.5834 9.49654 11.378 9.29167 11.1251 9.29167H9.75011V8.77787C9.75011 8.61517 9.65249 8.46804 9.50217 8.40571C9.35321 8.34383 9.17906 8.37729 9.06356 8.49279L8.37609 9.18029C8.06214 9.49425 8.06214 10.0053 8.37609 10.3193L9.06356 11.0068C9.1786 11.1223 9.35184 11.1575 9.50217 11.0938C9.65249 11.0315 9.75011 10.8848 9.75011 10.7217V10.2079H11.1251C11.378 10.2079 11.5834 10.0035 11.5834 9.75Z" fill="white"/>
</g>
</svg>
