<svg width="18" height="18" viewBox="0 0 18 18" fill="none" xmlns="http://www.w3.org/2000/svg">
<path d="M13.1667 10.6663C13.6269 10.6663 14 10.2932 14 9.83301C14 9.37277 13.6269 8.99967 13.1667 8.99967C12.7065 8.99967 12.3334 9.37277 12.3334 9.83301C12.3334 10.2932 12.7065 10.6663 13.1667 10.6663Z" fill="#152C2A"/>
<path d="M13.1667 13.9997C13.6269 13.9997 14 13.6266 14 13.1663C14 12.7061 13.6269 12.333 13.1667 12.333C12.7065 12.333 12.3334 12.7061 12.3334 13.1663C12.3334 13.6266 12.7065 13.9997 13.1667 13.9997Z" fill="#152C2A"/>
<path d="M9.83335 9.83301C9.83335 10.2932 9.46026 10.6663 9.00002 10.6663C8.53978 10.6663 8.16669 10.2932 8.16669 9.83301C8.16669 9.37277 8.53978 8.99967 9.00002 8.99967C9.46026 8.99967 9.83335 9.37277 9.83335 9.83301Z" fill="#152C2A"/>
<path d="M9.83335 13.1663C9.83335 13.6266 9.46026 13.9997 9.00002 13.9997C8.53978 13.9997 8.16669 13.6266 8.16669 13.1663C8.16669 12.7061 8.53978 12.333 9.00002 12.333C9.46026 12.333 9.83335 12.7061 9.83335 13.1663Z" fill="#152C2A"/>
<path d="M4.83335 10.6663C5.29359 10.6663 5.66669 10.2932 5.66669 9.83301C5.66669 9.37277 5.29359 8.99967 4.83335 8.99967C4.37312 8.99967 4.00002 9.37277 4.00002 9.83301C4.00002 10.2932 4.37312 10.6663 4.83335 10.6663Z" fill="#152C2A"/>
<path d="M4.83335 13.9997C5.29359 13.9997 5.66669 13.6266 5.66669 13.1663C5.66669 12.7061 5.29359 12.333 4.83335 12.333C4.37312 12.333 4.00002 12.7061 4.00002 13.1663C4.00002 13.6266 4.37312 13.9997 4.83335 13.9997Z" fill="#152C2A"/>
<path fill-rule="evenodd" clip-rule="evenodd" d="M4.83335 0.458008C5.17853 0.458008 5.45835 0.73783 5.45835 1.08301V1.71861C6.01002 1.708 6.61779 1.708 7.28624 1.70801H10.7137C11.3822 1.708 11.99 1.708 12.5417 1.71861V1.08301C12.5417 0.73783 12.8215 0.458008 13.1667 0.458008C13.5119 0.458008 13.7917 0.73783 13.7917 1.08301V1.77225C14.0083 1.78876 14.2134 1.80952 14.4075 1.83562C15.3846 1.96698 16.1753 2.24374 16.799 2.86738C17.4226 3.49101 17.6994 4.2818 17.8307 5.25882C17.9584 6.20816 17.9584 7.42118 17.9584 8.95263V10.7134C17.9584 12.2448 17.9584 13.4579 17.8307 14.4072C17.6994 15.3842 17.4226 16.175 16.799 16.7986C16.1753 17.4223 15.3846 17.699 14.4075 17.8304C13.4582 17.958 12.2452 17.958 10.7137 17.958H7.28635C5.75489 17.958 4.54184 17.958 3.5925 17.8304C2.61548 17.699 1.82469 17.4223 1.20106 16.7986C0.577421 16.175 0.300656 15.3842 0.1693 14.4072C0.0416638 13.4578 0.0416742 12.2448 0.0416873 10.7134V8.95266C0.0416742 7.42119 0.0416638 6.20817 0.1693 5.25882C0.300656 4.2818 0.577421 3.49101 1.20106 2.86738C1.82469 2.24374 2.61548 1.96698 3.5925 1.83562C3.78661 1.80952 3.99174 1.78876 4.20835 1.77225V1.08301C4.20835 0.73783 4.48818 0.458008 4.83335 0.458008ZM3.75906 3.07447C2.92065 3.18719 2.43761 3.39859 2.08494 3.75126C1.73227 4.10393 1.52087 4.58697 1.40815 5.42538C1.38906 5.56737 1.3731 5.71685 1.35976 5.87467H16.6403C16.6269 5.71685 16.611 5.56737 16.5919 5.42538C16.4792 4.58697 16.2678 4.10393 15.9151 3.75126C15.5624 3.39859 15.0794 3.18719 14.241 3.07447C13.3846 2.95933 12.2557 2.95801 10.6667 2.95801H7.33335C5.74434 2.95801 4.61545 2.95933 3.75906 3.07447ZM1.29169 8.99967C1.29169 8.288 1.29195 7.66861 1.30259 7.12467H16.6974C16.7081 7.66861 16.7084 8.288 16.7084 8.99967V10.6663C16.7084 12.2554 16.707 13.3842 16.5919 14.2406C16.4792 15.079 16.2678 15.5621 15.9151 15.9148C15.5624 16.2674 15.0794 16.4788 14.241 16.5915C13.3846 16.7067 12.2557 16.708 10.6667 16.708H7.33335C5.74434 16.708 4.61545 16.7067 3.75906 16.5915C2.92065 16.4788 2.43761 16.2674 2.08494 15.9148C1.73227 15.5621 1.52087 15.079 1.40815 14.2406C1.29301 13.3842 1.29169 12.2554 1.29169 10.6663V8.99967Z" fill="#152C2A"/>
</svg>
