<svg width="30" height="30" viewBox="0 0 30 30" fill="none" xmlns="http://www.w3.org/2000/svg">
<rect width="30" height="30" rx="10" fill="#57CFC8"/>
<path d="M9.16675 14.7085V15.2918C9.16675 17.2095 9.16675 18.1684 9.69639 18.8137C9.79335 18.9319 9.90168 19.0402 10.0198 19.1372C10.6652 19.6668 11.6241 19.6668 13.5417 19.6668C15.4594 19.6668 16.4183 19.6668 17.0637 19.1372C17.1818 19.0402 17.2901 18.9319 17.3871 18.8137C17.7964 18.3151 17.8894 17.6292 17.9105 16.4585L18.3008 16.6505C19.4359 17.2181 20.0034 17.5018 20.4184 17.2454C20.8334 16.9889 20.8334 16.3544 20.8334 15.0853V14.9151C20.8334 13.646 20.8334 13.0114 20.4184 12.755C20.0034 12.4985 19.4359 12.7823 18.3008 13.3498L17.9105 13.5418C17.8894 12.3711 17.7964 11.6853 17.3871 11.1866C17.2901 11.0684 17.1818 10.9601 17.0637 10.8631C16.4183 10.3335 15.4594 10.3335 13.5417 10.3335C11.6241 10.3335 10.6652 10.3335 10.0198 10.8631C9.90168 10.9601 9.79335 11.0684 9.69639 11.1866C9.16675 11.8319 9.16675 12.7908 9.16675 14.7085Z" fill="white"/>
</svg>
