<svg width="30" height="30" viewBox="0 0 30 30" fill="none" xmlns="http://www.w3.org/2000/svg">
<rect width="30" height="30" rx="10" fill="#E5F8F6"/>
<path d="M11.8125 7.875C11.8125 7.56434 11.5607 7.3125 11.25 7.3125C10.9393 7.3125 10.6875 7.56434 10.6875 7.875V9.05944C9.608 9.14588 8.89933 9.35803 8.37868 9.87868C7.85803 10.3993 7.64588 11.108 7.55944 12.1875H22.4406C22.3541 11.108 22.142 10.3993 21.6213 9.87868C21.1007 9.35803 20.392 9.14588 19.3125 9.05944V7.875C19.3125 7.56434 19.0607 7.3125 18.75 7.3125C18.4393 7.3125 18.1875 7.56434 18.1875 7.875V9.00968C17.6886 9 17.1293 9 16.5 9H13.5C12.8707 9 12.3114 9 11.8125 9.00968V7.875Z" fill="#57CFC8"/>
<path fill-rule="evenodd" clip-rule="evenodd" d="M7.5 15C7.5 14.3707 7.5 13.8114 7.50968 13.3125H22.4903C22.5 13.8114 22.5 14.3707 22.5 15V16.5C22.5 19.3284 22.5 20.7426 21.6213 21.6213C20.7426 22.5 19.3284 22.5 16.5 22.5H13.5C10.6716 22.5 9.25736 22.5 8.37868 21.6213C7.5 20.7426 7.5 19.3284 7.5 16.5V15ZM18.75 16.5C19.1642 16.5 19.5 16.1642 19.5 15.75C19.5 15.3358 19.1642 15 18.75 15C18.3358 15 18 15.3358 18 15.75C18 16.1642 18.3358 16.5 18.75 16.5ZM18.75 19.5C19.1642 19.5 19.5 19.1642 19.5 18.75C19.5 18.3358 19.1642 18 18.75 18C18.3358 18 18 18.3358 18 18.75C18 19.1642 18.3358 19.5 18.75 19.5ZM15.75 15.75C15.75 16.1642 15.4142 16.5 15 16.5C14.5858 16.5 14.25 16.1642 14.25 15.75C14.25 15.3358 14.5858 15 15 15C15.4142 15 15.75 15.3358 15.75 15.75ZM15.75 18.75C15.75 19.1642 15.4142 19.5 15 19.5C14.5858 19.5 14.25 19.1642 14.25 18.75C14.25 18.3358 14.5858 18 15 18C15.4142 18 15.75 18.3358 15.75 18.75ZM11.25 16.5C11.6642 16.5 12 16.1642 12 15.75C12 15.3358 11.6642 15 11.25 15C10.8358 15 10.5 15.3358 10.5 15.75C10.5 16.1642 10.8358 16.5 11.25 16.5ZM11.25 19.5C11.6642 19.5 12 19.1642 12 18.75C12 18.3358 11.6642 18 11.25 18C10.8358 18 10.5 18.3358 10.5 18.75C10.5 19.1642 10.8358 19.5 11.25 19.5Z" fill="#57CFC8"/>
</svg>
