<svg width="25" height="24" viewBox="0 0 25 24" fill="none" xmlns="http://www.w3.org/2000/svg">
<path d="M8.25 2.5C8.25 2.08579 7.91421 1.75 7.5 1.75C7.08579 1.75 6.75 2.08579 6.75 2.5V4.07926C5.31067 4.19451 4.36577 4.47737 3.67157 5.17157C2.97737 5.86577 2.69451 6.81067 2.57926 8.25H22.4207C22.3055 6.81067 22.0226 5.86577 21.3284 5.17157C20.6342 4.47737 19.6893 4.19451 18.25 4.07926V2.5C18.25 2.08579 17.9142 1.75 17.5 1.75C17.0858 1.75 16.75 2.08579 16.75 2.5V4.0129C16.0847 4 15.339 4 14.5 4H10.5C9.66097 4 8.91527 4 8.25 4.0129V2.5Z" fill="#57CFC8"/>
<path fill-rule="evenodd" clip-rule="evenodd" d="M2.5 12C2.5 11.161 2.5 10.4153 2.5129 9.75H22.4871C22.5 10.4153 22.5 11.161 22.5 12V14C22.5 17.7712 22.5 19.6569 21.3284 20.8284C20.1569 22 18.2712 22 14.5 22H10.5C6.72876 22 4.84315 22 3.67157 20.8284C2.5 19.6569 2.5 17.7712 2.5 14V12ZM17.5 14C18.0523 14 18.5 13.5523 18.5 13C18.5 12.4477 18.0523 12 17.5 12C16.9477 12 16.5 12.4477 16.5 13C16.5 13.5523 16.9477 14 17.5 14ZM17.5 18C18.0523 18 18.5 17.5523 18.5 17C18.5 16.4477 18.0523 16 17.5 16C16.9477 16 16.5 16.4477 16.5 17C16.5 17.5523 16.9477 18 17.5 18ZM13.5 13C13.5 13.5523 13.0523 14 12.5 14C11.9477 14 11.5 13.5523 11.5 13C11.5 12.4477 11.9477 12 12.5 12C13.0523 12 13.5 12.4477 13.5 13ZM13.5 17C13.5 17.5523 13.0523 18 12.5 18C11.9477 18 11.5 17.5523 11.5 17C11.5 16.4477 11.9477 16 12.5 16C13.0523 16 13.5 16.4477 13.5 17ZM7.5 14C8.05228 14 8.5 13.5523 8.5 13C8.5 12.4477 8.05228 12 7.5 12C6.94772 12 6.5 12.4477 6.5 13C6.5 13.5523 6.94772 14 7.5 14ZM7.5 18C8.05228 18 8.5 17.5523 8.5 17C8.5 16.4477 8.05228 16 7.5 16C6.94772 16 6.5 16.4477 6.5 17C6.5 17.5523 6.94772 18 7.5 18Z" fill="#57CFC8"/>
</svg>
