<svg width="114" height="115" viewBox="0 0 114 115" fill="none" xmlns="http://www.w3.org/2000/svg">
<g id="Layer_1" clip-path="url(#clip0_124_20032)">
<path id="Vector" d="M114 57.5C114 86.9322 91.6928 111.171 63.0596 114.167C61.0619 114.433 58.9977 114.5 57 114.5H55.7348C26.9685 113.834 3.46262 91.8598 0.332944 63.7593C0.332944 63.3598 0.266355 63.0269 0.266355 62.6273C0.0665888 60.9626 0 59.2313 0 57.5C0 26.0035 25.5035 0.5 57 0.5C88.4965 0.5 114 26.0035 114 57.5Z" fill="#57CFC8"/>
<path id="Vector_2" d="M89.1622 33.1284H32.6283C30.0908 33.1284 28.0337 35.1855 28.0337 37.723V70.7511C28.0337 73.2886 30.0908 75.3457 32.6283 75.3457H89.1622C91.6997 75.3457 93.7568 73.2886 93.7568 70.7511V37.723C93.7568 35.1855 91.6997 33.1284 89.1622 33.1284Z" fill="#152C2A"/>
<path id="Vector_3" d="M93.7568 41.7183H28.0337V48.4437H93.7568V41.7183Z" fill="white"/>
<path id="Vector_4" d="M81.4381 39.7207H24.9042C22.3667 39.7207 20.3096 41.7778 20.3096 44.3153V77.3434C20.3096 79.8809 22.3667 81.938 24.9042 81.938H81.4381C83.9756 81.938 86.0327 79.8809 86.0327 77.3434V44.3153C86.0327 41.7778 83.9756 39.7207 81.4381 39.7207Z" fill="#E9CB6C"/>
<path id="Vector_5" d="M86.0327 66.6895H20.3096V72.5493H86.0327V66.6895Z" fill="white"/>
<path id="Vector_6" d="M76.5104 50.5745C78.0182 50.5745 79.2406 49.3522 79.2406 47.8444C79.2406 46.3366 78.0182 45.1143 76.5104 45.1143C75.0026 45.1143 73.7803 46.3366 73.7803 47.8444C73.7803 49.3522 75.0026 50.5745 76.5104 50.5745Z" fill="#152C2A"/>
<path id="Vector_7" d="M76.3772 50.7744C74.779 50.7744 73.4473 49.4426 73.4473 47.8445C73.4473 46.2463 74.779 44.9146 76.3772 44.9146C77.9753 44.9146 79.3071 46.2463 79.3071 47.8445C79.3071 49.4426 77.9753 50.7744 76.3772 50.7744ZM76.3772 45.2475C74.9788 45.2475 73.7802 46.3795 73.7802 47.8445C73.7802 49.3094 74.9122 50.4414 76.3772 50.4414C77.8421 50.4414 78.9741 49.3094 78.9741 47.8445C78.9741 46.3795 77.8421 45.2475 76.3772 45.2475Z" fill="white"/>
<path id="Vector_8" d="M36.2241 45.0479H28.8993C28.4213 45.0479 28.0337 45.4205 28.0337 45.8802C28.0337 46.3399 28.4213 46.7126 28.8993 46.7126H36.2241C36.7022 46.7126 37.0898 46.3399 37.0898 45.8802C37.0898 45.4205 36.7022 45.0479 36.2241 45.0479Z" fill="white"/>
<path id="Vector_9" d="M41.8176 48.9102H28.8993C28.4213 48.9102 28.0337 49.2828 28.0337 49.7425C28.0337 50.2022 28.4213 50.5749 28.8993 50.5749H41.8176C42.2957 50.5749 42.6832 50.2022 42.6832 49.7425C42.6832 49.2828 42.2957 48.9102 41.8176 48.9102Z" fill="white"/>
</g>
<defs>
<clipPath id="clip0_124_20032">
<rect width="114" height="114" fill="white" transform="translate(0 0.5)"/>
</clipPath>
</defs>
</svg>
