<svg width="20" height="20" viewBox="0 0 20 20" fill="none" xmlns="http://www.w3.org/2000/svg">
<g id="Outline / Money / Card">
<path id="Vector (Stroke)" fill-rule="evenodd" clip-rule="evenodd" d="M8.2864 2.70831H11.7138C13.2452 2.7083 14.4583 2.70829 15.4076 2.83593C16.3846 2.96728 17.1754 3.24405 17.799 3.86768C18.4227 4.49132 18.6994 5.28211 18.8308 6.25913C18.9062 6.81985 18.937 7.47256 18.9497 8.22854C18.9554 8.26261 18.9584 8.29761 18.9584 8.33331C18.9584 8.36269 18.9564 8.39159 18.9525 8.41989C18.9584 8.89133 18.9584 9.40151 18.9584 9.95297V10.047C18.9584 11.5785 18.9584 12.7915 18.8308 13.7408C18.6994 14.7179 18.4227 15.5086 17.799 16.1323C17.1754 16.7559 16.3846 17.0327 15.4076 17.164C14.4583 17.2917 13.2452 17.2917 11.7138 17.2916H8.28641C6.75494 17.2917 5.54191 17.2917 4.59256 17.164C3.61554 17.0327 2.82475 16.7559 2.20112 16.1323C1.57748 15.5086 1.30072 14.7179 1.16936 13.7408C1.04172 12.7915 1.04174 11.5785 1.04175 10.047V9.95297C1.04174 9.4015 1.04174 8.89132 1.04769 8.41988C1.04377 8.39158 1.04175 8.36269 1.04175 8.33331C1.04175 8.29762 1.04474 8.26262 1.05049 8.22856C1.06312 7.47257 1.09397 6.81985 1.16936 6.25913C1.30072 5.28211 1.57748 4.49132 2.20112 3.86768C2.82475 3.24405 3.61554 2.96728 4.59256 2.83593C5.54191 2.70829 6.75493 2.7083 8.2864 2.70831ZM2.2934 8.95831C2.29182 9.28197 2.29175 9.6284 2.29175 9.99998C2.29175 11.589 2.29308 12.7179 2.40821 13.5743C2.52094 14.4127 2.73233 14.8957 3.085 15.2484C3.43768 15.6011 3.92071 15.8125 4.75912 15.9252C5.61551 16.0403 6.7444 16.0416 8.33341 16.0416H11.6667C13.2558 16.0416 14.3847 16.0403 15.241 15.9252C16.0794 15.8125 16.5625 15.6011 16.9152 15.2484C17.2678 14.8957 17.4792 14.4127 17.5919 13.5743C17.7071 12.7179 17.7084 11.589 17.7084 9.99998C17.7084 9.6284 17.7083 9.28197 17.7068 8.95831H2.2934ZM17.6867 7.70831H2.31348C2.32978 7.21937 2.3583 6.79693 2.40821 6.42569C2.52094 5.58728 2.73233 5.10424 3.085 4.75157C3.43768 4.39889 3.92071 4.1875 4.75912 4.07478C5.61551 3.95964 6.7444 3.95831 8.33342 3.95831H11.6667C13.2558 3.95831 14.3847 3.95964 15.241 4.07478C16.0794 4.1875 16.5625 4.39889 16.9152 4.75157C17.2678 5.10424 17.4792 5.58728 17.5919 6.42569C17.6419 6.79693 17.6704 7.21937 17.6867 7.70831ZM4.37508 13.3333C4.37508 12.9881 4.6549 12.7083 5.00008 12.7083H8.33342C8.67859 12.7083 8.95842 12.9881 8.95842 13.3333C8.95842 13.6785 8.67859 13.9583 8.33342 13.9583H5.00008C4.6549 13.9583 4.37508 13.6785 4.37508 13.3333ZM9.79175 13.3333C9.79175 12.9881 10.0716 12.7083 10.4167 12.7083H11.6667C12.0119 12.7083 12.2917 12.9881 12.2917 13.3333C12.2917 13.6785 12.0119 13.9583 11.6667 13.9583H10.4167C10.0716 13.9583 9.79175 13.6785 9.79175 13.3333Z" fill="#152C2A"/>
</g>
</svg>
