<svg width="60" height="61" viewBox="0 0 60 61" fill="none" xmlns="http://www.w3.org/2000/svg">
<g id="fi_893106" clip-path="url(#clip0_498_1773)">
<path id="Vector" d="M46.25 9.11694H13.75C6.15949 9.12526 0.00832031 15.2764 0 22.8669V25.3669C0 26.0572 0.559687 26.6169 1.25004 26.6169H58.7501C59.4404 26.6169 60.0001 26.0572 60.0001 25.3669V22.8669C59.9917 15.2764 53.8405 9.12526 46.25 9.11694Z" fill="#CDAD44"/>
<path id="Vector_2" d="M51.1175 17.3071L45.8249 6.72216C43.6639 2.3997 38.4081 0.647632 34.0857 2.80857C34.0073 2.84771 33.9296 2.88814 33.8524 2.92962L8.15747 16.7647C7.54997 17.0926 7.32333 17.8509 7.65122 18.4584C7.86919 18.8623 8.29106 19.1142 8.74997 19.1146H50C50.6903 19.1146 51.25 18.5549 51.2499 17.8646C51.2499 17.6702 51.2045 17.4785 51.1175 17.3047V17.3071Z" fill="white"/>
<path id="Vector_3" d="M8.75004 16.6169H51.2501C56.0825 16.6169 60.0001 20.5344 60.0001 25.367V50.3669C60.0001 55.1994 56.0827 59.117 51.2501 59.117H8.75004C3.91746 59.117 0 55.1994 0 50.3669V25.367C0 20.5344 3.91746 16.6169 8.75004 16.6169Z" fill="#E9CB6C"/>
<path id="Vector_4" d="M58.7498 29.1172H48.7499C43.9174 29.1198 40.0019 33.0392 40.0044 37.8718C40.007 42.7007 43.9209 46.6147 48.7499 46.6173H58.7498C59.4402 46.6173 59.9999 46.0576 59.9999 45.3672V30.3672C59.9999 29.6768 59.4402 29.1172 58.7498 29.1172Z" fill="#CDAD44"/>
<path id="Vector_5" d="M48.75 41.6169C50.8211 41.6169 52.5 39.938 52.5 37.8669C52.5 35.7959 50.8211 34.1169 48.75 34.1169C46.6789 34.1169 45 35.7959 45 37.8669C45 39.938 46.6789 41.6169 48.75 41.6169Z" fill="white"/>
</g>
<defs>
<clipPath id="clip0_498_1773">
<rect width="60" height="60" fill="white" transform="translate(0 0.5)"/>
</clipPath>
</defs>
</svg>
