<svg width="31" height="30" viewBox="0 0 31 30" fill="none" xmlns="http://www.w3.org/2000/svg">
<g id="cb-svgrepo-com 1">
<path id="Vector" fill-rule="evenodd" clip-rule="evenodd" d="M9.2295 14.4921H15.9833C15.9231 13.0371 15.5829 11.5371 14.5513 10.5735C13.3224 9.42574 11.1699 9 9.24661 9C7.24479 9 5.03098 9.46697 3.79559 10.6984C2.73031 11.7593 2.5 13.4661 2.5 14.9997C2.5 16.606 2.95055 18.4745 4.10622 19.5508C5.33508 20.696 7.32632 21 9.24661 21C11.1121 21 13.1329 20.6567 14.3546 19.5695C15.5729 18.4835 15.9939 16.6544 15.9939 14.9997V14.9919H9.2295V14.4921ZM16.4366 14.9922V20.7317H25.8316V20.7239C27.2063 20.6493 28.3 19.4139 28.3 17.8971C28.3 16.3796 27.2063 15.065 25.8316 14.9896V14.9922H16.4366ZM25.7246 9.24034C27.0645 9.24034 28.128 10.399 28.128 11.8611C28.128 13.2453 27.1513 14.3757 25.9089 14.4922H16.4364V9.23194H25.4282C25.4835 9.22517 25.548 9.22997 25.611 9.2346C25.6503 9.23743 25.689 9.24034 25.7246 9.24034Z" fill="white"/>
</g>
</svg>
