<svg width="15" height="14" viewBox="0 0 15 14" fill="none" xmlns="http://www.w3.org/2000/svg">
<g id="Bold / Messages, Conversation / Chat Square">
<path id="Vector" d="M8.45043 11.9419L8.13421 12.4761C7.85236 12.9523 7.14827 12.9523 6.86642 12.4761L6.5502 11.9419C6.30492 11.5275 6.18228 11.3203 5.98529 11.2057C5.7883 11.0911 5.54028 11.0869 5.04425 11.0783C4.31195 11.0657 3.85268 11.0208 3.4675 10.8613C2.75283 10.5652 2.18503 9.99745 1.88901 9.28279C1.66699 8.74679 1.66699 8.06729 1.66699 6.70829V6.12496C1.66699 4.21546 1.66699 3.26071 2.09679 2.55934C2.33729 2.16689 2.66725 1.83692 3.0597 1.59643C3.76107 1.16663 4.71582 1.16663 6.62533 1.16663H8.37533C10.2848 1.16663 11.2396 1.16663 11.9409 1.59643C12.3334 1.83692 12.6634 2.16689 12.9039 2.55934C13.3337 3.26071 13.3337 4.21546 13.3337 6.12496V6.70829C13.3337 8.06729 13.3337 8.74679 13.1116 9.28279C12.8156 9.99745 12.2478 10.5652 11.5332 10.8613C11.148 11.0208 10.6887 11.0657 9.95638 11.0783C9.46035 11.0869 9.21233 11.0911 9.01534 11.2057C8.81835 11.3203 8.69571 11.5275 8.45043 11.9419Z" fill="white"/>
</g>
</svg>
