<svg width="18" height="20" viewBox="0 0 18 20" fill="none" xmlns="http://www.w3.org/2000/svg">
<path fill-rule="evenodd" clip-rule="evenodd" d="M4.18128 0C1.90588 0 0.0612793 1.84459 0.0612793 4.12V15.88C0.0612793 18.1554 1.90588 20 4.18128 20H7.85564C6.6936 18.768 5.98128 17.1072 5.98128 15.28C5.98128 11.4803 9.06156 8.4 12.8613 8.4C13.6455 8.4 14.3991 8.5312 15.1013 8.77288V4.12C15.1013 1.84459 13.2567 0 10.9813 0H4.18128Z" fill="#57CFC8"/>
<path fill-rule="evenodd" clip-rule="evenodd" d="M12.8614 20C12.528 20 12.2027 19.9654 11.8889 19.8997C9.74868 19.4514 8.14136 17.5534 8.14136 15.28C8.14136 12.6732 10.2546 10.56 12.8614 10.56C13.672 10.56 14.4349 10.7644 15.1014 11.1244C16.5781 11.922 17.5814 13.4838 17.5814 15.28C17.5814 17.8868 15.4682 20 12.8614 20Z" fill="#57CFC8"/>
<path d="M11.2234 14.9521C11.5213 14.6685 12.0042 14.6685 12.3021 14.9521L12.6117 15.2469L13.6979 14.2127C13.9958 13.9291 14.4787 13.9291 14.7766 14.2127C15.0745 14.4963 15.0745 14.9561 14.7766 15.2397L13.151 16.7873C12.8531 17.0709 12.3702 17.0709 12.0723 16.7873L11.2234 15.9791C10.9255 15.6955 10.9255 15.2357 11.2234 14.9521Z" fill="white"/>
<path d="M4.0612 2.39999C3.46472 2.39999 2.9812 2.88353 2.9812 3.47999C2.9812 4.07647 3.46472 4.55999 4.0612 4.55999H9.5812C10.1777 4.55999 10.6612 4.07647 10.6612 3.47999C10.6612 2.88353 10.1777 2.39999 9.5812 2.39999H4.0612Z" fill="white"/>
<path d="M2.9812 8.07999C2.9812 7.48351 3.46472 6.99999 4.0612 6.99999H5.5812C6.17768 6.99999 6.6612 7.48351 6.6612 8.07999C6.6612 8.67647 6.17768 9.15999 5.5812 9.15999H4.0612C3.46472 9.15999 2.9812 8.67647 2.9812 8.07999Z" fill="white"/>
</svg>
