<svg width="20" height="22" viewBox="0 0 20 22" fill="none" xmlns="http://www.w3.org/2000/svg">
<path fill-rule="evenodd" clip-rule="evenodd" d="M5.1814 1C2.906 1 1.0614 2.84459 1.0614 5.12V16.88C1.0614 19.1554 2.906 21 5.1814 21H8.85576C7.69372 19.768 6.9814 18.1072 6.9814 16.28C6.9814 12.4803 10.0617 9.4 13.8614 9.4C14.6456 9.4 15.3992 9.5312 16.1014 9.77288V5.12C16.1014 2.84459 14.2568 1 11.9814 1H5.1814Z" stroke="#666C92" stroke-width="1.5"/>
<path fill-rule="evenodd" clip-rule="evenodd" d="M13.8614 21.0001C13.5281 21.0001 13.2028 20.9655 12.889 20.8998C10.7487 20.4515 9.14142 18.5535 9.14142 16.2801C9.14142 13.6733 11.2546 11.5601 13.8614 11.5601C14.6721 11.5601 15.4349 11.7644 16.1014 12.1244C17.5781 12.9221 18.5814 14.4839 18.5814 16.2801C18.5814 18.8869 16.4682 21.0001 13.8614 21.0001Z" stroke="#666C92" stroke-width="1.5"/>
<path d="M12.2235 15.9521C12.5214 15.6685 13.0043 15.6685 13.3022 15.9521L13.6118 16.2469L14.698 15.2127C14.9959 14.9291 15.4789 14.9291 15.7767 15.2127C16.0746 15.4963 16.0746 15.9561 15.7767 16.2397L14.1511 17.7873C13.8533 18.0709 13.3703 18.0709 13.0725 17.7873L12.2235 16.9791C11.9257 16.6955 11.9257 16.2357 12.2235 15.9521Z" stroke="#666C92"/>
<path d="M5.06132 3.3999C4.46484 3.3999 3.98132 3.88343 3.98132 4.4799C3.98132 5.07638 4.46484 5.5599 5.06132 5.5599H10.5813C11.1778 5.5599 11.6613 5.07638 11.6613 4.4799C11.6613 3.88343 11.1778 3.3999 10.5813 3.3999H5.06132Z" stroke="#666C92"/>
<path d="M3.98132 9.0799C3.98132 8.48342 4.46484 7.9999 5.06132 7.9999H6.58132C7.1778 7.9999 7.66132 8.48342 7.66132 9.0799C7.66132 9.67638 7.1778 10.1599 6.58132 10.1599H5.06132C4.46484 10.1599 3.98132 9.67638 3.98132 9.0799Z" stroke="#666C92"/>
</svg>
