<svg width="20" height="20" viewBox="0 0 20 20" fill="none" xmlns="http://www.w3.org/2000/svg">
<g id="Outline / Messages, Conversation / Dialog">
<g id="Vector">
<path fill-rule="evenodd" clip-rule="evenodd" d="M7.49091 4.42317C8.47421 2.42123 10.5337 1.04169 12.9167 1.04169C16.2535 1.04169 18.9584 3.74663 18.9584 7.08335C18.9584 7.97676 18.7641 8.82648 18.4148 9.59114C18.3237 9.79069 18.3059 9.97919 18.3464 10.1307L18.4526 10.5274C18.7924 11.7972 17.6306 12.959 16.3607 12.6192L15.964 12.513C15.8513 12.4829 15.7181 12.485 15.575 12.5256C15.15 16.1479 12.0699 18.9584 8.33342 18.9584C7.20844 18.9584 6.14132 18.7032 5.18833 18.2469C4.99967 18.1566 4.81392 18.1383 4.66111 18.1792L3.63942 18.4525C2.36956 18.7923 1.20781 17.6305 1.54758 16.3607L1.82095 15.339C1.86183 15.1862 1.84351 15.0004 1.75319 14.8118C1.29694 13.8588 1.04175 12.7917 1.04175 11.6667C1.04175 7.92456 3.86069 4.84083 7.49091 4.42317ZM8.9459 4.40038C12.5499 4.70012 15.4096 7.62095 15.6135 11.2514C15.8322 11.2305 16.0596 11.2446 16.2871 11.3055L16.6838 11.4117C17.0245 11.5028 17.3362 11.1911 17.2451 10.8504L17.1389 10.4537C17.008 9.9643 17.0933 9.4757 17.2778 9.07178C17.5541 8.46687 17.7084 7.79398 17.7084 7.08335C17.7084 4.43699 15.5631 2.29169 12.9167 2.29169C11.2652 2.29169 9.80775 3.12738 8.9459 4.40038ZM8.33342 5.62502C4.99669 5.62502 2.29175 8.32997 2.29175 11.6667C2.29175 12.6009 2.50335 13.4839 2.88064 14.272C3.07681 14.6818 3.15907 15.174 3.02847 15.6621L2.7551 16.6838C2.66394 17.0245 2.97563 17.3362 3.31633 17.245L4.33802 16.9716C4.82613 16.841 5.31834 16.9233 5.72809 17.1195C6.51618 17.4968 7.39921 17.7084 8.33342 17.7084C11.6701 17.7084 14.3751 15.0034 14.3751 11.6667C14.3751 8.32997 11.6701 5.62502 8.33342 5.62502Z" fill="#152C2A"/>
<path d="M6.25008 11.6667C6.25008 12.1269 5.87699 12.5 5.41675 12.5C4.95651 12.5 4.58341 12.1269 4.58341 11.6667C4.58341 11.2065 4.95651 10.8334 5.41675 10.8334C5.87699 10.8334 6.25008 11.2065 6.25008 11.6667Z" fill="#152C2A"/>
<path d="M9.16675 11.6667C9.16675 12.1269 8.79365 12.5 8.33342 12.5C7.87318 12.5 7.50008 12.1269 7.50008 11.6667C7.50008 11.2065 7.87318 10.8334 8.33342 10.8334C8.79365 10.8334 9.16675 11.2065 9.16675 11.6667Z" fill="#152C2A"/>
<path d="M12.0834 11.6667C12.0834 12.1269 11.7103 12.5 11.2501 12.5C10.7898 12.5 10.4167 12.1269 10.4167 11.6667C10.4167 11.2065 10.7898 10.8334 11.2501 10.8334C11.7103 10.8334 12.0834 11.2065 12.0834 11.6667Z" fill="#152C2A"/>
</g>
</g>
</svg>
