<svg width="20" height="20" viewBox="0 0 20 20" fill="none" xmlns="http://www.w3.org/2000/svg">
<g id="Outline / Astronomy / Earth">
<path id="Vector (Stroke)" fill-rule="evenodd" clip-rule="evenodd" d="M4.64842 4.4522C3.19545 5.85412 2.29175 7.82153 2.29175 10C2.29175 14.2572 5.74289 17.7084 10.0001 17.7084C10.1063 17.7084 10.2121 17.7062 10.3173 17.7019C10.1461 16.9423 10.1229 15.921 10.6451 14.9369C11.1885 13.9129 12.3136 13.4685 13.1408 13.2652C13.5742 13.1587 13.9758 13.1061 14.2677 13.0799C14.4144 13.0668 14.5353 13.0601 14.621 13.0567C14.664 13.055 14.6982 13.0541 14.7226 13.0537L14.7517 13.0533L14.7588 13.0532C16.1525 13.0387 16.7804 12.5854 17.1137 12.1531C17.3984 11.7837 17.5058 11.4143 17.6148 11.0396C17.6287 10.9919 17.6426 10.9442 17.6569 10.8963C17.6909 10.6023 17.7084 10.3032 17.7084 10C17.7084 7.89662 16.8659 5.98999 15.5 4.59917C15.4927 4.62755 15.4853 4.65552 15.4778 4.68302C15.3421 5.17716 15.123 5.6843 14.8849 6.04564C14.6717 6.3693 14.258 6.69579 13.9147 6.94247C13.6887 7.10483 13.4534 7.24277 13.24 7.36575C13.2142 7.38062 13.1888 7.39525 13.1637 7.40969C12.9736 7.519 12.8027 7.61733 12.6381 7.72605C12.2782 7.96381 11.9998 8.21971 11.8124 8.6061C11.7468 8.7414 11.7448 8.87342 11.7836 9.01476C11.8457 9.24103 11.8881 9.49556 11.8887 9.75505C11.8901 10.2959 11.6147 10.7348 11.2606 11.0201C10.9108 11.3021 10.4535 11.4633 9.99326 11.4583C7.94719 11.436 6.68918 9.77549 6.52326 7.92876C6.45726 7.19413 6.13518 6.45103 5.7285 5.80156C5.35502 5.2051 4.9342 4.72581 4.64842 4.4522ZM5.62096 3.65553C5.96683 4.00387 6.40078 4.51986 6.78795 5.13818C7.25255 5.88015 7.6782 6.81468 7.76825 7.8169C7.89405 9.21712 8.77915 10.195 10.0069 10.2084C10.1757 10.2102 10.3511 10.1477 10.4762 10.0469C10.5972 9.94941 10.639 9.84655 10.6387 9.75827C10.6384 9.6287 10.6166 9.48542 10.5782 9.34571C10.4772 8.978 10.4628 8.52439 10.6877 8.06061C11.0086 7.39911 11.4841 6.99034 11.9491 6.68312C12.1484 6.55144 12.355 6.43267 12.5416 6.32548C12.5667 6.31103 12.5915 6.2968 12.6158 6.28277C12.8285 6.16017 13.0152 6.04951 13.1853 5.92733C13.5445 5.66923 13.7717 5.46319 13.8411 5.35791C13.9932 5.12714 14.1642 4.74613 14.2723 4.3521C14.3581 4.03991 14.3819 3.80032 14.3738 3.65182C13.1312 2.79403 11.6243 2.29169 10.0001 2.29169C8.37353 2.29169 6.86465 2.79548 5.62096 3.65553ZM18.8994 11.0336C18.9384 10.6945 18.9584 10.3496 18.9584 10C18.9584 5.05247 14.9476 1.04169 10.0001 1.04169C5.05253 1.04169 1.04175 5.05247 1.04175 10C1.04175 14.9476 5.05253 18.9584 10.0001 18.9584C14.5504 18.9584 18.3083 15.5658 18.8824 11.172C18.8977 11.1191 18.9109 11.0751 18.9226 11.0418L18.8994 11.0336ZM16.5873 14.0056C16.091 14.1874 15.4927 14.2956 14.7718 14.3031L14.7653 14.3032V14.3032L14.763 14.3032L14.7459 14.3035C14.7297 14.3038 14.7042 14.3044 14.6704 14.3057C14.6028 14.3084 14.5029 14.3138 14.3794 14.3249C14.131 14.3472 13.7948 14.3917 13.4392 14.4791C12.6881 14.6637 12.0292 14.9952 11.7492 15.5229C11.3697 16.2381 11.4238 17.0163 11.5654 17.5493C13.6896 17.1112 15.4944 15.7991 16.5873 14.0056Z" fill="#152C2A"/>
</g>
</svg>
