<svg width="14" height="14" viewBox="0 0 14 14" fill="none" xmlns="http://www.w3.org/2000/svg">
<g id="Outline / Messages, Conversation / Pen" clip-path="url(#clip0_252_4213)">
<path id="Vector" fill-rule="evenodd" clip-rule="evenodd" d="M8.60787 1.5292C9.67455 0.462517 11.404 0.462517 12.4707 1.5292C13.5374 2.59588 13.5374 4.32531 12.4707 5.39199L6.93758 10.9251C6.62146 11.2412 6.43537 11.4273 6.22835 11.5888C5.98434 11.7791 5.72032 11.9423 5.44097 12.0754C5.20397 12.1884 4.95429 12.2716 4.53014 12.413L2.58699 13.0607L2.11911 13.2166C1.73961 13.3431 1.32122 13.2444 1.03836 12.9615C0.755499 12.6787 0.65673 12.2603 0.783228 11.8808L1.5869 9.46974C1.72827 9.04559 1.81149 8.79591 1.92444 8.5589C2.05757 8.27954 2.22074 8.01553 2.41107 7.77152C2.57254 7.56449 2.75865 7.3784 3.0748 7.06227L8.60787 1.5292ZM2.5668 12.1451L4.22435 11.5926C4.68584 11.4387 4.88191 11.3726 5.06453 11.2855C5.28651 11.1798 5.49631 11.0501 5.69021 10.8989C5.84972 10.7744 5.99658 10.6286 6.34055 10.2847L10.7561 5.86915C10.296 5.70689 9.70337 5.40614 9.14855 4.85132C8.59373 4.29649 8.29297 3.70383 8.13072 3.24379L3.71519 7.65932C3.37122 8.00329 3.22543 8.15015 3.10101 8.30966C2.94978 8.50356 2.82012 8.71336 2.71432 8.93534C2.62729 9.11796 2.56114 9.31403 2.40731 9.77552L1.85479 11.4331L2.5668 12.1451ZM8.84046 2.53405C8.86041 2.63611 8.89413 2.77484 8.9504 2.93703C9.07708 3.30217 9.31638 3.7817 9.76727 4.2326C10.2182 4.68349 10.6977 4.92279 11.0628 5.04947C11.225 5.10574 11.3638 5.13946 11.4658 5.15941L11.852 4.77328C12.5769 4.0483 12.5769 2.87289 11.852 2.14792C11.127 1.42294 9.95156 1.42294 9.22659 2.14792L8.84046 2.53405Z" fill="#152C2A"/>
</g>
<defs>
<clipPath id="clip0_252_4213">
<rect width="14" height="14" fill="white"/>
</clipPath>
</defs>
</svg>
