<svg width="14" height="15" viewBox="0 0 14 15" fill="none" xmlns="http://www.w3.org/2000/svg">
<path d="M14 7.5C14 7.94642 13.9577 8.38491 13.8758 8.80755H8.48189V14.3415C8.00377 14.4445 7.50981 14.5 7 14.5C6.49019 14.5 5.99358 14.4445 5.51547 14.3415V8.80755H0.124151C0.0422642 8.38491 0 7.94642 0 7.5C0 7.05359 0.0422642 6.61509 0.124151 6.19245H5.51547V0.658491C5.99358 0.555472 6.49019 0.5 7 0.5C7.50981 0.5 8.00377 0.555472 8.48189 0.658491V6.19245H13.8758C13.9577 6.61509 14 7.05359 14 7.5Z" fill="#F30040"/>
<path d="M5.08493 0.788086V4.92997L1.84644 2.76129C2.69436 1.84205 3.78266 1.14997 5.0136 0.788086H5.08493Z" fill="#14439E"/>
<path d="M1.69586 5.66403H0.245667C0.316987 5.38932 0.406799 5.12517 0.512459 4.87158L1.69586 5.66403Z" fill="#14439E"/>
<path d="M4.65963 5.66422H2.89246L0.795105 4.26422C0.935105 3.9895 1.0936 3.72799 1.27322 3.47705L4.65963 5.66422Z" fill="#F30040"/>
<path d="M5.08493 10.0674V14.2119H5.0136C3.78266 13.8474 2.69172 13.1553 1.84644 12.2361L5.08493 10.0674Z" fill="#14439E"/>
<path d="M1.69586 9.33594L0.512459 10.1284C0.406799 9.87481 0.316987 9.61065 0.245667 9.33594H1.69586Z" fill="#14439E"/>
<path d="M4.65963 9.33594L1.27322 11.5231C1.0936 11.2722 0.935105 11.008 0.795105 10.7333L2.89246 9.33594H4.65963Z" fill="#F30040"/>
<path d="M12.1536 2.76129L8.9151 4.92997V0.788086H8.98642C10.2174 1.14997 11.3057 1.84205 12.1536 2.76129Z" fill="#14439E"/>
<path d="M13.7543 5.66403H12.3068L13.4902 4.87158C13.5932 5.12517 13.683 5.38932 13.7543 5.66403Z" fill="#14439E"/>
<path d="M13.2049 4.26422L11.1075 5.66422H9.34302L12.7268 3.47705C12.9064 3.72799 13.0649 3.9895 13.2049 4.26422Z" fill="#F30040"/>
<path d="M12.1536 12.2361C11.3083 13.1553 10.2174 13.8474 8.98642 14.2119H8.9151V10.0674L12.1536 12.2361Z" fill="#14439E"/>
<path d="M13.7543 9.33594C13.683 9.60801 13.5932 9.87216 13.4902 10.1257L12.3068 9.33594H13.7543Z" fill="#14439E"/>
<path d="M13.2049 10.7333C13.0649 11.008 12.9064 11.2722 12.7268 11.5231L9.34302 9.33594H11.1075L13.2049 10.7333Z" fill="#F30040"/>
<path d="M13.8758 6.19265H8.48187V0.658691C8.65357 0.695673 8.82263 0.735295 8.9864 0.788125H8.91508V4.93001L12.1536 2.76133C12.3596 2.98586 12.5524 3.2236 12.7268 3.47718L9.343 5.66435H11.1075L13.2049 4.26435C13.3132 4.46247 13.4056 4.66322 13.4902 4.8719L12.3068 5.66435H13.7543C13.8019 5.83605 13.8441 6.01303 13.8758 6.19265Z" fill="white"/>
<path d="M5.51547 0.658691V6.19265H0.124146C0.155844 6.01303 0.198108 5.83605 0.245655 5.66435H1.69584L0.512447 4.8719C0.594334 4.66322 0.686787 4.46247 0.795089 4.26435L2.89245 5.66435H4.65962L1.2732 3.47718C1.44754 3.2236 1.64037 2.98586 1.84641 2.76133L5.0849 4.93001V0.788125H5.01358C5.17735 0.735295 5.34377 0.695673 5.51547 0.658691Z" fill="white"/>
<path d="M5.51547 8.80762V14.3416C5.34377 14.3046 5.17735 14.265 5.01358 14.2121H5.0849V10.0676L1.84641 12.2363C1.64037 12.0118 1.44754 11.774 1.2732 11.5231L4.65962 9.33592H2.89245L0.795089 10.7333C0.686787 10.5378 0.594334 10.3371 0.512447 10.1284L1.69584 9.33592H0.245655C0.198108 9.16422 0.155844 8.98724 0.124146 8.80762H5.51547Z" fill="white"/>
<path d="M13.7543 9.33592H12.3068L13.4902 10.1257C13.4056 10.3371 13.3132 10.5352 13.2049 10.7333L11.1075 9.33592H9.343L12.7268 11.5231C12.5524 11.774 12.3596 12.0118 12.1536 12.2363L8.91508 10.0676V14.2121H8.9864C8.82263 14.265 8.65357 14.3046 8.48187 14.3416V8.80762H13.8758C13.8441 8.98724 13.8019 9.16422 13.7543 9.33592Z" fill="white"/>
</svg>
