<svg width="15" height="14" viewBox="0 0 15 14" fill="none" xmlns="http://www.w3.org/2000/svg">
<g id="fi_14539032" clip-path="url(#clip0_884_669)">
<g id="b">
<g id="c">
<g id="Group">
<path id="Vector" d="M14.3335 7C14.3335 7.44642 14.2912 7.88491 14.2093 8.30755H8.81538V13.8415C8.33727 13.9445 7.84331 14 7.3335 14C6.82368 14 6.32708 13.9445 5.84897 13.8415V8.30755H0.457647C0.37576 7.88491 0.333496 7.44642 0.333496 7C0.333496 6.55359 0.37576 6.11509 0.457647 5.69245H5.84897V0.158491C6.32708 0.0554717 6.82368 0 7.3335 0C7.84331 0 8.33727 0.0554717 8.81538 0.158491V5.69245H14.2093C14.2912 6.11509 14.3335 6.55359 14.3335 7Z" fill="#F30040"/>
<path id="Vector_2" d="M5.41842 0.287842V4.42973L2.17993 2.26105C3.02786 1.3418 4.11616 0.649729 5.3471 0.287842H5.41842Z" fill="#14439E"/>
<path id="Vector_3" d="M2.02929 5.16403H0.579102C0.650422 4.88932 0.740234 4.62517 0.845894 4.37158L2.02929 5.16403Z" fill="#14439E"/>
<path id="Vector_4" d="M4.99319 5.16422H3.22602L1.12866 3.76422C1.26866 3.4895 1.42715 3.22799 1.60678 2.97705L4.99319 5.16422Z" fill="#F30040"/>
<path id="Vector_5" d="M5.41842 9.56763V13.7122H5.3471C4.11616 13.3476 3.02521 12.6556 2.17993 11.7363L5.41842 9.56763Z" fill="#14439E"/>
<path id="Vector_6" d="M2.02929 8.83594L0.845894 9.62839C0.740234 9.37481 0.650422 9.11065 0.579102 8.83594H2.02929Z" fill="#14439E"/>
<path id="Vector_7" d="M4.99319 8.83594L1.60678 11.0231C1.42715 10.7722 1.26866 10.508 1.12866 10.2333L3.22602 8.83594H4.99319Z" fill="#F30040"/>
<path id="Vector_8" d="M12.487 2.26105L9.24854 4.42973V0.287842H9.31986C10.5508 0.649729 11.6391 1.3418 12.487 2.26105Z" fill="#14439E"/>
<path id="Vector_9" d="M14.0879 5.16403H12.6404L13.8238 4.37158C13.9268 4.62517 14.0166 4.88932 14.0879 5.16403Z" fill="#14439E"/>
<path id="Vector_10" d="M13.5384 3.76422L11.441 5.16422H9.67651L13.0603 2.97705C13.2399 3.22799 13.3984 3.4895 13.5384 3.76422Z" fill="#F30040"/>
<path id="Vector_11" d="M12.487 11.7363C11.6417 12.6556 10.5508 13.3476 9.31986 13.7122H9.24854V9.56763L12.487 11.7363Z" fill="#14439E"/>
<path id="Vector_12" d="M14.0879 8.83594C14.0166 9.10801 13.9268 9.37216 13.8238 9.62575L12.6404 8.83594H14.0879Z" fill="#14439E"/>
<path id="Vector_13" d="M13.5384 10.2333C13.3984 10.508 13.2399 10.7722 13.0603 11.0231L9.67651 8.83594H11.441L13.5384 10.2333Z" fill="#F30040"/>
<path id="Vector_14" d="M14.2094 5.69241H8.81543V0.158447C8.98713 0.195428 9.15618 0.235051 9.31996 0.287881H9.24864V4.42977L12.4871 2.26109C12.6932 2.48562 12.886 2.72335 13.0603 2.97694L9.67656 5.16411H11.4411L13.5384 3.76411C13.6468 3.96222 13.7392 4.16298 13.8237 4.37165L12.6403 5.16411H14.0879C14.1354 5.33581 14.1777 5.51279 14.2094 5.69241Z" fill="white"/>
<path id="Vector_15" d="M5.84908 0.158447V5.69241H0.457764C0.489462 5.51279 0.531726 5.33581 0.579273 5.16411H2.02946L0.846066 4.37165C0.927952 4.16298 1.02041 3.96222 1.12871 3.76411L3.22607 5.16411H4.99324L1.60682 2.97694C1.78116 2.72335 1.97399 2.48562 2.18003 2.26109L5.41852 4.42977V0.287881H5.3472C5.51097 0.235051 5.67739 0.195428 5.84908 0.158447Z" fill="white"/>
<path id="Vector_16" d="M5.84908 8.30762V13.8416C5.67739 13.8046 5.51097 13.765 5.3472 13.7121H5.41852V9.56762L2.18003 11.7363C1.97399 11.5118 1.78116 11.274 1.60682 11.0231L4.99324 8.83592H3.22607L1.12871 10.2333C1.02041 10.0378 0.927952 9.83705 0.846066 9.62837L2.02946 8.83592H0.579273C0.531726 8.66422 0.489462 8.48724 0.457764 8.30762H5.84908Z" fill="white"/>
<path id="Vector_17" d="M14.0879 8.83592H12.6403L13.8237 9.62573C13.7392 9.83705 13.6468 10.0352 13.5384 10.2333L11.4411 8.83592H9.67656L13.0603 11.0231C12.886 11.274 12.6932 11.5118 12.4871 11.7363L9.24864 9.56762V13.7121H9.31996C9.15618 13.765 8.98713 13.8046 8.81543 13.8416V8.30762H14.2094C14.1777 8.48724 14.1354 8.66422 14.0879 8.83592Z" fill="white"/>
</g>
</g>
</g>
</g>
<defs>
<clipPath id="clip0_884_669">
<rect width="14" height="14" fill="white" transform="translate(0.333496)"/>
</clipPath>
</defs>
</svg>
