<svg width="115" height="7" viewBox="0 0 115 7" fill="none" xmlns="http://www.w3.org/2000/svg">
<g id="**** **** ****">
<path d="M1.83333 6.64809L0.953333 5.98809C0.86 5.92142 0.806667 5.82809 0.793333 5.70809C0.78 5.57475 0.8 5.46809 0.853333 5.38809C0.853333 5.37475 0.893333 5.32809 0.973333 5.24809L2.41333 3.92809L0.453333 3.70809C0.4 3.69475 0.36 3.68809 0.333333 3.68809C0.32 3.67475 0.306667 3.66809 0.293333 3.66809C0.2 3.64142 0.12 3.57475 0.0533333 3.46809C0 3.34809 -0.0133333 3.22809 0.0133333 3.10809L0.373333 2.06809C0.4 1.96142 0.473333 1.88142 0.593333 1.82809C0.713333 1.77475 0.82 1.76142 0.913333 1.78809C0.926667 1.78809 0.98 1.80809 1.07333 1.84809L2.79333 2.82809L2.39333 0.888085C2.38 0.834752 2.37333 0.801419 2.37333 0.788085C2.37333 0.761419 2.37333 0.741419 2.37333 0.728086C2.37333 0.621419 2.41333 0.521419 2.49333 0.428085C2.58667 0.334752 2.69333 0.288086 2.81333 0.288086H3.91333C4.03333 0.288086 4.13333 0.334752 4.21333 0.428085C4.30667 0.521419 4.35333 0.621419 4.35333 0.728086C4.35333 0.741419 4.35333 0.761419 4.35333 0.788085C4.35333 0.801419 4.34667 0.834752 4.33333 0.888085L3.93333 2.82809L5.67333 1.84809C5.76667 1.80809 5.82 1.78809 5.83333 1.78809C5.94 1.76142 6.04667 1.77475 6.15333 1.82809C6.27333 1.88142 6.34667 1.96142 6.37333 2.06809L6.73333 3.10809C6.76 3.22809 6.74 3.34809 6.67333 3.46809C6.62 3.57475 6.54 3.64142 6.43333 3.66809C6.42 3.66809 6.4 3.67475 6.37333 3.68809C6.36 3.68809 6.33333 3.69475 6.29333 3.70809L4.31333 3.92809L5.77333 5.24809C5.85333 5.32809 5.89333 5.37475 5.89333 5.38809C5.96 5.46809 5.98667 5.57475 5.97333 5.70809C5.96 5.82809 5.9 5.92142 5.79333 5.98809L4.91333 6.64809C4.80667 6.70142 4.69333 6.72142 4.57333 6.70809C4.45333 6.69475 4.36 6.64142 4.29333 6.54809C4.29333 6.53475 4.28667 6.52142 4.27333 6.50809C4.26 6.49475 4.24 6.46142 4.21333 6.40809L3.37333 4.58809L2.53333 6.40809C2.52 6.46142 2.5 6.49475 2.47333 6.50809C2.46 6.52142 2.45333 6.53475 2.45333 6.54809C2.4 6.64142 2.30667 6.69475 2.17333 6.70809C2.05333 6.72142 1.94 6.70142 1.83333 6.64809Z" fill="#152C2A"/>
<path d="M10.7591 6.64809L9.87911 5.98809C9.78578 5.92142 9.73245 5.82809 9.71911 5.70809C9.70578 5.57475 9.72578 5.46809 9.77911 5.38809C9.77911 5.37475 9.81911 5.32809 9.89911 5.24809L11.3391 3.92809L9.37912 3.70809C9.32578 3.69475 9.28578 3.68809 9.25911 3.68809C9.24578 3.67475 9.23245 3.66809 9.21911 3.66809C9.12578 3.64142 9.04578 3.57475 8.97911 3.46809C8.92578 3.34809 8.91245 3.22809 8.93911 3.10809L9.29911 2.06809C9.32578 1.96142 9.39911 1.88142 9.51911 1.82809C9.63911 1.77475 9.74578 1.76142 9.83911 1.78809C9.85245 1.78809 9.90578 1.80809 9.99911 1.84809L11.7191 2.82809L11.3191 0.888085C11.3058 0.834752 11.2991 0.801419 11.2991 0.788085C11.2991 0.761419 11.2991 0.741419 11.2991 0.728086C11.2991 0.621419 11.3391 0.521419 11.4191 0.428085C11.5124 0.334752 11.6191 0.288086 11.7391 0.288086H12.8391C12.9591 0.288086 13.0591 0.334752 13.1391 0.428085C13.2324 0.521419 13.2791 0.621419 13.2791 0.728086C13.2791 0.741419 13.2791 0.761419 13.2791 0.788085C13.2791 0.801419 13.2724 0.834752 13.2591 0.888085L12.8591 2.82809L14.5991 1.84809C14.6924 1.80809 14.7458 1.78809 14.7591 1.78809C14.8658 1.76142 14.9724 1.77475 15.0791 1.82809C15.1991 1.88142 15.2724 1.96142 15.2991 2.06809L15.6591 3.10809C15.6858 3.22809 15.6658 3.34809 15.5991 3.46809C15.5458 3.57475 15.4658 3.64142 15.3591 3.66809C15.3458 3.66809 15.3258 3.67475 15.2991 3.68809C15.2858 3.68809 15.2591 3.69475 15.2191 3.70809L13.2391 3.92809L14.6991 5.24809C14.7791 5.32809 14.8191 5.37475 14.8191 5.38809C14.8858 5.46809 14.9124 5.57475 14.8991 5.70809C14.8858 5.82809 14.8258 5.92142 14.7191 5.98809L13.8391 6.64809C13.7324 6.70142 13.6191 6.72142 13.4991 6.70809C13.3791 6.69475 13.2858 6.64142 13.2191 6.54809C13.2191 6.53475 13.2124 6.52142 13.1991 6.50809C13.1858 6.49475 13.1658 6.46142 13.1391 6.40809L12.2991 4.58809L11.4591 6.40809C11.4458 6.46142 11.4258 6.49475 11.3991 6.50809C11.3858 6.52142 11.3791 6.53475 11.3791 6.54809C11.3258 6.64142 11.2324 6.69475 11.0991 6.70809C10.9791 6.72142 10.8658 6.70142 10.7591 6.64809Z" fill="#152C2A"/>
<path d="M19.6849 6.64809L18.8049 5.98809C18.7116 5.92142 18.6582 5.82809 18.6449 5.70809C18.6316 5.57475 18.6516 5.46809 18.7049 5.38809C18.7049 5.37475 18.7449 5.32809 18.8249 5.24809L20.2649 3.92809L18.3049 3.70809C18.2516 3.69475 18.2116 3.68809 18.1849 3.68809C18.1716 3.67475 18.1582 3.66809 18.1449 3.66809C18.0516 3.64142 17.9716 3.57475 17.9049 3.46809C17.8516 3.34809 17.8382 3.22809 17.8649 3.10809L18.2249 2.06809C18.2516 1.96142 18.3249 1.88142 18.4449 1.82809C18.5649 1.77475 18.6716 1.76142 18.7649 1.78809C18.7782 1.78809 18.8316 1.80809 18.9249 1.84809L20.6449 2.82809L20.2449 0.888085C20.2316 0.834752 20.2249 0.801419 20.2249 0.788085C20.2249 0.761419 20.2249 0.741419 20.2249 0.728086C20.2249 0.621419 20.2649 0.521419 20.3449 0.428085C20.4382 0.334752 20.5449 0.288086 20.6649 0.288086H21.7649C21.8849 0.288086 21.9849 0.334752 22.0649 0.428085C22.1582 0.521419 22.2049 0.621419 22.2049 0.728086C22.2049 0.741419 22.2049 0.761419 22.2049 0.788085C22.2049 0.801419 22.1982 0.834752 22.1849 0.888085L21.7849 2.82809L23.5249 1.84809C23.6182 1.80809 23.6716 1.78809 23.6849 1.78809C23.7916 1.76142 23.8982 1.77475 24.0049 1.82809C24.1249 1.88142 24.1982 1.96142 24.2249 2.06809L24.5849 3.10809C24.6116 3.22809 24.5916 3.34809 24.5249 3.46809C24.4716 3.57475 24.3916 3.64142 24.2849 3.66809C24.2716 3.66809 24.2516 3.67475 24.2249 3.68809C24.2116 3.68809 24.1849 3.69475 24.1449 3.70809L22.1649 3.92809L23.6249 5.24809C23.7049 5.32809 23.7449 5.37475 23.7449 5.38809C23.8116 5.46809 23.8382 5.57475 23.8249 5.70809C23.8116 5.82809 23.7516 5.92142 23.6449 5.98809L22.7649 6.64809C22.6582 6.70142 22.5449 6.72142 22.4249 6.70809C22.3049 6.69475 22.2116 6.64142 22.1449 6.54809C22.1449 6.53475 22.1382 6.52142 22.1249 6.50809C22.1116 6.49475 22.0916 6.46142 22.0649 6.40809L21.2249 4.58809L20.3849 6.40809C20.3716 6.46142 20.3516 6.49475 20.3249 6.50809C20.3116 6.52142 20.3049 6.53475 20.3049 6.54809C20.2516 6.64142 20.1582 6.69475 20.0249 6.70809C19.9049 6.72142 19.7916 6.70142 19.6849 6.64809Z" fill="#152C2A"/>
<path d="M28.6107 6.64809L27.7307 5.98809C27.6373 5.92142 27.584 5.82809 27.5707 5.70809C27.5573 5.57475 27.5773 5.46809 27.6307 5.38809C27.6307 5.37475 27.6707 5.32809 27.7507 5.24809L29.1907 3.92809L27.2307 3.70809C27.1773 3.69475 27.1373 3.68809 27.1107 3.68809C27.0973 3.67475 27.084 3.66809 27.0707 3.66809C26.9773 3.64142 26.8973 3.57475 26.8307 3.46809C26.7773 3.34809 26.764 3.22809 26.7907 3.10809L27.1507 2.06809C27.1773 1.96142 27.2507 1.88142 27.3707 1.82809C27.4907 1.77475 27.5973 1.76142 27.6907 1.78809C27.704 1.78809 27.7573 1.80809 27.8507 1.84809L29.5707 2.82809L29.1707 0.888085C29.1573 0.834752 29.1507 0.801419 29.1507 0.788085C29.1507 0.761419 29.1507 0.741419 29.1507 0.728086C29.1507 0.621419 29.1907 0.521419 29.2707 0.428085C29.364 0.334752 29.4707 0.288086 29.5907 0.288086H30.6907C30.8107 0.288086 30.9107 0.334752 30.9907 0.428085C31.084 0.521419 31.1307 0.621419 31.1307 0.728086C31.1307 0.741419 31.1307 0.761419 31.1307 0.788085C31.1307 0.801419 31.124 0.834752 31.1107 0.888085L30.7107 2.82809L32.4507 1.84809C32.544 1.80809 32.5973 1.78809 32.6107 1.78809C32.7173 1.76142 32.824 1.77475 32.9307 1.82809C33.0507 1.88142 33.124 1.96142 33.1507 2.06809L33.5107 3.10809C33.5373 3.22809 33.5173 3.34809 33.4507 3.46809C33.3973 3.57475 33.3173 3.64142 33.2107 3.66809C33.1973 3.66809 33.1773 3.67475 33.1507 3.68809C33.1373 3.68809 33.1107 3.69475 33.0707 3.70809L31.0907 3.92809L32.5507 5.24809C32.6307 5.32809 32.6707 5.37475 32.6707 5.38809C32.7373 5.46809 32.764 5.57475 32.7507 5.70809C32.7373 5.82809 32.6773 5.92142 32.5707 5.98809L31.6907 6.64809C31.584 6.70142 31.4707 6.72142 31.3507 6.70809C31.2307 6.69475 31.1373 6.64142 31.0707 6.54809C31.0707 6.53475 31.064 6.52142 31.0507 6.50809C31.0373 6.49475 31.0173 6.46142 30.9907 6.40809L30.1507 4.58809L29.3107 6.40809C29.2973 6.46142 29.2773 6.49475 29.2507 6.50809C29.2373 6.52142 29.2307 6.53475 29.2307 6.54809C29.1773 6.64142 29.084 6.69475 28.9507 6.70809C28.8307 6.72142 28.7173 6.70142 28.6107 6.64809Z" fill="#152C2A"/>
<path d="M42.4388 6.64809L41.5588 5.98809C41.4655 5.92142 41.4121 5.82809 41.3988 5.70809C41.3855 5.57475 41.4055 5.46809 41.4588 5.38809C41.4588 5.37475 41.4988 5.32809 41.5788 5.24809L43.0188 3.92809L41.0588 3.70809C41.0055 3.69475 40.9655 3.68809 40.9388 3.68809C40.9255 3.67475 40.9121 3.66809 40.8988 3.66809C40.8055 3.64142 40.7255 3.57475 40.6588 3.46809C40.6055 3.34809 40.5921 3.22809 40.6188 3.10809L40.9788 2.06809C41.0055 1.96142 41.0788 1.88142 41.1988 1.82809C41.3188 1.77475 41.4255 1.76142 41.5188 1.78809C41.5321 1.78809 41.5855 1.80809 41.6788 1.84809L43.3988 2.82809L42.9988 0.888085C42.9855 0.834752 42.9788 0.801419 42.9788 0.788085C42.9788 0.761419 42.9788 0.741419 42.9788 0.728086C42.9788 0.621419 43.0188 0.521419 43.0988 0.428085C43.1921 0.334752 43.2988 0.288086 43.4188 0.288086H44.5188C44.6388 0.288086 44.7388 0.334752 44.8188 0.428085C44.9121 0.521419 44.9588 0.621419 44.9588 0.728086C44.9588 0.741419 44.9588 0.761419 44.9588 0.788085C44.9588 0.801419 44.9521 0.834752 44.9388 0.888085L44.5388 2.82809L46.2788 1.84809C46.3721 1.80809 46.4255 1.78809 46.4388 1.78809C46.5455 1.76142 46.6521 1.77475 46.7588 1.82809C46.8788 1.88142 46.9521 1.96142 46.9788 2.06809L47.3388 3.10809C47.3655 3.22809 47.3455 3.34809 47.2788 3.46809C47.2255 3.57475 47.1455 3.64142 47.0388 3.66809C47.0255 3.66809 47.0055 3.67475 46.9788 3.68809C46.9655 3.68809 46.9388 3.69475 46.8988 3.70809L44.9188 3.92809L46.3788 5.24809C46.4588 5.32809 46.4988 5.37475 46.4988 5.38809C46.5655 5.46809 46.5921 5.57475 46.5788 5.70809C46.5655 5.82809 46.5055 5.92142 46.3988 5.98809L45.5188 6.64809C45.4121 6.70142 45.2988 6.72142 45.1788 6.70809C45.0588 6.69475 44.9655 6.64142 44.8988 6.54809C44.8988 6.53475 44.8921 6.52142 44.8788 6.50809C44.8655 6.49475 44.8455 6.46142 44.8188 6.40809L43.9788 4.58809L43.1388 6.40809C43.1255 6.46142 43.1055 6.49475 43.0788 6.50809C43.0655 6.52142 43.0588 6.53475 43.0588 6.54809C43.0055 6.64142 42.9121 6.69475 42.7788 6.70809C42.6588 6.72142 42.5455 6.70142 42.4388 6.64809Z" fill="#152C2A"/>
<path d="M51.3646 6.64809L50.4846 5.98809C50.3913 5.92142 50.3379 5.82809 50.3246 5.70809C50.3113 5.57475 50.3312 5.46809 50.3846 5.38809C50.3846 5.37475 50.4246 5.32809 50.5046 5.24809L51.9446 3.92809L49.9846 3.70809C49.9313 3.69475 49.8913 3.68809 49.8646 3.68809C49.8512 3.67475 49.8379 3.66809 49.8246 3.66809C49.7313 3.64142 49.6512 3.57475 49.5846 3.46809C49.5312 3.34809 49.5179 3.22809 49.5446 3.10809L49.9046 2.06809C49.9312 1.96142 50.0046 1.88142 50.1246 1.82809C50.2446 1.77475 50.3512 1.76142 50.4446 1.78809C50.4579 1.78809 50.5112 1.80809 50.6046 1.84809L52.3246 2.82809L51.9246 0.888085C51.9113 0.834752 51.9046 0.801419 51.9046 0.788085C51.9046 0.761419 51.9046 0.741419 51.9046 0.728086C51.9046 0.621419 51.9446 0.521419 52.0246 0.428085C52.1179 0.334752 52.2246 0.288086 52.3446 0.288086H53.4446C53.5646 0.288086 53.6646 0.334752 53.7446 0.428085C53.8379 0.521419 53.8846 0.621419 53.8846 0.728086C53.8846 0.741419 53.8846 0.761419 53.8846 0.788085C53.8846 0.801419 53.8779 0.834752 53.8646 0.888085L53.4646 2.82809L55.2046 1.84809C55.2979 1.80809 55.3512 1.78809 55.3646 1.78809C55.4712 1.76142 55.5779 1.77475 55.6846 1.82809C55.8046 1.88142 55.8779 1.96142 55.9046 2.06809L56.2646 3.10809C56.2912 3.22809 56.2712 3.34809 56.2046 3.46809C56.1512 3.57475 56.0713 3.64142 55.9646 3.66809C55.9513 3.66809 55.9313 3.67475 55.9046 3.68809C55.8913 3.68809 55.8646 3.69475 55.8246 3.70809L53.8446 3.92809L55.3046 5.24809C55.3846 5.32809 55.4246 5.37475 55.4246 5.38809C55.4912 5.46809 55.5179 5.57475 55.5046 5.70809C55.4913 5.82809 55.4313 5.92142 55.3246 5.98809L54.4446 6.64809C54.3379 6.70142 54.2246 6.72142 54.1046 6.70809C53.9846 6.69475 53.8913 6.64142 53.8246 6.54809C53.8246 6.53475 53.8179 6.52142 53.8046 6.50809C53.7913 6.49475 53.7713 6.46142 53.7446 6.40809L52.9046 4.58809L52.0646 6.40809C52.0513 6.46142 52.0312 6.49475 52.0046 6.50809C51.9912 6.52142 51.9846 6.53475 51.9846 6.54809C51.9313 6.64142 51.8379 6.69475 51.7046 6.70809C51.5846 6.72142 51.4712 6.70142 51.3646 6.64809Z" fill="#152C2A"/>
<path d="M60.2904 6.64809L59.4104 5.98809C59.317 5.92142 59.2637 5.82809 59.2504 5.70809C59.237 5.57475 59.257 5.46809 59.3104 5.38809C59.3104 5.37475 59.3504 5.32809 59.4304 5.24809L60.8704 3.92809L58.9104 3.70809C58.857 3.69475 58.817 3.68809 58.7904 3.68809C58.777 3.67475 58.7637 3.66809 58.7504 3.66809C58.657 3.64142 58.577 3.57475 58.5104 3.46809C58.457 3.34809 58.4437 3.22809 58.4704 3.10809L58.8304 2.06809C58.857 1.96142 58.9304 1.88142 59.0504 1.82809C59.1704 1.77475 59.277 1.76142 59.3704 1.78809C59.3837 1.78809 59.437 1.80809 59.5304 1.84809L61.2504 2.82809L60.8504 0.888085C60.837 0.834752 60.8304 0.801419 60.8304 0.788085C60.8304 0.761419 60.8304 0.741419 60.8304 0.728086C60.8304 0.621419 60.8704 0.521419 60.9504 0.428085C61.0437 0.334752 61.1504 0.288086 61.2704 0.288086H62.3704C62.4904 0.288086 62.5904 0.334752 62.6704 0.428085C62.7637 0.521419 62.8104 0.621419 62.8104 0.728086C62.8104 0.741419 62.8104 0.761419 62.8104 0.788085C62.8104 0.801419 62.8037 0.834752 62.7904 0.888085L62.3904 2.82809L64.1304 1.84809C64.2237 1.80809 64.277 1.78809 64.2904 1.78809C64.397 1.76142 64.5037 1.77475 64.6104 1.82809C64.7304 1.88142 64.8037 1.96142 64.8304 2.06809L65.1904 3.10809C65.217 3.22809 65.197 3.34809 65.1304 3.46809C65.077 3.57475 64.997 3.64142 64.8904 3.66809C64.877 3.66809 64.857 3.67475 64.8304 3.68809C64.817 3.68809 64.7904 3.69475 64.7504 3.70809L62.7704 3.92809L64.2304 5.24809C64.3104 5.32809 64.3504 5.37475 64.3504 5.38809C64.417 5.46809 64.4437 5.57475 64.4304 5.70809C64.417 5.82809 64.357 5.92142 64.2504 5.98809L63.3704 6.64809C63.2637 6.70142 63.1504 6.72142 63.0304 6.70809C62.9104 6.69475 62.817 6.64142 62.7504 6.54809C62.7504 6.53475 62.7437 6.52142 62.7304 6.50809C62.717 6.49475 62.697 6.46142 62.6704 6.40809L61.8304 4.58809L60.9904 6.40809C60.977 6.46142 60.957 6.49475 60.9304 6.50809C60.917 6.52142 60.9104 6.53475 60.9104 6.54809C60.857 6.64142 60.7637 6.69475 60.6304 6.70809C60.5104 6.72142 60.397 6.70142 60.2904 6.64809Z" fill="#152C2A"/>
<path d="M69.2161 6.64809L68.3361 5.98809C68.2428 5.92142 68.1895 5.82809 68.1761 5.70809C68.1628 5.57475 68.1828 5.46809 68.2361 5.38809C68.2361 5.37475 68.2761 5.32809 68.3561 5.24809L69.7961 3.92809L67.8361 3.70809C67.7828 3.69475 67.7428 3.68809 67.7161 3.68809C67.7028 3.67475 67.6895 3.66809 67.6761 3.66809C67.5828 3.64142 67.5028 3.57475 67.4361 3.46809C67.3828 3.34809 67.3695 3.22809 67.3961 3.10809L67.7561 2.06809C67.7828 1.96142 67.8561 1.88142 67.9761 1.82809C68.0961 1.77475 68.2028 1.76142 68.2961 1.78809C68.3095 1.78809 68.3628 1.80809 68.4561 1.84809L70.1761 2.82809L69.7761 0.888085C69.7628 0.834752 69.7561 0.801419 69.7561 0.788085C69.7561 0.761419 69.7561 0.741419 69.7561 0.728086C69.7561 0.621419 69.7961 0.521419 69.8761 0.428085C69.9695 0.334752 70.0761 0.288086 70.1961 0.288086H71.2961C71.4161 0.288086 71.5161 0.334752 71.5961 0.428085C71.6895 0.521419 71.7361 0.621419 71.7361 0.728086C71.7361 0.741419 71.7361 0.761419 71.7361 0.788085C71.7361 0.801419 71.7295 0.834752 71.7161 0.888085L71.3161 2.82809L73.0561 1.84809C73.1495 1.80809 73.2028 1.78809 73.2161 1.78809C73.3228 1.76142 73.4295 1.77475 73.5361 1.82809C73.6562 1.88142 73.7295 1.96142 73.7561 2.06809L74.1161 3.10809C74.1428 3.22809 74.1228 3.34809 74.0561 3.46809C74.0028 3.57475 73.9228 3.64142 73.8161 3.66809C73.8028 3.66809 73.7828 3.67475 73.7561 3.68809C73.7428 3.68809 73.7161 3.69475 73.6761 3.70809L71.6961 3.92809L73.1561 5.24809C73.2361 5.32809 73.2761 5.37475 73.2761 5.38809C73.3428 5.46809 73.3695 5.57475 73.3561 5.70809C73.3428 5.82809 73.2828 5.92142 73.1761 5.98809L72.2961 6.64809C72.1895 6.70142 72.0761 6.72142 71.9561 6.70809C71.8361 6.69475 71.7428 6.64142 71.6761 6.54809C71.6761 6.53475 71.6695 6.52142 71.6561 6.50809C71.6428 6.49475 71.6228 6.46142 71.5961 6.40809L70.7561 4.58809L69.9161 6.40809C69.9028 6.46142 69.8828 6.49475 69.8561 6.50809C69.8428 6.52142 69.8361 6.53475 69.8361 6.54809C69.7828 6.64142 69.6895 6.69475 69.5561 6.70809C69.4361 6.72142 69.3228 6.70142 69.2161 6.64809Z" fill="#152C2A"/>
<path d="M83.0443 6.64809L82.1643 5.98809C82.0709 5.92142 82.0176 5.82809 82.0043 5.70809C81.9909 5.57475 82.0109 5.46809 82.0643 5.38809C82.0643 5.37475 82.1043 5.32809 82.1843 5.24809L83.6243 3.92809L81.6643 3.70809C81.6109 3.69475 81.5709 3.68809 81.5443 3.68809C81.5309 3.67475 81.5176 3.66809 81.5043 3.66809C81.4109 3.64142 81.3309 3.57475 81.2643 3.46809C81.2109 3.34809 81.1976 3.22809 81.2243 3.10809L81.5843 2.06809C81.6109 1.96142 81.6843 1.88142 81.8043 1.82809C81.9243 1.77475 82.0309 1.76142 82.1243 1.78809C82.1376 1.78809 82.1909 1.80809 82.2843 1.84809L84.0043 2.82809L83.6043 0.888085C83.5909 0.834752 83.5843 0.801419 83.5843 0.788085C83.5843 0.761419 83.5843 0.741419 83.5843 0.728086C83.5843 0.621419 83.6243 0.521419 83.7043 0.428085C83.7976 0.334752 83.9043 0.288086 84.0243 0.288086H85.1243C85.2443 0.288086 85.3443 0.334752 85.4243 0.428085C85.5176 0.521419 85.5643 0.621419 85.5643 0.728086C85.5643 0.741419 85.5643 0.761419 85.5643 0.788085C85.5643 0.801419 85.5576 0.834752 85.5443 0.888085L85.1443 2.82809L86.8843 1.84809C86.9776 1.80809 87.0309 1.78809 87.0443 1.78809C87.1509 1.76142 87.2576 1.77475 87.3643 1.82809C87.4843 1.88142 87.5576 1.96142 87.5843 2.06809L87.9443 3.10809C87.9709 3.22809 87.9509 3.34809 87.8843 3.46809C87.8309 3.57475 87.7509 3.64142 87.6443 3.66809C87.6309 3.66809 87.6109 3.67475 87.5843 3.68809C87.5709 3.68809 87.5443 3.69475 87.5043 3.70809L85.5243 3.92809L86.9843 5.24809C87.0643 5.32809 87.1043 5.37475 87.1043 5.38809C87.1709 5.46809 87.1976 5.57475 87.1843 5.70809C87.1709 5.82809 87.1109 5.92142 87.0043 5.98809L86.1243 6.64809C86.0176 6.70142 85.9043 6.72142 85.7843 6.70809C85.6643 6.69475 85.5709 6.64142 85.5043 6.54809C85.5043 6.53475 85.4976 6.52142 85.4843 6.50809C85.4709 6.49475 85.4509 6.46142 85.4243 6.40809L84.5843 4.58809L83.7443 6.40809C83.7309 6.46142 83.7109 6.49475 83.6843 6.50809C83.6709 6.52142 83.6643 6.53475 83.6643 6.54809C83.6109 6.64142 83.5176 6.69475 83.3843 6.70809C83.2643 6.72142 83.1509 6.70142 83.0443 6.64809Z" fill="#152C2A"/>
<path d="M91.9701 6.64809L91.09 5.98809C90.9967 5.92142 90.9434 5.82809 90.9301 5.70809C90.9167 5.57475 90.9367 5.46809 90.9901 5.38809C90.9901 5.37475 91.0301 5.32809 91.1101 5.24809L92.55 3.92809L90.59 3.70809C90.5367 3.69475 90.4967 3.68809 90.4701 3.68809C90.4567 3.67475 90.4434 3.66809 90.4301 3.66809C90.3367 3.64142 90.2567 3.57475 90.1901 3.46809C90.1367 3.34809 90.1234 3.22809 90.1501 3.10809L90.5101 2.06809C90.5367 1.96142 90.61 1.88142 90.73 1.82809C90.8501 1.77475 90.9567 1.76142 91.05 1.78809C91.0634 1.78809 91.1167 1.80809 91.2101 1.84809L92.9301 2.82809L92.5301 0.888085C92.5167 0.834752 92.5101 0.801419 92.5101 0.788085C92.5101 0.761419 92.5101 0.741419 92.5101 0.728086C92.5101 0.621419 92.55 0.521419 92.6301 0.428085C92.7234 0.334752 92.83 0.288086 92.9501 0.288086H94.05C94.1701 0.288086 94.2701 0.334752 94.3501 0.428085C94.4434 0.521419 94.4901 0.621419 94.4901 0.728086C94.4901 0.741419 94.4901 0.761419 94.4901 0.788085C94.4901 0.801419 94.4834 0.834752 94.4701 0.888085L94.0701 2.82809L95.8101 1.84809C95.9034 1.80809 95.9567 1.78809 95.9701 1.78809C96.0767 1.76142 96.1834 1.77475 96.2901 1.82809C96.4101 1.88142 96.4834 1.96142 96.5101 2.06809L96.8701 3.10809C96.8967 3.22809 96.8767 3.34809 96.8101 3.46809C96.7567 3.57475 96.6767 3.64142 96.5701 3.66809C96.5567 3.66809 96.5367 3.67475 96.5101 3.68809C96.4967 3.68809 96.4701 3.69475 96.4301 3.70809L94.4501 3.92809L95.91 5.24809C95.9901 5.32809 96.0301 5.37475 96.0301 5.38809C96.0967 5.46809 96.1234 5.57475 96.1101 5.70809C96.0967 5.82809 96.0367 5.92142 95.9301 5.98809L95.05 6.64809C94.9434 6.70142 94.8301 6.72142 94.7101 6.70809C94.59 6.69475 94.4967 6.64142 94.4301 6.54809C94.4301 6.53475 94.4234 6.52142 94.41 6.50809C94.3967 6.49475 94.3767 6.46142 94.3501 6.40809L93.5101 4.58809L92.6701 6.40809C92.6567 6.46142 92.6367 6.49475 92.6101 6.50809C92.5967 6.52142 92.59 6.53475 92.59 6.54809C92.5367 6.64142 92.4434 6.69475 92.3101 6.70809C92.19 6.72142 92.0767 6.70142 91.9701 6.64809Z" fill="#152C2A"/>
<path d="M100.896 6.64809L100.016 5.98809C99.9225 5.92142 99.8692 5.82809 99.8558 5.70809C99.8425 5.57475 99.8625 5.46809 99.9158 5.38809C99.9158 5.37475 99.9558 5.32809 100.036 5.24809L101.476 3.92809L99.5158 3.70809C99.4625 3.69475 99.4225 3.68809 99.3958 3.68809C99.3825 3.67475 99.3692 3.66809 99.3558 3.66809C99.2625 3.64142 99.1825 3.57475 99.1158 3.46809C99.0625 3.34809 99.0492 3.22809 99.0758 3.10809L99.4358 2.06809C99.4625 1.96142 99.5358 1.88142 99.6558 1.82809C99.7758 1.77475 99.8825 1.76142 99.9758 1.78809C99.9892 1.78809 100.043 1.80809 100.136 1.84809L101.856 2.82809L101.456 0.888085C101.442 0.834752 101.436 0.801419 101.436 0.788085C101.436 0.761419 101.436 0.741419 101.436 0.728086C101.436 0.621419 101.476 0.521419 101.556 0.428085C101.649 0.334752 101.756 0.288086 101.876 0.288086H102.976C103.096 0.288086 103.196 0.334752 103.276 0.428085C103.369 0.521419 103.416 0.621419 103.416 0.728086C103.416 0.741419 103.416 0.761419 103.416 0.788085C103.416 0.801419 103.409 0.834752 103.396 0.888085L102.996 2.82809L104.736 1.84809C104.829 1.80809 104.882 1.78809 104.896 1.78809C105.003 1.76142 105.109 1.77475 105.216 1.82809C105.336 1.88142 105.409 1.96142 105.436 2.06809L105.796 3.10809C105.823 3.22809 105.802 3.34809 105.736 3.46809C105.682 3.57475 105.603 3.64142 105.496 3.66809C105.482 3.66809 105.463 3.67475 105.436 3.68809C105.423 3.68809 105.396 3.69475 105.356 3.70809L103.376 3.92809L104.836 5.24809C104.916 5.32809 104.956 5.37475 104.956 5.38809C105.022 5.46809 105.049 5.57475 105.036 5.70809C105.022 5.82809 104.963 5.92142 104.856 5.98809L103.976 6.64809C103.869 6.70142 103.756 6.72142 103.636 6.70809C103.516 6.69475 103.423 6.64142 103.356 6.54809C103.356 6.53475 103.349 6.52142 103.336 6.50809C103.322 6.49475 103.302 6.46142 103.276 6.40809L102.436 4.58809L101.596 6.40809C101.582 6.46142 101.562 6.49475 101.536 6.50809C101.522 6.52142 101.516 6.53475 101.516 6.54809C101.463 6.64142 101.369 6.69475 101.236 6.70809C101.116 6.72142 101.003 6.70142 100.896 6.64809Z" fill="#152C2A"/>
<path d="M109.822 6.64809L108.942 5.98809C108.848 5.92142 108.795 5.82809 108.782 5.70809C108.768 5.57475 108.788 5.46809 108.842 5.38809C108.842 5.37475 108.882 5.32809 108.962 5.24809L110.402 3.92809L108.442 3.70809C108.388 3.69475 108.348 3.68809 108.322 3.68809C108.308 3.67475 108.295 3.66809 108.282 3.66809C108.188 3.64142 108.108 3.57475 108.042 3.46809C107.988 3.34809 107.975 3.22809 108.002 3.10809L108.362 2.06809C108.388 1.96142 108.462 1.88142 108.582 1.82809C108.702 1.77475 108.808 1.76142 108.902 1.78809C108.915 1.78809 108.968 1.80809 109.062 1.84809L110.782 2.82809L110.382 0.888085C110.368 0.834752 110.362 0.801419 110.362 0.788085C110.362 0.761419 110.362 0.741419 110.362 0.728086C110.362 0.621419 110.402 0.521419 110.482 0.428085C110.575 0.334752 110.682 0.288086 110.802 0.288086H111.902C112.022 0.288086 112.122 0.334752 112.202 0.428085C112.295 0.521419 112.342 0.621419 112.342 0.728086C112.342 0.741419 112.342 0.761419 112.342 0.788085C112.342 0.801419 112.335 0.834752 112.322 0.888085L111.922 2.82809L113.662 1.84809C113.755 1.80809 113.808 1.78809 113.822 1.78809C113.928 1.76142 114.035 1.77475 114.142 1.82809C114.262 1.88142 114.335 1.96142 114.362 2.06809L114.722 3.10809C114.748 3.22809 114.728 3.34809 114.662 3.46809C114.608 3.57475 114.528 3.64142 114.422 3.66809C114.408 3.66809 114.388 3.67475 114.362 3.68809C114.348 3.68809 114.322 3.69475 114.282 3.70809L112.302 3.92809L113.762 5.24809C113.842 5.32809 113.882 5.37475 113.882 5.38809C113.948 5.46809 113.975 5.57475 113.962 5.70809C113.948 5.82809 113.888 5.92142 113.782 5.98809L112.902 6.64809C112.795 6.70142 112.682 6.72142 112.562 6.70809C112.442 6.69475 112.348 6.64142 112.282 6.54809C112.282 6.53475 112.275 6.52142 112.262 6.50809C112.248 6.49475 112.228 6.46142 112.202 6.40809L111.362 4.58809L110.522 6.40809C110.508 6.46142 110.488 6.49475 110.462 6.50809C110.448 6.52142 110.442 6.53475 110.442 6.54809C110.388 6.64142 110.295 6.69475 110.162 6.70809C110.042 6.72142 109.928 6.70142 109.822 6.64809Z" fill="#152C2A"/>
</g>
</svg>
