<svg width="14" height="14" viewBox="0 0 14 14" fill="none" xmlns="http://www.w3.org/2000/svg">
<g id="Bold / Security / Eye">
<g id="Vector">
<path d="M5.68758 7.00016C5.68758 6.27529 6.27521 5.68766 7.00008 5.68766C7.72495 5.68766 8.31258 6.27529 8.31258 7.00016C8.31258 7.72504 7.72495 8.31266 7.00008 8.31266C6.27521 8.31266 5.68758 7.72504 5.68758 7.00016Z" fill="white"/>
<path fill-rule="evenodd" clip-rule="evenodd" d="M1.16675 7.00016C1.16675 7.95647 1.41464 8.27852 1.91044 8.92264C2.90039 10.2088 4.56065 11.6668 7.00008 11.6668C9.43952 11.6668 11.0998 10.2088 12.0897 8.92264C12.5855 8.27852 12.8334 7.95647 12.8334 7.00016C12.8334 6.04386 12.5855 5.7218 12.0897 5.07769C11.0998 3.79157 9.43951 2.3335 7.00008 2.3335C4.56065 2.3335 2.90039 3.79157 1.91044 5.07769C1.41464 5.7218 1.16675 6.04386 1.16675 7.00016ZM7.00008 4.81266C5.79196 4.81266 4.81258 5.79204 4.81258 7.00016C4.81258 8.20829 5.79196 9.18766 7.00008 9.18766C8.2082 9.18766 9.18758 8.20829 9.18758 7.00016C9.18758 5.79204 8.2082 4.81266 7.00008 4.81266Z" fill="white"/>
</g>
</g>
</svg>
