<svg width="18" height="18" viewBox="0 0 18 18" fill="none" xmlns="http://www.w3.org/2000/svg">
<g id="Bold / Files / File Download">
<g id="Vector">
<path d="M14.5138 5.71249L11.5447 3.04032C10.6988 2.27901 10.2759 1.89836 9.75692 1.69922L9.75 3.75008C9.75 5.51785 9.75 6.40173 10.2992 6.95091C10.8483 7.50008 11.7322 7.50008 13.5 7.50008H16.1851C15.9131 6.97191 15.4263 6.53373 14.5138 5.71249Z" fill="white"/>
<path fill-rule="evenodd" clip-rule="evenodd" d="M7.5 16.5H10.5C13.3284 16.5 14.7426 16.5 15.6213 15.6213C16.5 14.7426 16.5 13.3284 16.5 10.5V10.1722C16.5 9.51757 16.5 9.02578 16.4681 8.62508H13.5L13.4289 8.62508C12.606 8.62515 11.8789 8.62521 11.2927 8.5464C10.6574 8.46098 10.0221 8.26485 9.50368 7.7464C8.98523 7.22795 8.7891 6.59271 8.70368 5.95737C8.62487 5.37123 8.62493 4.64405 8.625 3.82123L8.63192 1.69542C8.63213 1.6336 8.63742 1.57244 8.64751 1.5125C8.34105 1.5 7.97685 1.5 7.52234 1.5C4.67902 1.5 3.25736 1.5 2.37868 2.37868C1.5 3.25736 1.5 4.67157 1.5 7.5V10.5C1.5 13.3284 1.5 14.7426 2.37868 15.6213C3.25736 16.5 4.67157 16.5 7.5 16.5ZM5.99028 14.2854C6.20665 14.4882 6.54335 14.4882 6.75972 14.2854L8.25972 12.8791C8.48636 12.6666 8.49784 12.3107 8.28537 12.084C8.07289 11.8574 7.71692 11.8459 7.49028 12.0584L6.9375 12.5766L6.9375 10.125C6.9375 9.81434 6.68566 9.5625 6.375 9.5625C6.06434 9.5625 5.8125 9.81434 5.8125 10.125V12.5766L5.25972 12.0584C5.03308 11.8459 4.67711 11.8574 4.46464 12.084C4.25216 12.3107 4.26365 12.6666 4.49028 12.8791L5.99028 14.2854Z" fill="white"/>
</g>
</g>
</svg>
