<svg width="20" height="20" viewBox="0 0 20 20" fill="none" xmlns="http://www.w3.org/2000/svg">
<g id="Outline / Time / History">
<path id="Vector" fill-rule="evenodd" clip-rule="evenodd" d="M4.23224 4.22416C7.39501 1.06584 12.5364 1.09942 15.7185 4.28154C18.902 7.46503 18.9342 12.6095 15.7718 15.7719C12.6094 18.9343 7.46494 18.9021 4.28145 15.7186C2.39491 13.832 1.61587 11.2583 1.95039 8.81775C1.99727 8.47577 2.3125 8.23654 2.65448 8.28341C2.99646 8.33029 3.23569 8.64552 3.18881 8.9875C2.9055 11.0544 3.56485 13.2342 5.16533 14.8347C7.86906 17.5384 12.222 17.5539 14.8879 14.888C17.5538 12.2221 17.5383 7.86916 14.8346 5.16542C12.1323 2.46307 7.78241 2.44622 5.11612 5.10804L5.73921 5.11117C6.08438 5.1129 6.36279 5.39413 6.36106 5.7393C6.35932 6.08447 6.0781 6.36289 5.73293 6.36115L3.61163 6.35049C3.26891 6.34877 2.9915 6.07136 2.98978 5.72864L2.97912 3.60735C2.97739 3.26217 3.2558 2.98095 3.60097 2.97921C3.94615 2.97748 4.22737 3.25589 4.22911 3.60107L4.23224 4.22416ZM9.9999 6.04166C10.3451 6.04166 10.6249 6.32148 10.6249 6.66666V9.74111L12.5252 11.6414C12.7693 11.8855 12.7693 12.2812 12.5252 12.5253C12.2811 12.7693 11.8854 12.7693 11.6413 12.5253L9.3749 10.2589V6.66666C9.3749 6.32148 9.65472 6.04166 9.9999 6.04166Z" fill="#152C2A"/>
</g>
</svg>
