<svg width="20" height="18" viewBox="0 0 20 18" fill="none" xmlns="http://www.w3.org/2000/svg">
<path d="M3.59842 8.6416C1.61425 8.6416 0 10.2559 0 12.2401C0 13.2432 0.548486 14.4547 1.63027 15.8411C2.4029 16.8313 3.16648 17.5474 3.19862 17.5774L3.59846 17.9507L3.99829 17.5774C4.03043 17.5474 4.79401 16.8313 5.56665 15.8411C6.64839 14.4547 7.19691 13.2432 7.19691 12.2401C7.19687 10.2559 5.58262 8.6416 3.59842 8.6416ZM3.60006 16.323C3.32412 16.0359 2.93846 15.613 2.55402 15.1203C1.64972 13.9613 1.17173 12.9653 1.17173 12.2401C1.17173 10.902 2.26034 9.81337 3.59842 9.81337C4.93649 9.81337 6.02515 10.9019 6.02515 12.2401C6.02515 13.5332 4.5233 15.3644 3.60006 16.323Z" fill="#152C2A"/>
<path d="M3.59842 11.0762C2.9565 11.0762 2.43427 11.5984 2.43427 12.2403C2.43427 12.8822 2.9565 13.4045 3.59842 13.4045C4.24033 13.4045 4.76257 12.8822 4.76257 12.2403C4.76257 11.5984 4.24033 11.0762 3.59842 11.0762Z" fill="#152C2A"/>
<path d="M16.4015 0.0488281C14.4174 0.0488281 12.8031 1.66308 12.8031 3.64725C12.8031 4.65036 13.3516 5.86193 14.4333 7.24832C15.2059 8.23851 15.9695 8.95455 16.0016 8.98455L16.4015 9.35786L16.8013 8.98455C16.8334 8.95455 17.597 8.23851 18.3696 7.24832C19.4514 5.86193 19.9999 4.65036 19.9999 3.64725C20 1.66312 18.3857 0.0488281 16.4015 0.0488281ZM16.4015 7.73193C15.4784 6.77381 13.9748 4.94111 13.9748 3.64725C13.9748 2.30917 15.0634 1.22056 16.4015 1.22056C17.7396 1.22056 18.8282 2.30917 18.8282 3.64725C18.8282 4.94115 17.3246 6.77381 16.4015 7.73193Z" fill="#152C2A"/>
<path d="M16.4015 2.4834C15.7596 2.4834 15.2374 3.00564 15.2374 3.64755C15.2374 4.28946 15.7596 4.8117 16.4015 4.8117C17.0435 4.8117 17.5657 4.28946 17.5657 3.64755C17.5657 3.00564 17.0435 2.4834 16.4015 2.4834Z" fill="#152C2A"/>
<path d="M14.2532 12.2673H10.9765C10.1149 12.2673 9.41401 11.5664 9.41401 10.7049C9.41401 9.84332 10.1149 9.14243 10.9765 9.14243H14.0579V7.9707H10.9765C9.46884 7.9707 8.24228 9.19723 8.24228 10.7049C8.24228 12.2125 9.46884 13.439 10.9765 13.439H14.2532C15.1148 13.439 15.8157 14.1399 15.8157 15.0014C15.8157 15.863 15.1148 16.5638 14.2532 16.5638H5.94202V17.7356H14.2532C15.7609 17.7356 16.9874 16.509 16.9874 15.0014C16.9874 13.4938 15.7609 12.2673 14.2532 12.2673Z" fill="#152C2A"/>
</svg>
