<svg width="14" height="14" viewBox="0 0 14 14" fill="none" xmlns="http://www.w3.org/2000/svg">
<g id="home 1">
<g id="Group 4">
<path id="Vector" d="M6.99995 7.95581C6.62772 7.95581 6.27073 8.10368 6.00752 8.36689C5.74431 8.6301 5.59644 8.98709 5.59644 9.35933V12.6464H8.40347V9.35933C8.40347 8.98709 8.2556 8.6301 7.99239 8.36689C7.72918 8.10368 7.37219 7.95581 6.99995 7.95581Z" fill="white"/>
<path id="Vector_2" d="M7.62602 1.79589C7.4542 1.64124 7.23122 1.55566 7.00005 1.55566C6.76888 1.55566 6.5459 1.64124 6.37408 1.79589L2.04804 5.68941C1.62662 6.06869 1.38599 6.60901 1.38599 7.17598V11.1508C1.38599 11.5478 1.54371 11.9286 1.82447 12.2094C2.10523 12.4901 2.48602 12.6479 2.88307 12.6479H4.66086V9.35944C4.66086 8.73904 4.90731 8.14406 5.34599 7.70538C5.78468 7.26669 6.37966 7.02024 7.00005 7.02024C7.62044 7.02024 8.21543 7.26669 8.65411 7.70538C9.09279 8.14406 9.33924 8.73904 9.33924 9.35944V12.6465H11.117C11.5141 12.6465 11.8949 12.4887 12.1756 12.208C12.4564 11.9272 12.6141 11.5464 12.6141 11.1494V7.17476C12.6141 6.60769 12.3734 6.06727 11.9518 5.68798L7.62602 1.79589Z" fill="white"/>
</g>
</g>
</svg>
