<svg width="30" height="30" viewBox="0 0 30 30" fill="none" xmlns="http://www.w3.org/2000/svg">
<rect width="30" height="30" rx="10" fill="#57CFC8"/>
<path d="M15 15.9561C14.6277 15.9561 14.2707 16.1039 14.0075 16.3671C13.7443 16.6303 13.5964 16.9873 13.5964 17.3596V20.6466H16.4035V17.3596C16.4035 16.9873 16.2556 16.6303 15.9924 16.3671C15.7292 16.1039 15.3722 15.9561 15 15.9561Z" fill="white"/>
<path d="M15.626 9.79589C15.4542 9.64124 15.2312 9.55566 15.0001 9.55566C14.7689 9.55566 14.5459 9.64124 14.3741 9.79589L10.048 13.6894C9.62662 14.0687 9.38599 14.609 9.38599 15.176V19.1508C9.38599 19.5478 9.54371 19.9286 9.82447 20.2094C10.1052 20.4901 10.486 20.6479 10.8831 20.6479H12.6609V17.3594C12.6609 16.739 12.9073 16.1441 13.346 15.7054C13.7847 15.2667 14.3797 15.0202 15.0001 15.0202C15.6204 15.0202 16.2154 15.2667 16.6541 15.7054C17.0928 16.1441 17.3392 16.739 17.3392 17.3594V20.6465H19.117C19.5141 20.6465 19.8949 20.4887 20.1756 20.208C20.4564 19.9272 20.6141 19.5464 20.6141 19.1494V15.1748C20.6141 14.6077 20.3734 14.0673 19.9518 13.688L15.626 9.79589Z" fill="white"/>
</svg>
