<svg width="20" height="20" viewBox="0 0 20 20" fill="none" xmlns="http://www.w3.org/2000/svg">
<g id="Outline / Essentional, UI / Info Square">
<g id="Vector">
<path d="M10.8332 6.66669C10.8332 6.20645 10.4601 5.83335 9.99984 5.83335C9.5396 5.83335 9.1665 6.20645 9.1665 6.66669C9.1665 7.12692 9.5396 7.50002 9.99984 7.50002C10.4601 7.50002 10.8332 7.12692 10.8332 6.66669Z" fill="#666C92"/>
<path d="M9.99984 14.7917C10.345 14.7917 10.6248 14.5119 10.6248 14.1667V9.16669C10.6248 8.82151 10.345 8.54169 9.99984 8.54169C9.65466 8.54169 9.37484 8.82151 9.37484 9.16669V14.1667C9.37484 14.5119 9.65466 14.7917 9.99984 14.7917Z" fill="#666C92"/>
<path fill-rule="evenodd" clip-rule="evenodd" d="M10.0477 1.04169H9.95202C8.02837 1.04168 6.52083 1.04167 5.34459 1.19981C4.14065 1.36168 3.19063 1.69946 2.44495 2.44513C1.69928 3.19081 1.36149 4.14083 1.19963 5.34478C1.04149 6.52101 1.04149 8.02854 1.0415 9.95219V10.0478C1.04149 11.9715 1.04149 13.479 1.19963 14.6553C1.36149 15.8592 1.69928 16.8092 2.44495 17.5549C3.19063 18.3006 4.14065 18.6384 5.34459 18.8002C6.52083 18.9584 8.02836 18.9584 9.95203 18.9584H10.0476C11.9713 18.9584 13.4788 18.9584 14.6551 18.8002C15.859 18.6384 16.8091 18.3006 17.5547 17.5549C18.3004 16.8092 18.6382 15.8592 18.8 14.6553C18.9582 13.479 18.9582 11.9715 18.9582 10.0478V9.95221C18.9582 8.02855 18.9582 6.52102 18.8 5.34478C18.6382 4.14083 18.3004 3.19081 17.5547 2.44513C16.8091 1.69946 15.859 1.36168 14.6551 1.19981C13.4788 1.04167 11.9713 1.04168 10.0477 1.04169ZM3.32883 3.32902C3.80355 2.8543 4.44582 2.58189 5.51115 2.43866C6.59447 2.29302 8.01798 2.29169 9.99984 2.29169C11.9817 2.29169 13.4052 2.29302 14.4885 2.43866C15.5539 2.58189 16.1961 2.8543 16.6708 3.32902C17.1456 3.80373 17.418 4.446 17.5612 5.51133C17.7068 6.59465 17.7082 8.01817 17.7082 10C17.7082 11.9819 17.7068 13.4054 17.5612 14.4887C17.418 15.554 17.1456 16.1963 16.6708 16.671C16.1961 17.1457 15.5539 17.4181 14.4885 17.5614C13.4052 17.707 11.9817 17.7084 9.99984 17.7084C8.01798 17.7084 6.59447 17.707 5.51115 17.5614C4.44582 17.4181 3.80355 17.1457 3.32883 16.671C2.85412 16.1963 2.58171 15.554 2.43848 14.4887C2.29283 13.4054 2.2915 11.9819 2.2915 10C2.2915 8.01817 2.29283 6.59465 2.43848 5.51133C2.58171 4.446 2.85412 3.80373 3.32883 3.32902Z" fill="#666C92"/>
</g>
</g>
</svg>
