<svg width="20" height="20" viewBox="0 0 20 20" fill="none" xmlns="http://www.w3.org/2000/svg">
<g id="Outline / Security / Lock">
<path id="Vector" fill-rule="evenodd" clip-rule="evenodd" d="M4.37508 7.75233V6.66669C4.37508 3.56009 6.89348 1.04169 10.0001 1.04169C13.1067 1.04169 15.6251 3.56009 15.6251 6.66669V7.75233C15.8141 7.76562 15.9923 7.78292 16.1599 7.80546C16.91 7.9063 17.5415 8.12205 18.0431 8.62365C18.5447 9.12524 18.7605 9.75681 18.8613 10.5069C18.9584 11.2294 18.9584 12.148 18.9584 13.2876V13.3791C18.9584 14.5187 18.9584 15.4373 18.8613 16.1598C18.7605 16.9099 18.5447 17.5415 18.0431 18.0431C17.5415 18.5447 16.91 18.7604 16.1599 18.8613C15.4374 18.9584 14.5188 18.9584 13.3791 18.9584H6.62102C5.48136 18.9584 4.56276 18.9584 3.84029 18.8613C3.0902 18.7604 2.45864 18.5447 1.95704 18.0431C1.45544 17.5415 1.2397 16.9099 1.13885 16.1598C1.04172 15.4373 1.04173 14.5187 1.04175 13.3791V13.2876C1.04173 12.148 1.04172 11.2294 1.13885 10.5069C1.2397 9.7568 1.45544 9.12524 1.95704 8.62365C2.45864 8.12205 3.0902 7.9063 3.84029 7.80546C4.00789 7.78292 4.18606 7.76562 4.37508 7.75233ZM5.62508 6.66669C5.62508 4.25044 7.58384 2.29169 10.0001 2.29169C12.4163 2.29169 14.3751 4.25044 14.3751 6.66669V7.71122C14.0638 7.70834 13.7321 7.70835 13.3791 7.70835H6.62102C6.26809 7.70835 5.93636 7.70834 5.62508 7.71122V6.66669ZM2.84092 9.50753C3.07156 9.27689 3.39537 9.12652 4.00685 9.04431C4.63631 8.95968 5.47057 8.95835 6.66675 8.95835H13.3334C14.5296 8.95835 15.3639 8.95968 15.9933 9.04431C16.6048 9.12652 16.9286 9.27689 17.1592 9.50753C17.3899 9.73816 17.5402 10.062 17.6225 10.6735C17.7071 11.3029 17.7084 12.1372 17.7084 13.3334C17.7084 14.5295 17.7071 15.3638 17.6225 15.9933C17.5402 16.6047 17.3899 16.9285 17.1592 17.1592C16.9286 17.3898 16.6048 17.5402 15.9933 17.6224C15.3639 17.707 14.5296 17.7084 13.3334 17.7084H6.66675C5.47057 17.7084 4.63631 17.707 4.00685 17.6224C3.39537 17.5402 3.07156 17.3898 2.84092 17.1592C2.61029 16.9285 2.45992 16.6047 2.37771 15.9933C2.29308 15.3638 2.29175 14.5295 2.29175 13.3334C2.29175 12.1372 2.29308 11.3029 2.37771 10.6735C2.45992 10.062 2.61029 9.73816 2.84092 9.50753Z" fill="#152C2A"/>
</g>
</svg>
