<svg width="20" height="20" viewBox="0 0 20 20" fill="none" xmlns="http://www.w3.org/2000/svg">
<g id="Outline / Arrows Action / Logout">
<g id="Vector">
<path d="M9.99992 2.70831C10.3451 2.70831 10.6249 2.98814 10.6249 3.33331C10.6249 3.67849 10.3451 3.95831 9.99992 3.95831C6.6632 3.95831 3.95825 6.66326 3.95825 9.99998C3.95825 13.3367 6.6632 16.0416 9.99992 16.0416C10.3451 16.0416 10.6249 16.3215 10.6249 16.6666C10.6249 17.0118 10.3451 17.2916 9.99992 17.2916C5.97284 17.2916 2.70825 14.0271 2.70825 9.99998C2.70825 5.9729 5.97284 2.70831 9.99992 2.70831Z" fill="#152C2A"/>
<path d="M13.7246 7.94192C13.4806 7.69784 13.4806 7.30212 13.7246 7.05804C13.9687 6.81396 14.3644 6.81396 14.6085 7.05804L17.1085 9.55804C17.3526 9.80212 17.3526 10.1978 17.1085 10.4419L14.6085 12.9419C14.3644 13.186 13.9687 13.186 13.7246 12.9419C13.4806 12.6978 13.4806 12.3021 13.7246 12.058L15.1577 10.625H8.33325C7.98807 10.625 7.70825 10.3452 7.70825 9.99998C7.70825 9.6548 7.98807 9.37498 8.33325 9.37498H15.1577L13.7246 7.94192Z" fill="#152C2A"/>
</g>
</g>
</svg>
