<svg width="24" height="15" viewBox="0 0 24 15" fill="none" xmlns="http://www.w3.org/2000/svg">
<g id="Layer_x0020_1">
<g id="_398966608">
<path id="_398970496" fill-rule="evenodd" clip-rule="evenodd" d="M2.22035 0H22.1356C23.1611 0 24.0001 0.838945 24.0001 1.86441V13.1356C24.0001 14.1611 23.1611 15 22.1356 15H2.22035C1.19492 15 0.355957 14.1611 0.355957 13.1356V1.86441C0.355957 0.838945 1.19492 0 2.22035 0Z" fill="#011D38"/>
<path id="_398969920" fill-rule="evenodd" clip-rule="evenodd" d="M2.22056 0.369629C1.39903 0.369629 0.725586 1.04309 0.725586 1.86462V13.1358C0.725586 13.9573 1.39903 14.6308 2.22056 14.6308H22.1358C22.9574 14.6308 23.6308 13.9574 23.6308 13.1358V1.86462C23.6308 1.04305 22.9574 0.369629 22.1358 0.369629H2.22056Z" fill="#013668"/>
<path id="_398970424" d="M15.8986 13.031C18.954 13.031 21.4309 10.5541 21.4309 7.49866C21.4309 4.44323 18.954 1.96631 15.8986 1.96631C12.8431 1.96631 10.3662 4.44323 10.3662 7.49866C10.3662 10.5541 12.8431 13.031 15.8986 13.031Z" fill="#FAC23C"/>
<path id="_398969608" fill-rule="evenodd" clip-rule="evenodd" d="M12.178 3.40186C12.2805 3.49496 12.3795 3.59188 12.4748 3.69234H11.8809C11.9761 3.59188 12.0755 3.49496 12.178 3.40186Z" fill="#FAC23C"/>
<path id="_398969560" d="M8.45911 13.031C11.5145 13.031 13.9915 10.5541 13.9915 7.49866C13.9915 4.44323 11.5145 1.96631 8.45911 1.96631C5.40368 1.96631 2.92676 4.44323 2.92676 7.49866C2.92676 10.5541 5.40368 13.031 8.45911 13.031Z" fill="#DD2C00"/>
<g id="Group">
<path id="_398969320" fill-rule="evenodd" clip-rule="evenodd" d="M12.7541 4.00977C12.8309 4.10407 12.9046 4.20094 12.9751 4.30024H11.3813C11.4518 4.20094 11.5255 4.10407 11.6023 4.00977H12.7541Z" fill="#FAC23C"/>
<path id="_398969536" fill-rule="evenodd" clip-rule="evenodd" d="M13.1839 4.61768C13.2419 4.71267 13.2972 4.8095 13.3496 4.90815H11.0059C11.0582 4.8095 11.1135 4.71267 11.1716 4.61768H13.1839Z" fill="#FAC23C"/>
<path id="_398968384" fill-rule="evenodd" clip-rule="evenodd" d="M13.5054 5.22559C13.5485 5.321 13.5888 5.41787 13.6266 5.51606H10.729C10.7667 5.41787 10.8071 5.321 10.8501 5.22559H13.5054Z" fill="#FAC23C"/>
<path id="_398968864" fill-rule="evenodd" clip-rule="evenodd" d="M13.738 5.8335C13.7682 5.92922 13.7958 6.02609 13.8208 6.12397H10.5356C10.5607 6.02609 10.5883 5.92922 10.6185 5.8335H13.738Z" fill="#FAC23C"/>
<path id="_398968504" fill-rule="evenodd" clip-rule="evenodd" d="M13.892 6.44141C13.9106 6.53738 13.9267 6.63422 13.9402 6.73188H10.416C10.4296 6.63422 10.4457 6.53738 10.4643 6.44141H13.892Z" fill="#FAC23C"/>
<path id="_398968168" fill-rule="evenodd" clip-rule="evenodd" d="M13.9749 7.0498C13.9827 7.14596 13.9879 7.24282 13.9907 7.34028H10.3652C10.368 7.24282 10.3732 7.14596 10.381 7.0498H13.9749Z" fill="#FAC23C"/>
<path id="_398967808" fill-rule="evenodd" clip-rule="evenodd" d="M13.9908 7.65771C13.9881 7.75518 13.9829 7.85205 13.9752 7.94819H10.3809C10.3732 7.85205 10.368 7.75518 10.3652 7.65771H13.9908Z" fill="#FAC23C"/>
<path id="_398968240" fill-rule="evenodd" clip-rule="evenodd" d="M13.9404 8.26562C13.9268 8.36328 13.9108 8.46013 13.8922 8.5561H10.4637C10.4451 8.46013 10.4291 8.36328 10.4155 8.26562H13.9404Z" fill="#FAC23C"/>
<path id="_398967640" fill-rule="evenodd" clip-rule="evenodd" d="M13.8214 8.87354C13.7964 8.97142 13.7688 9.06829 13.7387 9.16401H10.6179C10.5877 9.06829 10.5602 8.97142 10.5352 8.87354H13.8214Z" fill="#FAC23C"/>
<path id="_398966992" fill-rule="evenodd" clip-rule="evenodd" d="M13.6277 9.48145C13.59 9.57964 13.5497 9.67651 13.5067 9.77192H10.8495C10.8065 9.67651 10.7662 9.57964 10.7285 9.48145H13.6277Z" fill="#FAC23C"/>
<path id="_398967472" fill-rule="evenodd" clip-rule="evenodd" d="M13.3509 10.0894C13.2986 10.188 13.2433 10.2848 13.1853 10.3798H11.1705C11.1125 10.2848 11.0572 10.188 11.0049 10.0894H13.3509Z" fill="#FAC23C"/>
<path id="_398967112" fill-rule="evenodd" clip-rule="evenodd" d="M12.9761 10.6973C12.9057 10.7966 12.8321 10.8934 12.7554 10.9877H11.6001C11.5234 10.8934 11.4498 10.7966 11.3794 10.6973H12.9761Z" fill="#FAC23C"/>
</g>
<path id="_398966896" fill-rule="evenodd" clip-rule="evenodd" d="M20.3479 8.43987V6.56055H19.8203V7.20976C19.7691 7.15505 19.7105 7.11438 19.644 7.0868C19.5779 7.05969 19.5044 7.04615 19.4231 7.04615C19.2564 7.04615 19.1195 7.10607 19.0114 7.22594C18.9034 7.34581 18.8491 7.51858 18.8491 7.74474C18.8491 7.94642 18.8981 8.11832 18.9957 8.25964C19.0937 8.40095 19.2354 8.47138 19.4204 8.47138C19.5127 8.47138 19.5967 8.45167 19.6716 8.41231C19.728 8.38213 19.7905 8.32395 19.8588 8.23819V8.43987L20.3479 8.43987ZM19.7564 7.51376C19.8015 7.56627 19.8242 7.64632 19.8242 7.7535C19.8242 7.87206 19.8019 7.95736 19.7577 8.00985C19.7131 8.06191 19.658 8.08816 19.5915 8.08816C19.5294 8.08816 19.4769 8.06234 19.4349 8.01029C19.3924 7.95822 19.3715 7.87686 19.3715 7.76532C19.3715 7.64589 19.392 7.561 19.4327 7.51071C19.4738 7.45997 19.5246 7.43459 19.5849 7.43459C19.6541 7.43459 19.7114 7.46082 19.7564 7.51376Z" fill="#FFFFFE"/>
<path id="_398966776" fill-rule="evenodd" clip-rule="evenodd" d="M18.1785 7.29962V7.07739H17.6895V8.43962H18.2144V7.98204C18.2144 7.76374 18.2415 7.61457 18.2953 7.53497C18.333 7.47852 18.3863 7.45008 18.4546 7.45008C18.4904 7.45008 18.5394 7.46277 18.6011 7.48857L18.763 7.11808C18.6715 7.06995 18.5871 7.0459 18.5097 7.0459C18.4362 7.0459 18.3745 7.06381 18.3242 7.10013C18.2743 7.13642 18.2258 7.20291 18.1785 7.29962Z" fill="#FFFFFE"/>
<path id="_398967256" fill-rule="evenodd" clip-rule="evenodd" d="M17.3715 7.54764C17.3715 7.48334 17.3588 7.41597 17.333 7.34556C17.3076 7.27509 17.2726 7.22044 17.228 7.18193C17.165 7.12637 17.0858 7.08964 16.9913 7.07213C16.8964 7.05463 16.7713 7.0459 16.6151 7.0459C16.5175 7.0459 16.427 7.05332 16.3434 7.06775C16.2599 7.08219 16.1943 7.10273 16.1466 7.12944C16.0797 7.16619 16.0289 7.20951 15.9935 7.2598C15.958 7.30967 15.9309 7.37834 15.9121 7.46585L16.4108 7.51833C16.4314 7.45883 16.4581 7.41859 16.4913 7.39672C16.5342 7.36918 16.598 7.35561 16.6834 7.35561C16.7498 7.35561 16.7962 7.36829 16.8225 7.3941C16.8491 7.4199 16.8623 7.46452 16.8623 7.52884C16.7975 7.55464 16.7358 7.5752 16.6777 7.59095C16.6195 7.60715 16.4926 7.63469 16.2971 7.67407C16.1339 7.70643 16.0219 7.75632 15.9611 7.82325C15.9003 7.89017 15.8701 7.97548 15.8701 8.07916C15.8701 8.1894 15.9121 8.28259 15.9965 8.35781C16.0805 8.43351 16.2039 8.47113 16.3662 8.47113C16.4882 8.47113 16.5954 8.45233 16.6877 8.4147C16.7555 8.3867 16.8234 8.33988 16.8916 8.27427C16.8977 8.31321 16.9038 8.34165 16.9095 8.36001C16.9156 8.37839 16.9283 8.40464 16.948 8.43962H17.4367C17.4095 8.38319 17.3916 8.33683 17.3837 8.30052C17.3754 8.26421 17.3715 8.21389 17.3715 8.1496L17.3715 7.54764ZM16.6374 7.85999C16.7157 7.83987 16.7905 7.81712 16.8623 7.79132V7.8753C16.8623 7.94093 16.8518 7.9943 16.8308 8.0354C16.8098 8.07655 16.7743 8.11109 16.7245 8.13953C16.6742 8.16796 16.6199 8.18242 16.5617 8.18242C16.5062 8.18242 16.4642 8.16927 16.4353 8.14303C16.4069 8.11678 16.3924 8.08267 16.3924 8.04111C16.3924 8.0048 16.4069 7.97241 16.4362 7.94397C16.4642 7.91643 16.5315 7.88843 16.6374 7.85999Z" fill="#FFFFFE"/>
<path id="_398966464" fill-rule="evenodd" clip-rule="evenodd" d="M15.6685 7.11369C15.6029 6.91508 15.5018 6.76809 15.3667 6.67228C15.2311 6.5765 15.0447 6.52881 14.808 6.52881C14.5053 6.52881 14.2713 6.61235 14.1055 6.77902C13.9401 6.94614 13.8574 7.18498 13.8574 7.49559C13.8574 7.7283 13.9047 7.91991 13.9987 8.06909C14.0928 8.21826 14.2043 8.32282 14.3338 8.38233C14.4637 8.44136 14.6304 8.47113 14.8351 8.47113C15.0036 8.47113 15.1422 8.44662 15.2512 8.39806C15.3605 8.34949 15.4515 8.27732 15.525 8.18152C15.5989 8.08616 15.6527 7.96673 15.6869 7.82412L15.1777 7.67056C15.1519 7.78912 15.1108 7.87968 15.0539 7.94178C14.997 8.00435 14.913 8.0354 14.8019 8.0354C14.6873 8.0354 14.5985 7.99691 14.535 7.91991C14.4716 7.84248 14.4401 7.7003 14.4401 7.49208C14.4401 7.32452 14.4668 7.20116 14.5197 7.12287C14.5897 7.01746 14.6908 6.96452 14.8229 6.96452C14.8811 6.96452 14.9336 6.97632 14.9808 7.00037C15.0276 7.024 15.0674 7.05813 15.1002 7.10229C15.1199 7.12856 15.1387 7.17011 15.1567 7.22698L15.6685 7.11369Z" fill="#FFFFFE"/>
<path id="_398966176" fill-rule="evenodd" clip-rule="evenodd" d="M13.6431 7.48857L13.805 7.11808C13.7135 7.06995 13.6291 7.0459 13.5517 7.0459C13.4782 7.0459 13.4165 7.06381 13.3662 7.10013C13.3163 7.13642 13.2678 7.20291 13.2205 7.29962V7.07739H12.7314V8.43962H13.2564V7.98204C13.2564 7.76374 13.2835 7.61457 13.3373 7.53497C13.3749 7.47852 13.4283 7.45008 13.4966 7.45008C13.5324 7.45008 13.5814 7.46277 13.6431 7.48857Z" fill="#FFFFFE"/>
<path id="_398966128" fill-rule="evenodd" clip-rule="evenodd" d="M12.4876 7.82937C12.4876 7.64958 12.4583 7.50346 12.3993 7.39148C12.3402 7.27903 12.254 7.19375 12.1412 7.13468C12.0283 7.07564 11.8748 7.0459 11.6797 7.0459C11.4395 7.0459 11.2509 7.11193 11.1149 7.24362C10.9784 7.3753 10.9102 7.5481 10.9102 7.76114C10.9102 7.91075 10.9443 8.04111 11.0121 8.15222C11.0803 8.26288 11.1661 8.34381 11.2693 8.39459C11.373 8.44575 11.5147 8.47113 11.6954 8.47113C11.9032 8.47113 12.0628 8.44137 12.174 8.38188C12.2851 8.32283 12.38 8.22439 12.4588 8.08791L11.9443 8.04066C11.9119 8.08135 11.8813 8.10978 11.8529 8.12596C11.8069 8.15134 11.7579 8.16402 11.7063 8.16402C11.625 8.16402 11.5589 8.13473 11.5086 8.07567C11.4723 8.03455 11.45 7.97197 11.4404 7.88843H12.4876L12.4876 7.82937ZM11.8756 7.42123C11.9198 7.46497 11.9474 7.53759 11.9574 7.63907H11.4417C11.4504 7.55726 11.4705 7.49602 11.502 7.4549C11.5519 7.38885 11.6184 7.35561 11.7015 7.35561C11.7737 7.35561 11.8315 7.37747 11.8756 7.42123Z" fill="#FFFFFE"/>
<path id="_398966056" fill-rule="evenodd" clip-rule="evenodd" d="M10.7271 7.46082V7.07763H10.441V6.56055L9.91866 6.82785V7.07764H9.72705V7.46082H9.91866V7.93987C9.91866 8.09167 9.93355 8.2019 9.96284 8.26971C9.99259 8.33751 10.0381 8.38823 10.0993 8.42149C10.161 8.45476 10.2568 8.47138 10.3868 8.47138C10.4987 8.47138 10.6191 8.45738 10.7481 8.42894L10.7096 8.06803C10.64 8.09034 10.5862 8.10128 10.5477 8.10128C10.5049 8.10128 10.4747 8.08685 10.4576 8.05798C10.4467 8.03916 10.441 8.00065 10.441 7.94293V7.46082H10.7271Z" fill="#FFFFFE"/>
<path id="_398966536" fill-rule="evenodd" clip-rule="evenodd" d="M6.12122 8.43988V6.56055H5.35869L5.06605 7.70405L4.77429 6.56055H4.0083V8.43988H4.48335V7.0072L4.84905 8.43988H5.27954L5.64612 7.0072V8.43988H6.12122Z" fill="#FFFFFE"/>
<path id="_398966728" fill-rule="evenodd" clip-rule="evenodd" d="M6.43554 7.46584L6.93426 7.51833C6.95482 7.45883 6.98151 7.41859 7.01475 7.39672C7.05764 7.36917 7.12149 7.35561 7.20679 7.35561C7.2733 7.35561 7.31966 7.36828 7.34592 7.3941C7.37259 7.4199 7.38573 7.46452 7.38573 7.52884C7.32097 7.55464 7.2593 7.5752 7.20112 7.59095C7.14292 7.60715 7.01606 7.63469 6.82052 7.67407C6.65734 7.70643 6.54535 7.75632 6.48455 7.82325C6.42375 7.89017 6.39355 7.97548 6.39355 8.07916C6.39355 8.18939 6.43554 8.28259 6.51999 8.35781C6.60398 8.43351 6.72734 8.47113 6.88964 8.47113C7.01169 8.47113 7.11887 8.45233 7.21119 8.41469C7.27899 8.3867 7.34679 8.33988 7.41504 8.27426C7.42115 8.31321 7.42728 8.34164 7.43298 8.36001C7.43909 8.37839 7.45177 8.40464 7.47147 8.43962H7.96011C7.93298 8.38319 7.91504 8.33683 7.90718 8.30052C7.89887 8.26421 7.89493 8.21388 7.89493 8.1496V7.54764C7.89493 7.48334 7.88224 7.41597 7.85644 7.34556C7.83106 7.27509 7.79606 7.22044 7.75143 7.18193C7.68843 7.12637 7.60927 7.08964 7.51476 7.07213C7.41984 7.05463 7.29472 7.0459 7.13856 7.0459C7.04098 7.0459 6.95044 7.05332 6.86688 7.06775C6.78332 7.08219 6.71772 7.10273 6.67003 7.12944C6.60309 7.16619 6.55235 7.20951 6.51691 7.2598C6.48148 7.30967 6.45437 7.37834 6.43554 7.46584ZM7.16085 7.85999C7.23917 7.83986 7.31397 7.81712 7.38573 7.79132V7.8753C7.38573 7.94093 7.37522 7.99429 7.35421 8.0354C7.33323 8.07655 7.29779 8.11109 7.24792 8.13952C7.19761 8.16796 7.14338 8.18241 7.0852 8.18241C7.02962 8.18241 6.98762 8.16927 6.95875 8.14303C6.93033 8.11678 6.9159 8.08267 6.9159 8.04111C6.9159 8.0048 6.93033 7.9724 6.95964 7.94397C6.98762 7.91642 7.05498 7.88842 7.16085 7.85999Z" fill="#FFFFFE"/>
<path id="_398966152" fill-rule="evenodd" clip-rule="evenodd" d="M8.25134 7.23969C8.19927 7.30442 8.17347 7.38185 8.17347 7.47154C8.17347 7.55377 8.1975 7.62682 8.24563 7.69114C8.29417 7.755 8.35326 7.80094 8.42368 7.82761C8.49456 7.85476 8.62012 7.88405 8.80121 7.91555C8.92238 7.93699 8.9972 7.95493 9.0252 7.96937C9.06458 7.98991 9.08425 8.01924 9.08425 8.05686C9.08425 8.09009 9.06938 8.11807 9.0392 8.13996C9.00071 8.17014 8.94645 8.18501 8.87646 8.18501C8.81217 8.18501 8.76097 8.17191 8.72248 8.14565C8.68396 8.11942 8.65423 8.07567 8.63279 8.0144L8.11572 8.06166C8.14547 8.19247 8.21326 8.29352 8.31871 8.36439C8.42411 8.43568 8.60128 8.47113 8.84975 8.47113C9.02563 8.47113 9.16475 8.44926 9.26668 8.40508C9.3686 8.3609 9.44341 8.30181 9.49065 8.22745C9.53834 8.15311 9.56197 8.07655 9.56197 7.9978C9.56197 7.91992 9.53965 7.84861 9.49459 7.78343C9.44998 7.71825 9.38522 7.66836 9.3008 7.63338C9.21593 7.59838 9.08732 7.57082 8.91363 7.55115C8.79946 7.53759 8.7251 7.52226 8.69141 7.50477C8.65772 7.48772 8.64066 7.46277 8.64066 7.4291C8.64066 7.39936 8.65423 7.37398 8.68092 7.35296C8.70759 7.33198 8.75048 7.32149 8.80908 7.32149C8.86726 7.32149 8.91669 7.33501 8.95738 7.36216C8.98714 7.3827 9.00856 7.41465 9.02125 7.45797L9.5147 7.41072C9.48059 7.32149 9.43772 7.25104 9.38609 7.19855C9.33449 7.14648 9.27016 7.10801 9.19273 7.08304C9.11575 7.05814 8.9959 7.0459 8.83402 7.0459C8.68046 7.0459 8.55797 7.06206 8.46656 7.09401C8.37513 7.12593 8.30337 7.17449 8.25134 7.23969Z" fill="#FFFFFE"/>
</g>
</g>
</svg>
