<svg width="30" height="30" viewBox="0 0 30 30" fill="none" xmlns="http://www.w3.org/2000/svg">
<rect width="30" height="30" rx="10" fill="#E5F8F6"/>
<path d="M22.5 12.375C22.5 9.68261 20.3174 7.5 17.625 7.5C16.0628 7.5 14.6723 8.23672 13.7801 9.38041C17.5853 9.52752 20.625 12.6588 20.625 16.5C20.625 16.5827 20.6236 16.6651 20.6208 16.7472L20.87 16.8139C21.5947 17.0078 22.2578 16.3447 22.0639 15.62L21.9683 15.263C21.8912 14.9745 21.9376 14.6699 22.0616 14.3983C22.3431 13.782 22.5 13.0968 22.5 12.375Z" fill="#57CFC8"/>
<path fill-rule="evenodd" clip-rule="evenodd" d="M19.5 16.5C19.5 19.8137 16.8137 22.5 13.5 22.5C12.5734 22.5 11.6958 22.2899 10.9123 21.9148C10.643 21.7859 10.3379 21.7407 10.0495 21.8178L9.13001 22.0639C8.40526 22.2578 7.74222 21.5947 7.93613 20.87L8.18217 19.9505C8.25933 19.6621 8.21407 19.357 8.08515 19.0877C7.71006 18.3042 7.5 17.4266 7.5 16.5C7.5 13.1863 10.1863 10.5 13.5 10.5C16.8137 10.5 19.5 13.1863 19.5 16.5ZM10.875 17.25C11.2892 17.25 11.625 16.9142 11.625 16.5C11.625 16.0858 11.2892 15.75 10.875 15.75C10.4608 15.75 10.125 16.0858 10.125 16.5C10.125 16.9142 10.4608 17.25 10.875 17.25ZM13.5 17.25C13.9142 17.25 14.25 16.9142 14.25 16.5C14.25 16.0858 13.9142 15.75 13.5 15.75C13.0858 15.75 12.75 16.0858 12.75 16.5C12.75 16.9142 13.0858 17.25 13.5 17.25ZM16.125 17.25C16.5392 17.25 16.875 16.9142 16.875 16.5C16.875 16.0858 16.5392 15.75 16.125 15.75C15.7108 15.75 15.375 16.0858 15.375 16.5C15.375 16.9142 15.7108 17.25 16.125 17.25Z" fill="#57CFC8"/>
<circle cx="23" cy="10" r="3.5" fill="#FF4E00" stroke="white"/>
</svg>
