<svg width="12" height="13" viewBox="0 0 12 13" fill="none" xmlns="http://www.w3.org/2000/svg">
<path d="M0.166687 6.50008C0.166687 3.75022 0.166687 2.37529 1.02096 1.52102C1.87523 0.666748 3.25016 0.666748 6.00002 0.666748C8.74988 0.666748 10.1248 0.666748 10.9791 1.52102C11.8334 2.37529 11.8334 3.75022 11.8334 6.50008C11.8334 9.24994 11.8334 10.6249 10.9791 11.4791C10.1248 12.3334 8.74988 12.3334 6.00002 12.3334C3.25016 12.3334 1.87523 12.3334 1.02096 11.4791C0.166687 10.6249 0.166687 9.24994 0.166687 6.50008Z" fill="#152C2A"/>
<path fill-rule="evenodd" clip-rule="evenodd" d="M6.00002 3.72925C6.24164 3.72925 6.43752 3.92512 6.43752 4.16675V6.31886L7.76771 7.64906C7.93857 7.81991 7.93857 8.09692 7.76771 8.26777C7.59686 8.43863 7.31985 8.43863 7.14899 8.26777L5.69066 6.80944C5.60861 6.72739 5.56252 6.61611 5.56252 6.50008V4.16675C5.56252 3.92512 5.7584 3.72925 6.00002 3.72925Z" fill="white"/>
</svg>
