<svg width="12" height="13" viewBox="0 0 12 13" fill="none" xmlns="http://www.w3.org/2000/svg">
<path d="M3.52085 0.958252C3.52085 0.716627 3.32498 0.520752 3.08335 0.520752C2.84173 0.520752 2.64585 0.716627 2.64585 0.958252V1.87949C1.80624 1.94672 1.25505 2.11172 0.850105 2.51667C0.445155 2.92162 0.280153 3.47281 0.21292 4.31242H11.7871C11.7199 3.47281 11.5549 2.92162 11.1499 2.51667C10.745 2.11172 10.1938 1.94672 9.35419 1.87949V0.958252C9.35419 0.716627 9.15831 0.520752 8.91669 0.520752C8.67506 0.520752 8.47919 0.716627 8.47919 0.958252V1.84078C8.09111 1.83325 7.65612 1.83325 7.16669 1.83325H4.83335C4.34392 1.83325 3.90893 1.83325 3.52085 1.84078V0.958252Z" fill="#152C2A"/>
<path fill-rule="evenodd" clip-rule="evenodd" d="M0.166687 6.49992C0.166687 6.01048 0.166687 5.57549 0.174213 5.18742H11.8258C11.8334 5.57549 11.8334 6.01048 11.8334 6.49992V7.66658C11.8334 9.86647 11.8334 10.9664 11.1499 11.6498C10.4665 12.3333 9.36657 12.3333 7.16669 12.3333H4.83335C2.63347 12.3333 1.53352 12.3333 0.850105 11.6498C0.166687 10.9664 0.166687 9.86647 0.166687 7.66658V6.49992ZM8.91669 7.66658C9.23885 7.66658 9.50002 7.40542 9.50002 7.08325C9.50002 6.76109 9.23885 6.49992 8.91669 6.49992C8.59452 6.49992 8.33335 6.76109 8.33335 7.08325C8.33335 7.40542 8.59452 7.66658 8.91669 7.66658ZM8.91669 9.99992C9.23885 9.99992 9.50002 9.73875 9.50002 9.41658C9.50002 9.09442 9.23885 8.83325 8.91669 8.83325C8.59452 8.83325 8.33335 9.09442 8.33335 9.41658C8.33335 9.73875 8.59452 9.99992 8.91669 9.99992ZM6.58335 7.08325C6.58335 7.40542 6.32219 7.66658 6.00002 7.66658C5.67785 7.66658 5.41669 7.40542 5.41669 7.08325C5.41669 6.76109 5.67785 6.49992 6.00002 6.49992C6.32219 6.49992 6.58335 6.76109 6.58335 7.08325ZM6.58335 9.41658C6.58335 9.73875 6.32219 9.99992 6.00002 9.99992C5.67785 9.99992 5.41669 9.73875 5.41669 9.41658C5.41669 9.09442 5.67785 8.83325 6.00002 8.83325C6.32219 8.83325 6.58335 9.09442 6.58335 9.41658ZM3.08335 7.66658C3.40552 7.66658 3.66669 7.40542 3.66669 7.08325C3.66669 6.76109 3.40552 6.49992 3.08335 6.49992C2.76119 6.49992 2.50002 6.76109 2.50002 7.08325C2.50002 7.40542 2.76119 7.66658 3.08335 7.66658ZM3.08335 9.99992C3.40552 9.99992 3.66669 9.73875 3.66669 9.41658C3.66669 9.09442 3.40552 8.83325 3.08335 8.83325C2.76119 8.83325 2.50002 9.09442 2.50002 9.41658C2.50002 9.73875 2.76119 9.99992 3.08335 9.99992Z" fill="#152C2A"/>
</svg>
