<svg width="30" height="30" viewBox="0 0 30 30" fill="none" xmlns="http://www.w3.org/2000/svg">
<rect width="30" height="30" rx="10" fill="#E5F8F6"/>
<path fill-rule="evenodd" clip-rule="evenodd" d="M12.636 7.5C10.9295 7.5 9.54602 8.88344 9.54602 10.59V19.41C9.54602 21.1166 10.9295 22.5 12.636 22.5H15.3918C14.5203 21.576 13.986 20.3304 13.986 18.96C13.986 16.1102 16.2962 13.8 19.146 13.8C19.7342 13.8 20.2994 13.8984 20.826 14.0797V10.59C20.826 8.88344 19.4426 7.5 17.736 7.5H12.636Z" fill="#57CFC8"/>
<path fill-rule="evenodd" clip-rule="evenodd" d="M19.1461 22.4999C18.8961 22.4999 18.6521 22.474 18.4167 22.4247C16.8116 22.0885 15.6061 20.665 15.6061 18.9599C15.6061 17.0048 17.191 15.4199 19.1461 15.4199C19.7541 15.4199 20.3262 15.5732 20.8261 15.8432C21.9336 16.4415 22.6861 17.6128 22.6861 18.9599C22.6861 20.915 21.1012 22.4999 19.1461 22.4999Z" fill="#57CFC8"/>
<path d="M17.9175 18.7141C18.1409 18.5014 18.5032 18.5014 18.7266 18.7141L18.9588 18.9352L19.7734 18.1595C19.9968 17.9468 20.3591 17.9468 20.5825 18.1595C20.8058 18.3722 20.8058 18.7171 20.5825 18.9297L19.3633 20.0905C19.1398 20.3032 18.7776 20.3032 18.5543 20.0905L17.9175 19.4843C17.6942 19.2716 17.6942 18.9268 17.9175 18.7141Z" fill="white"/>
<path d="M12.546 9.30005C12.0986 9.30005 11.736 9.6627 11.736 10.11C11.736 10.5574 12.0986 10.92 12.546 10.92H16.686C17.1333 10.92 17.496 10.5574 17.496 10.11C17.496 9.6627 17.1333 9.30005 16.686 9.30005H12.546Z" fill="white"/>
<path d="M11.736 13.56C11.736 13.1127 12.0986 12.75 12.546 12.75H13.686C14.1333 12.75 14.496 13.1127 14.496 13.56C14.496 14.0074 14.1333 14.37 13.686 14.37H12.546C12.0986 14.37 11.736 14.0074 11.736 13.56Z" fill="white"/>
</svg>
