<svg width="16" height="18" viewBox="0 0 16 18" fill="none" xmlns="http://www.w3.org/2000/svg">
<path d="M4.95983 15.8682C5.66073 16.7591 6.76182 17.3333 8 17.3333C9.23819 17.3333 10.3393 16.7591 11.0402 15.8682C9.02203 16.1416 6.97798 16.1416 4.95983 15.8682Z" fill="#666C92"/>
<path d="M13.6243 6.49996V7.08671C13.6243 7.79087 13.8252 8.47927 14.2018 9.06517L15.1247 10.5009C15.9676 11.8123 15.3241 13.5949 13.858 14.0096C10.0227 15.0945 5.97728 15.0945 2.14197 14.0096C0.675872 13.5949 0.0323529 11.8123 0.875299 10.5009L1.79816 9.06517C2.17476 8.47927 2.37573 7.79087 2.37573 7.08671V6.49996C2.37573 3.2783 4.8938 0.666626 8 0.666626C11.1062 0.666626 13.6243 3.2783 13.6243 6.49996Z" fill="#666C92"/>
</svg>
