<svg width="10" height="10" viewBox="0 0 10 10" fill="none" xmlns="http://www.w3.org/2000/svg">
<g id="Bold / Like / Star">
<g clip-path="url(#clip0_1195_908)">
<path id="Vector" d="M3.81349 2.25353C4.34126 1.30676 4.60515 0.833374 4.99967 0.833374C5.3942 0.833374 5.65809 1.30676 6.18586 2.25353L6.3224 2.49847C6.47237 2.76751 6.54736 2.90203 6.66428 2.99079C6.7812 3.07955 6.92682 3.1125 7.21806 3.17839L7.4832 3.23839C8.50807 3.47027 9.0205 3.58622 9.14242 3.97826C9.26433 4.37031 8.91499 4.77882 8.2163 5.59584L8.03554 5.80722C7.837 6.03939 7.73773 6.15547 7.69307 6.29909C7.64841 6.4427 7.66341 6.59759 7.69343 6.90735L7.72076 7.18937C7.82639 8.27946 7.87921 8.8245 7.56003 9.0668C7.24085 9.3091 6.76106 9.08819 5.80148 8.64636L5.55322 8.53206C5.28054 8.4065 5.1442 8.34373 4.99967 8.34373C4.85515 8.34373 4.71881 8.4065 4.44613 8.53206L4.19787 8.64636C3.23829 9.08818 2.7585 9.3091 2.43932 9.0668C2.12014 8.8245 2.17296 8.27946 2.27859 7.18937L2.30592 6.90736C2.33594 6.59759 2.35094 6.4427 2.30628 6.29909C2.26162 6.15547 2.16235 6.03939 1.96381 5.80722L1.78305 5.59584C1.08436 4.77882 0.735018 4.37031 0.856933 3.97826C0.978848 3.58622 1.49128 3.47027 2.51615 3.23839L2.78129 3.17839C3.07253 3.1125 3.21815 3.07955 3.33507 2.99079C3.45199 2.90203 3.52698 2.76751 3.67695 2.49847L3.81349 2.25353Z" fill="#FFD101"/>
</g>
</g>
<defs>
<clipPath id="clip0_1195_908">
<rect width="10" height="10" rx="5" fill="white"/>
</clipPath>
</defs>
</svg>
