<svg width="24" height="24" viewBox="0 0 24 24" fill="none" xmlns="http://www.w3.org/2000/svg">
<g id="plus-small 1">
<path id="Vector" d="M19.5 9.5H14.5V4.5C14.5 3.83696 14.2366 3.20107 13.7678 2.73223C13.2989 2.26339 12.663 2 12 2C11.337 2 10.7011 2.26339 10.2322 2.73223C9.76339 3.20107 9.5 3.83696 9.5 4.5V9.5H4.5C3.83696 9.5 3.20107 9.76339 2.73223 10.2322C2.26339 10.7011 2 11.337 2 12C2 12.663 2.26339 13.2989 2.73223 13.7678C3.20107 14.2366 3.83696 14.5 4.5 14.5H9.5V19.5C9.5 20.163 9.76339 20.7989 10.2322 21.2678C10.7011 21.7366 11.337 22 12 22C12.663 22 13.2989 21.7366 13.7678 21.2678C14.2366 20.7989 14.5 20.163 14.5 19.5V14.5H19.5C20.163 14.5 20.7989 14.2366 21.2678 13.7678C21.7366 13.2989 22 12.663 22 12C22 11.337 21.7366 10.7011 21.2678 10.2322C20.7989 9.76339 20.163 9.5 19.5 9.5Z" fill="white"/>
</g>
</svg>
