<svg width="18" height="18" viewBox="0 0 18 18" fill="none" xmlns="http://www.w3.org/2000/svg">
<path d="M14 3.66667H12.966C12.798 2.17067 11.54 1 10 1H8C6.46 1 5.202 2.17067 5.034 3.66667H4C2.346 3.66667 1 5.01267 1 6.66667V14C1 15.654 2.346 17 4 17H14C15.654 17 17 15.654 17 14V6.66667C17 5.01267 15.654 3.66667 14 3.66667ZM8 1.66667H10C11.1733 1.66667 12.1473 2.53733 12.3093 3.66667H5.69067C5.85267 2.53733 6.82667 1.66667 8 1.66667ZM4 4.33333H14C15.2867 4.33333 16.3333 5.38 16.3333 6.66667V12.3333H1.66667V6.66667C1.66667 5.38 2.71333 4.33333 4 4.33333ZM14 16.3333H4C2.71333 16.3333 1.66667 15.2867 1.66667 14V13H5V14C5 14.184 5.14933 14.3333 5.33333 14.3333C5.51733 14.3333 5.66667 14.184 5.66667 14V13H12.3333V14C12.3333 14.184 12.4827 14.3333 12.6667 14.3333C12.8507 14.3333 13 14.184 13 14V13H16.3333V14C16.3333 15.2867 15.2867 16.3333 14 16.3333ZM7 8.33333C7 8.14933 7.14933 8 7.33333 8H8.66667V6.66667C8.66667 6.48267 8.816 6.33333 9 6.33333C9.184 6.33333 9.33333 6.48267 9.33333 6.66667V8H10.6667C10.8507 8 11 8.14933 11 8.33333C11 8.51733 10.8507 8.66667 10.6667 8.66667H9.33333V10C9.33333 10.184 9.184 10.3333 9 10.3333C8.816 10.3333 8.66667 10.184 8.66667 10V8.66667H7.33333C7.14933 8.66667 7 8.51733 7 8.33333Z" fill="#152C2A" stroke="#152C2A" stroke-width="0.5"/>
</svg>
