<svg width="30" height="30" viewBox="0 0 30 30" fill="none" xmlns="http://www.w3.org/2000/svg">
<rect width="30" height="30" rx="10" fill="#666C92"/>
<path d="M13.6876 15.0002C13.6876 14.2753 14.2752 13.6877 15.0001 13.6877C15.725 13.6877 16.3126 14.2753 16.3126 15.0002C16.3126 15.725 15.725 16.3127 15.0001 16.3127C14.2752 16.3127 13.6876 15.725 13.6876 15.0002Z" fill="white"/>
<path fill-rule="evenodd" clip-rule="evenodd" d="M9.16675 15.0002C9.16675 15.9565 9.41464 16.2785 9.91044 16.9226C10.9004 18.2088 12.5606 19.6668 15.0001 19.6668C17.4395 19.6668 19.0998 18.2088 20.0897 16.9226C20.5855 16.2785 20.8334 15.9565 20.8334 15.0002C20.8334 14.0439 20.5855 13.7218 20.0897 13.0777C19.0998 11.7916 17.4395 10.3335 15.0001 10.3335C12.5606 10.3335 10.9004 11.7916 9.91044 13.0777C9.41464 13.7218 9.16675 14.0439 9.16675 15.0002ZM15.0001 12.8127C13.792 12.8127 12.8126 13.792 12.8126 15.0002C12.8126 16.2083 13.792 17.1877 15.0001 17.1877C16.2082 17.1877 17.1876 16.2083 17.1876 15.0002C17.1876 13.792 16.2082 12.8127 15.0001 12.8127Z" fill="white"/>
</svg>
