<svg width="78" height="78" viewBox="0 0 78 78" fill="none" xmlns="http://www.w3.org/2000/svg">
<g id="fi_5628131" clip-path="url(#clip0_498_3550)">
<g id="Layer_51">
<path id="Vector" d="M43.99 70.2873V67.5788C43.99 67.5788 41.9292 65.5327 41.9292 62.5004L45.4178 35.9162C45.4914 35.2097 45.8447 34.562 46.3746 34.0909L46.4188 34.0615C47.773 32.8545 49.9368 33.0311 51.0408 34.4295L60.6382 44.9101C60.9768 45.3517 61.1682 45.911 61.1682 46.4704V70.2873" fill="#EFCDB1"/>
<path id="Vector_2" d="M51.806 5.60791V57.0688L19.4369 58.6144C18.0827 58.6733 16.9198 57.6723 16.8462 56.377V5.60791H51.806Z" fill="#E9CB6C"/>
<path id="Vector_3" d="M48.3322 39.287L20.2612 39.0073V10.4653H48.3322V39.287Z" fill="white"/>
<g id="Group">
<path id="Vector_4" d="M31.5662 16.1914H25.9727V21.785H31.5662V16.1914ZM30.3003 20.5191H27.2386V17.472H30.3003V20.5191Z" fill="#152C2A"/>
<path id="Vector_5" d="M37.4097 33.2225H43.0032V27.6289H37.4097V33.2225ZM38.6756 28.8948H41.7373V31.9566H38.6756V28.8948Z" fill="#152C2A"/>
<path id="Vector_6" d="M43.0032 16.1914H37.4097V21.785H43.0032V16.1914ZM41.7373 20.5191H38.6756V17.472H41.7373V20.5191Z" fill="#152C2A"/>
<path id="Vector_7" d="M25.9727 33.2225H31.5662V27.6289H25.9727V33.2225ZM27.2386 28.8948H30.3003V31.9566H27.2386V28.8948Z" fill="#152C2A"/>
<path id="Vector_8" d="M35.1134 17.6929V20.7252H33.8475V21.9911H32.5816V22.7712H33.8475V23.9783H32.5963H30.0498V22.7124H28.7839V23.9783H27.5032V25.2442H26.2373V26.5248H27.5032H30.0498H32.5963V25.2442H33.8622V24.0372H35.1134V22.7712V21.9911H36.3793V18.9588V17.6929H35.1134Z" fill="#152C2A"/>
<path id="Vector_9" d="M37.6603 24.0371H35.1138V26.5248H32.5967V29.0566H33.8479V31.5737H35.1138V32.8544H36.3797V31.5737V29.0419H35.1285V27.8496H36.3797L36.3944 25.3177H37.6603V24.0371Z" fill="#152C2A"/>
<path id="Vector_10" d="M41.4728 26.5837V25.3177H42.7387V24.0371H41.4728H38.9263V25.2H40.2069V26.5837H41.4728Z" fill="#152C2A"/>
<path id="Vector_11" d="M32.5669 31.5737H33.8328V32.8396H32.5669V31.5737Z" fill="#152C2A"/>
<path id="Vector_12" d="M24.4712 22.7712H25.7371V24.0372H24.4712V22.7712Z" fill="#152C2A"/>
<path id="Vector_13" d="M42.7383 22.7712H44.0042V24.0372H42.7383V22.7712Z" fill="#152C2A"/>
<path id="Vector_14" d="M32.5815 15.9265H33.8475V17.1924H32.5815V15.9265Z" fill="#152C2A"/>
<path id="Vector_15" d="M37.6602 22.7712H38.9261V24.0372H37.6602V22.7712Z" fill="#152C2A"/>
<path id="Vector_16" d="M33.8477 34.3115H35.1136V35.5774H33.8477V34.3115Z" fill="#152C2A"/>
<path id="Vector_17" d="M22.0864 22.0499H23.3818V13.527H32.0077V12.2317H22.0864V22.0499Z" fill="#152C2A"/>
<path id="Vector_18" d="M37.0273 12.1729V13.4682H45.5502V22.1088H46.8455V12.1729H37.0273Z" fill="#152C2A"/>
<path id="Vector_19" d="M46.8451 27.3345H45.5498V35.8573H36.9092V37.1527H46.8451V27.3345Z" fill="#152C2A"/>
<path id="Vector_20" d="M31.9046 37.2115V35.9162H23.3818V27.2903H22.0864V37.2115H31.9046Z" fill="#152C2A"/>
</g>
<path id="Vector_21" d="M16.8315 18.5024H51.8061V19.9744H16.8315V18.5024Z" fill="#F04930"/>
<path id="Vector_22" d="M51.8061 54.3308V58.4671C51.8061 61.2197 49.5687 63.4572 46.8161 63.4572H21.8363C19.0837 63.4572 16.8463 61.2197 16.8315 58.4671V54.3308H51.8061Z" fill="#152C2A"/>
<path id="Vector_23" d="M31.5957 58.3198H37.837V59.7918H31.5957V58.3198Z" fill="white"/>
<path id="Vector_24" d="M51.8061 5.50478V5.60782H16.8315V5.50478C16.8315 2.73743 19.069 0.5 21.8363 0.5H46.8161C49.5687 0.51472 51.8061 2.75215 51.8061 5.50478Z" fill="#152C2A"/>
<path id="Vector_25" d="M51.7621 66.1067C51.7621 66.1067 47.9937 63.0155 47.2725 59.1736C46.669 56.0089 47.8024 52.8735 47.8024 52.8735L42.7534 47.383C41.6495 46.2348 41.6642 44.4243 42.7829 43.3055C43.9016 42.1868 45.7122 42.1721 46.8456 43.2614L56.6049 52.8735" fill="#EFCDB1"/>
<path id="Vector_26" d="M56.605 53.6096C56.4137 53.6096 56.2223 53.536 56.0898 53.3888L52.0713 49.4291C51.7769 49.1494 51.7769 48.6931 52.0419 48.4134C52.0419 48.4134 52.0419 48.4134 52.0566 48.3987C52.3363 48.1043 52.8073 48.1043 53.1017 48.384L57.1202 52.3436C57.4146 52.6233 57.4146 53.0944 57.1202 53.3888C56.9878 53.536 56.7964 53.6096 56.605 53.6096Z" fill="#E5B591"/>
<path id="Vector_27" d="M51.7621 66.8427C51.6001 66.8427 51.4382 66.7838 51.3057 66.6808C51.1438 66.5483 47.3019 63.3688 46.5365 59.3061C45.9183 55.9794 47.0517 52.7704 47.1106 52.6232C47.2578 52.2405 47.6846 52.0639 48.0674 52.2111C48.4354 52.3583 48.612 52.7557 48.4942 53.1237C48.4795 53.1532 47.4344 56.1119 47.9938 59.0411C48.6562 62.5739 52.1889 65.5032 52.2331 65.5326C52.5422 65.7976 52.5864 66.2539 52.3361 66.5777C52.1889 66.7544 51.9829 66.8427 51.7621 66.8427Z" fill="#E5B591"/>
<path id="Vector_28" d="M43.9897 70.2871H61.1826V77.4999H43.9897V70.2871Z" fill="#152C2A"/>
</g>
</g>
<defs>
<clipPath id="clip0_498_3550">
<rect width="77" height="77" fill="white" transform="translate(0.5 0.5)"/>
</clipPath>
</defs>
</svg>
