<svg width="30" height="30" viewBox="0 0 30 30" fill="none" xmlns="http://www.w3.org/2000/svg">
<g id="fi_10326589">
<g id="Group">
<g id="Group_2">
<path id="Vector" fill-rule="evenodd" clip-rule="evenodd" d="M6 6.9C6 6.40295 6.40295 6 6.9 6H13.2C13.6971 6 14.1 6.40295 14.1 6.9V13.2C14.1 13.6971 13.6971 14.1 13.2 14.1H6.9C6.40295 14.1 6 13.6971 6 13.2V6.9ZM8.7 9.6C8.7 9.10295 9.10295 8.7 9.6 8.7H10.5C10.9971 8.7 11.4 9.10295 11.4 9.6V10.5C11.4 10.9971 10.9971 11.4 10.5 11.4H9.6C9.10295 11.4 8.7 10.9971 8.7 10.5V9.6Z" fill="#152C2A"/>
<path id="Vector_2" fill-rule="evenodd" clip-rule="evenodd" d="M6 16.7999C6 16.3028 6.40295 15.8999 6.9 15.8999H13.2C13.6971 15.8999 14.1 16.3028 14.1 16.7999V23.0999C14.1 23.597 13.6971 23.9999 13.2 23.9999H6.9C6.40295 23.9999 6 23.597 6 23.0999V16.7999ZM9.6 18.5999C9.10295 18.5999 8.7 19.0028 8.7 19.4999V20.3999C8.7 20.897 9.10295 21.2999 9.6 21.2999H10.5C10.9971 21.2999 11.4 20.897 11.4 20.3999V19.4999C11.4 19.0028 10.9971 18.5999 10.5 18.5999H9.6Z" fill="#152C2A"/>
<path id="Vector_3" fill-rule="evenodd" clip-rule="evenodd" d="M16.7999 6C16.3028 6 15.8999 6.40295 15.8999 6.9V13.2C15.8999 13.6971 16.3028 14.1 16.7999 14.1H23.0999C23.597 14.1 23.9999 13.6971 23.9999 13.2V6.9C23.9999 6.40295 23.597 6 23.0999 6H16.7999ZM18.5999 9.6C18.5999 9.10295 19.0028 8.7 19.4999 8.7H20.3999C20.897 8.7 21.2999 9.10295 21.2999 9.6V10.5C21.2999 10.9971 20.897 11.4 20.3999 11.4H19.4999C19.0028 11.4 18.5999 10.9971 18.5999 10.5V9.6Z" fill="#152C2A"/>
</g>
<path id="Vector_4" d="M16.7999 15.8999C16.3028 15.8999 15.8999 16.3028 15.8999 16.7999V17.6999C15.8999 18.197 16.3028 18.5999 16.7999 18.5999H17.6999V20.3999C17.6999 20.897 18.1028 21.2999 18.5999 21.2999H19.4999C19.997 21.2999 20.3999 20.897 20.3999 20.3999V18.5999C20.3999 18.1028 19.997 17.6999 19.4999 17.6999H18.5999V16.7999C18.5999 16.3028 18.197 15.8999 17.6999 15.8999H16.7999Z" fill="#152C2A"/>
<path id="Vector_5" d="M16.7999 21.3C16.3028 21.3 15.8999 21.703 15.8999 22.2V23.1C15.8999 23.5971 16.3028 24 16.7999 24H17.6999C18.197 24 18.5999 23.5971 18.5999 23.1V22.2C18.5999 21.703 18.197 21.3 17.6999 21.3H16.7999Z" fill="#152C2A"/>
<path id="Vector_6" d="M20.3999 16.7999C20.3999 16.3028 20.8028 15.8999 21.2999 15.8999H22.1999C22.697 15.8999 23.0999 16.3028 23.0999 16.7999V17.6999C23.0999 18.197 22.697 18.5999 22.1999 18.5999H21.2999C20.8028 18.5999 20.3999 18.197 20.3999 17.6999V16.7999Z" fill="#152C2A"/>
<path id="Vector_7" d="M21.2999 21.3C20.8028 21.3 20.3999 21.703 20.3999 22.2V23.1C20.3999 23.5971 20.8028 24 21.2999 24H22.1999C22.697 24 23.0999 23.5971 23.0999 23.1V22.2C23.0999 21.703 22.697 21.3 22.1999 21.3H21.2999Z" fill="#152C2A"/>
</g>
</g>
</svg>
