<svg width="25" height="24" viewBox="0 0 25 24" fill="none" xmlns="http://www.w3.org/2000/svg">
<path id="Vector" fill-rule="evenodd" clip-rule="evenodd" d="M4.67157 3.17157C3.5 4.34315 3.5 6.22876 3.5 10V14C3.5 17.7712 3.5 19.6569 4.67157 20.8284C5.84315 22 7.72876 22 11.5 22H13.5C17.2712 22 19.1569 22 20.3284 20.8284C21.5 19.6569 21.5 17.7712 21.5 14V10C21.5 6.22876 21.5 4.34315 20.3284 3.17157C19.1569 2 17.2712 2 13.5 2H11.5C7.72876 2 5.84315 2 4.67157 3.17157ZM13.25 6C13.25 5.58579 12.9142 5.25 12.5 5.25C12.0858 5.25 11.75 5.58579 11.75 6V7.25H10.5C10.0858 7.25 9.74997 7.58579 9.74997 8C9.74997 8.41421 10.0858 8.75 10.5 8.75H11.75L11.75 10C11.75 10.4142 12.0858 10.75 12.5 10.75C12.9142 10.75 13.25 10.4142 13.25 10L13.25 8.75L14.5 8.75C14.9142 8.75 15.25 8.41421 15.25 8C15.25 7.58579 14.9142 7.25 14.5 7.25H13.25V6ZM8.5 13.25C8.08579 13.25 7.75 13.5858 7.75 14C7.75 14.4142 8.08579 14.75 8.5 14.75H16.5C16.9142 14.75 17.25 14.4142 17.25 14C17.25 13.5858 16.9142 13.25 16.5 13.25H8.5ZM9.5 17.25C9.08579 17.25 8.75 17.5858 8.75 18C8.75 18.4142 9.08579 18.75 9.5 18.75H15.5C15.9142 18.75 16.25 18.4142 16.25 18C16.25 17.5858 15.9142 17.25 15.5 17.25H9.5Z" fill="#57CFC8"/>
</svg>
