<svg width="25" height="24" viewBox="0 0 25 24" fill="none" xmlns="http://www.w3.org/2000/svg">
<path id="Vector" fill-rule="evenodd" clip-rule="evenodd" d="M11.4436 1.25H13.5564C15.3942 1.24998 16.8498 1.24997 17.989 1.40314C19.1614 1.56076 20.1104 1.89288 20.8588 2.64124C21.6071 3.38961 21.9392 4.33856 22.0969 5.51098C22.25 6.65019 22.25 8.10583 22.25 9.94359V14.0564C22.25 15.8942 22.25 17.3498 22.0969 18.489C21.9392 19.6614 21.6071 20.6104 20.8588 21.3588C20.1104 22.1071 19.1614 22.4392 17.989 22.5969C16.8498 22.75 15.3942 22.75 13.5564 22.75H11.4436C9.60583 22.75 8.15019 22.75 7.01098 22.5969C5.83856 22.4392 4.88961 22.1071 4.14124 21.3588C3.39288 20.6104 3.06076 19.6614 2.90314 18.489C2.74997 17.3498 2.74998 15.8942 2.75 14.0564V9.94358C2.74998 8.10582 2.74997 6.65019 2.90314 5.51098C3.06076 4.33856 3.39288 3.38961 4.14124 2.64124C4.88961 1.89288 5.83856 1.56076 7.01098 1.40314C8.15019 1.24997 9.60582 1.24998 11.4436 1.25ZM7.21085 2.88976C6.20476 3.02502 5.62511 3.27869 5.2019 3.7019C4.77869 4.12511 4.52502 4.70476 4.38976 5.71085C4.25159 6.73851 4.25 8.09318 4.25 10V14C4.25 15.9068 4.25159 17.2615 4.38976 18.2892C4.52502 19.2952 4.77869 19.8749 5.2019 20.2981C5.62511 20.7213 6.20476 20.975 7.21085 21.1102C8.23851 21.2484 9.59318 21.25 11.5 21.25H13.5C15.4068 21.25 16.7615 21.2484 17.7892 21.1102C18.7952 20.975 19.3749 20.7213 19.7981 20.2981C20.2213 19.8749 20.475 19.2952 20.6102 18.2892C20.7484 17.2615 20.75 15.9068 20.75 14V10C20.75 8.09318 20.7484 6.73851 20.6102 5.71085C20.475 4.70476 20.2213 4.12511 19.7981 3.7019C19.3749 3.27869 18.7952 3.02502 17.7892 2.88976C16.7615 2.75159 15.4068 2.75 13.5 2.75H11.5C9.59318 2.75 8.23851 2.75159 7.21085 2.88976ZM12.5 5.25C12.9142 5.25 13.25 5.58579 13.25 6V7.25L14.5 7.25C14.9142 7.25 15.25 7.58579 15.25 8C15.25 8.41421 14.9142 8.75 14.5 8.75L13.25 8.75L13.25 10C13.25 10.4142 12.9142 10.75 12.5 10.75C12.0858 10.75 11.75 10.4142 11.75 10L11.75 8.75H10.5C10.0858 8.75 9.74997 8.41421 9.74997 8C9.74997 7.58579 10.0858 7.25 10.5 7.25H11.75V6C11.75 5.58579 12.0858 5.25 12.5 5.25ZM7.75 14C7.75 13.5858 8.08579 13.25 8.5 13.25H16.5C16.9142 13.25 17.25 13.5858 17.25 14C17.25 14.4142 16.9142 14.75 16.5 14.75H8.5C8.08579 14.75 7.75 14.4142 7.75 14ZM8.75 18C8.75 17.5858 9.08579 17.25 9.5 17.25H15.5C15.9142 17.25 16.25 17.5858 16.25 18C16.25 18.4142 15.9142 18.75 15.5 18.75H9.5C9.08579 18.75 8.75 18.4142 8.75 18Z" fill="#666C92"/>
</svg>
