<svg width="12" height="11" viewBox="0 0 12 11" fill="none" xmlns="http://www.w3.org/2000/svg">
<path d="M10.7958 3.64385L8.10625 0.954345C7.89521 0.743399 7.609 0.62493 7.31061 0.625C7.01222 0.62507 6.72607 0.743674 6.51513 0.95472C6.30418 1.16577 6.18571 1.45197 6.18578 1.75036C6.18585 2.04875 6.30445 2.3349 6.5155 2.54585L8.34475 4.3751H1.75C1.45163 4.3751 1.16548 4.49362 0.954505 4.7046C0.743526 4.91558 0.625 5.20173 0.625 5.5001C0.625 5.79846 0.743526 6.08461 0.954505 6.29559C1.16548 6.50657 1.45163 6.6251 1.75 6.6251H8.34475L6.5155 8.45435C6.30445 8.66529 6.18585 8.95144 6.18578 9.24983C6.18571 9.54823 6.30418 9.83442 6.51513 10.0455C6.72607 10.2565 7.01222 10.3751 7.31061 10.3752C7.609 10.3753 7.89521 10.2568 8.10625 10.0458L10.7958 7.35635C11.2872 6.86357 11.5631 6.19603 11.5631 5.5001C11.5631 4.80416 11.2872 4.13662 10.7958 3.64385Z" fill="#666C92"/>
</svg>
