<svg width="20" height="20" viewBox="0 0 20 20" fill="none" xmlns="http://www.w3.org/2000/svg">
<g id="Outline / Time / Stopwatch">
<path id="Vector" fill-rule="evenodd" clip-rule="evenodd" d="M7.70833 1.66669C7.70833 1.32151 7.98816 1.04169 8.33333 1.04169H11.6667C12.0118 1.04169 12.2917 1.32151 12.2917 1.66669C12.2917 2.01187 12.0118 2.29169 11.6667 2.29169H8.33333C7.98816 2.29169 7.70833 2.01187 7.70833 1.66669ZM10 3.95835C6.20304 3.95835 3.125 7.0364 3.125 10.8334C3.125 14.6303 6.20304 17.7084 10 17.7084C13.797 17.7084 16.875 14.6303 16.875 10.8334C16.875 7.0364 13.797 3.95835 10 3.95835ZM1.875 10.8334C1.875 6.34604 5.51269 2.70835 10 2.70835C14.4873 2.70835 18.125 6.34604 18.125 10.8334C18.125 15.3207 14.4873 18.9584 10 18.9584C5.51269 18.9584 1.875 15.3207 1.875 10.8334ZM10 6.87502C10.3452 6.87502 10.625 7.15484 10.625 7.50002V10.8334C10.625 11.1785 10.3452 11.4584 10 11.4584C9.65482 11.4584 9.375 11.1785 9.375 10.8334V7.50002C9.375 7.15484 9.65482 6.87502 10 6.87502Z" fill="#152C2A"/>
</g>
</svg>
