<svg width="24" height="24" viewBox="0 0 24 24" fill="none" xmlns="http://www.w3.org/2000/svg">
<g id="fi_9311549">
<g id="Group">
<path id="Vector" d="M20.1003 4.8C19.6028 4.8 19.2003 5.20302 19.2003 5.7V6.60315C17.5291 4.37979 14.8789 3 12.0003 3C7.76837 3 4.15865 5.87883 3.22265 10.0005C3.11276 10.4852 3.41687 10.9677 3.90116 11.0776C3.96884 11.093 4.03562 11.1 4.1015 11.1C4.51199 11.1 4.88369 10.8169 4.97864 10.3995C5.72663 7.10274 8.61473 4.8 12.0003 4.8C14.5964 4.8 16.9517 6.20895 18.2231 8.4H16.5003C16.0028 8.4 15.6003 8.80302 15.6003 9.3C15.6003 9.79698 16.0028 10.2 16.5003 10.2H20.1003C20.5977 10.2 21.0003 9.79698 21.0003 9.3V5.7C21.0003 5.20302 20.5977 4.8 20.1003 4.8Z" fill="#152C2A"/>
<path id="Vector_2" d="M3.9 19.2C4.39743 19.2 4.8 18.7969 4.8 18.3V17.3773C6.48012 19.6365 9.10938 21 12 21C16.2319 21 19.8416 18.1211 20.7776 13.9995C20.8875 13.5148 20.5834 13.0323 20.0991 12.9224C19.6096 12.8094 19.1314 13.1157 19.0215 13.6004C18.2736 16.8972 15.3855 19.2 12 19.2C9.40296 19.2 7.0698 17.8252 5.78271 15.6H7.5C7.99743 15.6 8.4 15.1969 8.4 14.7C8.4 14.203 7.99743 13.8 7.5 13.8H3.9C3.40257 13.8 3 14.203 3 14.7V18.3C3 18.7969 3.40257 19.2 3.9 19.2Z" fill="#152C2A"/>
</g>
</g>
</svg>
