<svg width="14" height="14" viewBox="0 0 14 14" fill="none" xmlns="http://www.w3.org/2000/svg">
<g id="Outline / Essentional, UI / Trash Bin 2">
<g id="Vector">
<path fill-rule="evenodd" clip-rule="evenodd" d="M2.98467 4.52182C3.22576 4.50575 3.43423 4.68816 3.45031 4.92925L3.71861 8.95374C3.77102 9.73998 3.80837 10.287 3.89037 10.6987C3.96991 11.0979 4.08093 11.3093 4.24043 11.4585C4.39992 11.6077 4.61817 11.7044 5.02184 11.7572C5.43799 11.8116 5.98633 11.8125 6.77432 11.8125H7.22545C8.01344 11.8125 8.56178 11.8116 8.97793 11.7572C9.3816 11.7044 9.59986 11.6077 9.75935 11.4585C9.91884 11.3093 10.0299 11.0979 10.1094 10.6987C10.1914 10.287 10.2288 9.73998 10.2812 8.95374L10.5495 4.92925C10.5655 4.68816 10.774 4.50575 11.0151 4.52182C11.2562 4.5379 11.4386 4.74637 11.4225 4.98746L11.1522 9.04265C11.1023 9.79091 11.062 10.3953 10.9675 10.8696C10.8693 11.3627 10.7022 11.7746 10.3571 12.0974C10.012 12.4203 9.58997 12.5596 9.09142 12.6248C8.6119 12.6875 8.00614 12.6875 7.25621 12.6875H6.74356C5.99363 12.6875 5.38787 12.6875 4.90835 12.6248C4.40981 12.5596 3.98774 12.4203 3.64264 12.0974C3.29754 11.7746 3.13046 11.3627 3.03223 10.8696C2.93775 10.3953 2.89746 9.7909 2.84759 9.04264L2.57724 4.98746C2.56117 4.74637 2.74358 4.5379 2.98467 4.52182Z" fill="#FF4E00"/>
<path fill-rule="evenodd" clip-rule="evenodd" d="M6.04046 1.31252L6.01363 1.31251C5.8874 1.31243 5.77743 1.31236 5.67359 1.32894C5.26333 1.39445 4.90831 1.65034 4.71643 2.01882C4.66786 2.1121 4.63315 2.21645 4.59331 2.33623L4.58484 2.36167L4.5282 2.53157C4.51713 2.56481 4.51404 2.57397 4.51135 2.58139C4.4092 2.86379 4.14435 3.05468 3.84414 3.06229C3.83625 3.06249 3.82658 3.06252 3.79155 3.06252H2.0415C1.79988 3.06252 1.604 3.2584 1.604 3.50002C1.604 3.74165 1.79988 3.93752 2.0415 3.93752L3.79655 3.93752L3.80631 3.93752H10.1935L10.2032 3.93752L11.9582 3.93752C12.1998 3.93752 12.3957 3.74165 12.3957 3.50002C12.3957 3.2584 12.1998 3.06252 11.9582 3.06252H10.2082C10.1732 3.06252 10.1635 3.06249 10.1556 3.06229C9.85542 3.05468 9.59057 2.86378 9.48842 2.58138C9.48575 2.574 9.48259 2.56464 9.47157 2.53157L9.41494 2.36167L9.40646 2.33622C9.36662 2.21644 9.33191 2.11209 9.28334 2.01882C9.09146 1.65034 8.73644 1.39445 8.32619 1.32894C8.22234 1.31236 8.11237 1.31243 7.98614 1.31251L7.95932 1.31252H6.04046ZM5.33417 2.87903C5.31127 2.94236 5.28464 3.00359 5.25459 3.06252H8.74518C8.71513 3.0036 8.68851 2.94237 8.6656 2.87904L8.64302 2.81292L8.58484 2.63837C8.53165 2.47882 8.51941 2.44628 8.50726 2.42296C8.4433 2.30013 8.32496 2.21483 8.18821 2.193C8.16224 2.18885 8.1275 2.18752 7.95932 2.18752H6.04046C5.87227 2.18752 5.83754 2.18885 5.81156 2.193C5.67481 2.21483 5.55647 2.30013 5.49251 2.42296C5.48036 2.44628 5.46812 2.47883 5.41493 2.63837L5.35672 2.81303C5.34795 2.83933 5.34113 2.8598 5.33417 2.87903Z" fill="#FF4E00"/>
</g>
</g>
</svg>
