<svg width="30" height="36" viewBox="0 0 30 36" fill="none" xmlns="http://www.w3.org/2000/svg">
<g id="add-user-female 1">
<path id="Vector" d="M0.512207 35.5C0.780207 29.941 5.49421 25.5 11.2502 25.5H18.7502C24.5062 25.5 29.2202 29.941 29.4882 35.5H0.512207Z" fill="#B6DCFE"/>
<path id="Vector_2" d="M18.75 26C24.056 26 28.433 29.954 28.949 35H1.051C1.567 29.954 5.944 26 11.25 26H18.75ZM18.75 25H11.25C5.037 25 0 29.925 0 36H30C30 29.925 24.963 25 18.75 25Z" fill="#4788C7"/>
<path id="Vector_3" d="M15 28.5C11.924 28.5 10.704 25.875 10.5 25.378V19.909H19.5V25.378C19.296 25.875 18.076 28.5 15 28.5Z" fill="white"/>
<path id="Vector_4" d="M19 20.41V25.275C18.737 25.865 17.607 28 15 28C12.389 28 11.259 25.859 11 25.275V20.41H19ZM20 19.41H10V25.472C10 25.472 11.267 29.001 15 29.001C18.733 29.001 20 25.472 20 25.472V19.41Z" fill="#4788C7"/>
<path id="Vector_5" d="M15 24.5C14.396 24.5 13.829 24.282 13.359 23.869L13.269 23.79L13.152 23.761C9.824 22.916 7.5 19.931 7.5 16.5V7.201C7.5 5.375 8.986 3.888 10.812 3.888H19.187C21.014 3.888 22.5 5.374 22.5 7.201V16.5C22.5 19.931 20.176 22.916 16.848 23.761L16.731 23.79L16.641 23.869C16.171 24.282 15.604 24.5 15 24.5Z" fill="white"/>
<path id="Vector_6" d="M19.187 4.38898C20.738 4.38898 22 5.65098 22 7.20198V16.5C22 19.701 19.831 22.487 16.725 23.276L16.492 23.335L16.311 23.494C16.048 23.725 15.608 24 15 24C14.392 24 13.952 23.725 13.689 23.494L13.508 23.335L13.275 23.276C10.169 22.487 8 19.701 8 16.5V7.20198C8 5.65098 9.262 4.38898 10.813 4.38898H19.187ZM19.187 3.38898H10.812C8.707 3.38898 7 5.09598 7 7.20198V16.5C7 20.237 9.566 23.366 13.029 24.245C13.557 24.709 14.242 25 15 25C15.758 25 16.443 24.709 16.971 24.245C20.434 23.366 23 20.237 23 16.5V7.20198C23 5.09598 21.293 3.38898 19.187 3.38898Z" fill="#4788C7"/>
<path id="Vector_7" d="M22.9998 24.5C21.2328 24.5 19.5888 23.589 18.7298 23.016C19.7748 22.358 21.4998 20.793 21.4998 17.643V12.919C21.4998 10.509 19.4138 8.696 19.3248 8.62L18.8948 8.252L18.5818 8.725C18.5608 8.757 16.4468 11.881 11.9308 12.505C9.57384 12.83 8.49984 14.614 8.49984 16.134V17.643C8.49984 20.836 10.2078 22.377 11.2568 23.024C10.3978 23.597 8.76384 24.5 6.99984 24.5C5.21384 24.5 3.62184 23.565 2.83984 23.016C3.72184 22.321 5.28484 20.776 5.28484 18.572C5.28484 17.644 5.10884 16.663 4.92284 15.624C4.71484 14.463 4.49984 13.263 4.49984 12C4.49984 3.512 9.88684 0.5 14.4998 0.5C18.3018 0.5 19.5308 3.176 19.5428 3.202L19.6738 3.5H19.9998C23.4948 3.5 25.4998 6.233 25.4998 11C25.4998 12.342 25.2318 13.836 24.9718 15.281C24.7288 16.634 24.4998 17.912 24.4998 19C24.4998 20.845 25.9588 21.852 27.1418 22.281C26.4338 23.092 24.9278 24.5 22.9998 24.5Z" fill="#B6DCFE"/>
<path id="Vector_8" d="M14.5 1C17.927 1 19.043 3.315 19.086 3.405L19.349 4H20C23.224 4 25 6.486 25 11C25 12.298 24.736 13.769 24.48 15.193C24.233 16.569 24 17.868 24 19C24 20.764 25.141 21.855 26.289 22.45C25.545 23.165 24.38 24 23 24C21.726 24 20.503 23.476 19.643 22.99C20.732 22.107 22 20.472 22 17.643V12.919C22 10.281 19.746 8.323 19.65 8.241L18.792 7.513L18.166 8.449C18.085 8.57 16.136 11.42 11.863 12.01C9.209 12.376 8 14.404 8 16.133V17.642C8 20.505 9.254 22.131 10.342 23.003C9.491 23.486 8.282 24 7 24C5.687 24 4.475 23.444 3.669 22.959C4.611 22.079 5.786 20.58 5.786 18.571C5.786 17.599 5.606 16.596 5.416 15.535C5.211 14.396 5 13.218 5 12C5 3.881 10.118 1 14.5 1ZM14.5 0C9.212 0 4 3.694 4 12C4 14.454 4.786 16.682 4.786 18.571C4.786 21.327 2 23 2 23C2 23 4.254 25 7 25C9.794 25 12.211 22.944 12.211 22.944C12.211 22.944 9 21.918 9 17.643C9 17.03 9 17.083 9 16.134C9 14.78 9.942 13.285 12 13C16.816 12.335 19 9 19 9C19 9 21 10.711 21 12.919C21 13.963 21 15.928 21 17.643C21 21.837 17.786 22.945 17.786 22.945C17.786 22.945 20.225 25 23 25C26.005 25 28 22 28 22C28 22 25 21.465 25 19C25 16.81 26 13.648 26 11C26 5.239 23.234 3 20 3C20 3 18.672 0 14.5 0Z" fill="#4788C7"/>
</g>
</svg>
