<svg width="31" height="36" viewBox="0 0 31 36" fill="none" xmlns="http://www.w3.org/2000/svg">
<g id="add-user-male 1">
<path id="Vector" d="M0.526367 35.4857C0.803053 29.7679 5.65071 25.2 11.5712 25.2H19.2855C25.2059 25.2 30.0546 29.7679 30.3303 35.4857H0.526367Z" fill="#B6DCFE"/>
<path id="Vector_2" d="M19.2857 25.7143C24.7433 25.7143 29.2454 29.7813 29.7761 34.9714H1.08103C1.61177 29.7813 6.11383 25.7143 11.5714 25.7143H19.2857ZM19.2857 24.6857H11.5714C5.18091 24.6857 0 29.7514 0 36H30.8571C30.8571 29.7514 25.6762 24.6857 19.2857 24.6857Z" fill="#4788C7"/>
<path id="Vector_3" d="M15.4284 28.2857C12.2655 28.2857 11.0086 25.5857 10.7998 25.0735V19.4503H20.0569V25.0745C19.8481 25.5857 18.5912 28.2857 15.4284 28.2857Z" fill="white"/>
<path id="Vector_4" d="M19.5428 19.9646V24.9686C19.2723 25.5755 18.11 27.7715 15.4285 27.7715C12.7429 27.7715 11.5806 25.5693 11.3142 24.9686V19.9646H19.5428ZM20.5714 18.936H10.2856V25.1712C10.2856 25.1712 11.5888 28.8011 15.4285 28.8011C19.2682 28.8011 20.5714 25.1712 20.5714 25.1712V18.936Z" fill="#4788C7"/>
<path id="Vector_5" d="M22.0411 17.1185C20.8654 17.1185 19.9109 16.163 19.9109 14.9883C19.9109 13.8137 20.8665 12.8582 22.0411 12.8582C23.8154 12.8582 24.1713 13.3364 24.1713 14.1068C24.1713 15.3936 23.118 17.1185 22.0411 17.1185ZM8.81572 17.1185C7.7388 17.1185 6.68555 15.3936 6.68555 14.1068C6.68555 13.3354 7.04246 12.8582 8.81572 12.8582C9.99138 12.8582 10.9459 13.8137 10.9459 14.9883C10.9459 16.163 9.99138 17.1185 8.81572 17.1185Z" fill="#DFF0FE"/>
<path id="Vector_6" d="M22.0412 13.3714C23.6571 13.3714 23.6571 13.7448 23.6571 14.1058C23.6571 15.1796 22.7355 16.6042 22.0412 16.6042C21.1494 16.6042 20.4253 15.8791 20.4253 14.9883C20.4253 14.0976 21.1494 13.3714 22.0412 13.3714ZM8.81584 13.3714C9.70762 13.3714 10.4317 14.0965 10.4317 14.9873C10.4317 15.878 9.70659 16.6032 8.81584 16.6032C8.12156 16.6042 7.19996 15.1796 7.19996 14.1058C7.19996 13.7448 7.19996 13.3714 8.81584 13.3714ZM22.0412 12.3428C20.5806 12.3428 19.3968 13.5267 19.3968 14.9873C19.3968 16.4479 20.5806 17.6317 22.0412 17.6317C23.5018 17.6317 24.6857 15.5664 24.6857 14.1058C24.6857 12.6452 23.5018 12.3428 22.0412 12.3428ZM8.81584 12.3428C7.35527 12.3428 6.17139 12.6452 6.17139 14.1058C6.17139 15.5664 7.35527 17.6328 8.81584 17.6328C10.2764 17.6328 11.4603 16.4489 11.4603 14.9883C11.4603 13.5277 10.2774 12.3428 8.81584 12.3428Z" fill="#4788C7"/>
<path id="Vector_7" d="M15.4284 24.1714C14.8318 24.1714 14.262 23.941 13.8238 23.5224L13.7312 23.4339L13.6078 23.3989C10.7432 22.5884 8.74268 19.946 8.74268 16.9704V8.60294C8.74268 6.99426 10.051 5.68591 11.6597 5.68591H19.1971C20.8047 5.68591 22.1141 6.99426 22.1141 8.60294V16.9714C22.1141 19.946 20.1135 22.5895 17.249 23.4L17.1255 23.4349L17.033 23.5234C16.5948 23.941 16.025 24.1714 15.4284 24.1714Z" fill="white"/>
<path id="Vector_8" d="M19.1972 6.2002C20.522 6.2002 21.5999 7.27815 21.5999 8.60295V16.9714C21.5999 19.7177 19.7526 22.1575 17.1082 22.9042L16.8623 22.9741L16.6772 23.1511C16.3357 23.4771 15.8924 23.6571 15.4285 23.6571C14.9646 23.6571 14.5213 23.4771 14.1788 23.1511L13.9937 22.9741L13.7478 22.9042C11.1044 22.1575 9.25709 19.7177 9.25709 16.9714V8.60295C9.25709 7.27815 10.335 6.2002 11.6598 6.2002H19.1972ZM19.1972 5.17163H11.6598C9.7652 5.17163 8.22852 6.70729 8.22852 8.60295V16.9714C8.22852 20.268 10.4461 23.04 13.4691 23.8947C13.9793 24.3823 14.6674 24.6857 15.4285 24.6857C16.1897 24.6857 16.8778 24.3823 17.3879 23.8947C20.4109 23.04 22.6285 20.268 22.6285 16.9714V8.60295C22.6285 6.70729 21.0918 5.17163 19.1972 5.17163Z" fill="#4788C7"/>
<g id="Group">
<path id="Vector_9" d="M22.1141 14.9143V11.3143C22.1141 7.73177 19.8327 6.76285 19.7361 6.72377L19.3833 6.5808L19.1426 6.87702C19.1199 6.9048 16.7481 9.77142 13.3713 9.77142C13.0997 9.77142 12.8271 9.76217 12.5577 9.75394C12.2851 9.74571 12.0177 9.73645 11.7585 9.73645C10.8554 9.73645 8.74269 9.73645 8.74269 12.3429V14.9143H8.52155C8.06898 14.1192 6.68555 11.4696 6.68555 8.82102C6.68555 3.93017 10.2804 0.514282 15.4284 0.514282C18.6118 0.514282 20.1012 3.29554 20.1156 3.32331L20.238 3.5568L20.4982 3.59485C22.075 3.82011 24.1713 4.65325 24.1713 9.25714C24.1713 11.6527 22.795 14.1542 22.3425 14.9143H22.1141Z" fill="#B6DCFE"/>
<path id="Vector_10" d="M15.4285 1.02857C18.2694 1.02857 19.6066 3.4632 19.659 3.56194L19.9028 4.02891L20.4243 4.104C21.9301 4.31897 23.6571 5.09966 23.6571 9.25714C23.6571 10.692 23.1274 12.1803 22.6285 13.2624V11.3143C22.6285 7.38926 20.0406 6.29177 19.9306 6.24754L19.224 5.96057L18.7436 6.55406C18.721 6.57977 16.5188 9.25714 13.3714 9.25714C13.105 9.25714 12.8376 9.24891 12.5742 9.23966C12.2965 9.2304 12.0229 9.22217 11.7576 9.22217C10.8843 9.22217 8.22853 9.22217 8.22853 12.3429V13.1729C7.72864 12.0189 7.19996 10.4205 7.19996 8.82206C7.19996 4.23257 10.584 1.02857 15.4285 1.02857ZM15.4285 0C9.91539 0 6.17139 3.77177 6.17139 8.82103C6.17139 12.1659 8.22853 15.4286 8.22853 15.4286H9.2571C9.2571 15.4286 9.2571 13.2634 9.2571 12.3429C9.2571 10.5007 10.3731 10.2507 11.7576 10.2507C12.2729 10.2507 12.8252 10.2857 13.3714 10.2857C17.0465 10.2857 19.5428 7.2 19.5428 7.2C19.5428 7.2 21.6 8.03623 21.6 11.3143C21.6 12.3264 21.6 15.4286 21.6 15.4286H22.6285C22.6285 15.4286 24.6857 12.3048 24.6857 9.25714C24.6857 4.97726 22.934 3.42411 20.5714 3.08571C20.5714 3.08571 18.9606 0 15.4285 0Z" fill="#4788C7"/>
</g>
</g>
</svg>
