<svg width="20" height="20" viewBox="0 0 20 20" fill="none" xmlns="http://www.w3.org/2000/svg">
<g id="Outline / Users / Users Group Two Rounded">
<g id="Vector">
<path fill-rule="evenodd" clip-rule="evenodd" d="M9.99992 1.04169C7.81379 1.04169 6.04158 2.81389 6.04158 5.00002C6.04158 7.18615 7.81379 8.95835 9.99992 8.95835C12.186 8.95835 13.9583 7.18615 13.9583 5.00002C13.9583 2.81389 12.186 1.04169 9.99992 1.04169ZM7.29158 5.00002C7.29158 3.50425 8.50415 2.29169 9.99992 2.29169C11.4957 2.29169 12.7083 3.50425 12.7083 5.00002C12.7083 6.49579 11.4957 7.70835 9.99992 7.70835C8.50415 7.70835 7.29158 6.49579 7.29158 5.00002Z" fill="#152C2A"/>
<path d="M14.9999 2.70835C14.6547 2.70835 14.3749 2.98818 14.3749 3.33335C14.3749 3.67853 14.6547 3.95835 14.9999 3.95835C16.147 3.95835 16.8749 4.71313 16.8749 5.41669C16.8749 6.12024 16.147 6.87502 14.9999 6.87502C14.6547 6.87502 14.3749 7.15484 14.3749 7.50002C14.3749 7.8452 14.6547 8.12502 14.9999 8.12502C16.6143 8.12502 18.1249 7.01432 18.1249 5.41669C18.1249 3.81906 16.6143 2.70835 14.9999 2.70835Z" fill="#152C2A"/>
<path d="M5.62492 3.33335C5.62492 2.98818 5.3451 2.70835 4.99992 2.70835C3.38557 2.70835 1.87492 3.81906 1.87492 5.41669C1.87492 7.01432 3.38557 8.12502 4.99992 8.12502C5.3451 8.12502 5.62492 7.8452 5.62492 7.50002C5.62492 7.15484 5.3451 6.87502 4.99992 6.87502C3.85285 6.87502 3.12492 6.12024 3.12492 5.41669C3.12492 4.71313 3.85285 3.95835 4.99992 3.95835C5.3451 3.95835 5.62492 3.67853 5.62492 3.33335Z" fill="#152C2A"/>
<path fill-rule="evenodd" clip-rule="evenodd" d="M9.99992 10.2084C8.51303 10.2084 7.13863 10.609 6.1177 11.2896C5.10113 11.9673 4.37492 12.9722 4.37492 14.1667C4.37492 15.3612 5.10113 16.366 6.1177 17.0437C7.13863 17.7244 8.51303 18.125 9.99992 18.125C11.4868 18.125 12.8612 17.7244 13.8821 17.0437C14.8987 16.366 15.6249 15.3612 15.6249 14.1667C15.6249 12.9722 14.8987 11.9673 13.8821 11.2896C12.8612 10.609 11.4868 10.2084 9.99992 10.2084ZM5.62492 14.1667C5.62492 13.5202 6.01799 12.8584 6.81107 12.3297C7.59979 11.8039 8.72539 11.4584 9.99992 11.4584C11.2744 11.4584 12.4001 11.8039 13.1888 12.3297C13.9818 12.8584 14.3749 13.5202 14.3749 14.1667C14.3749 14.8132 13.9818 15.475 13.1888 16.0037C12.4001 16.5295 11.2744 16.875 9.99992 16.875C8.72539 16.875 7.59979 16.5295 6.81107 16.0037C6.01799 15.475 5.62492 14.8132 5.62492 14.1667Z" fill="#152C2A"/>
<path d="M16.0561 11.5328C16.13 11.1956 16.4633 10.9823 16.8005 11.0562C17.602 11.232 18.3243 11.5495 18.8606 11.9883C19.3964 12.4267 19.7916 13.0294 19.7916 13.75C19.7916 14.4707 19.3964 15.0733 18.8606 15.5118C18.3243 15.9506 17.602 16.2681 16.8005 16.4438C16.4633 16.5178 16.13 16.3044 16.0561 15.9672C15.9822 15.6301 16.1955 15.2968 16.5327 15.2229C17.193 15.0781 17.7207 14.8293 18.069 14.5444C18.4177 14.259 18.5416 13.9803 18.5416 13.75C18.5416 13.5198 18.4177 13.2411 18.069 12.9557C17.7207 12.6707 17.193 12.422 16.5327 12.2772C16.1955 12.2032 15.9822 11.87 16.0561 11.5328Z" fill="#152C2A"/>
<path d="M3.19937 11.0562C3.53654 10.9823 3.86981 11.1956 3.94374 11.5328C4.01768 11.87 3.8043 12.2032 3.46713 12.2772C2.80683 12.422 2.27913 12.6707 1.93085 12.9557C1.58211 13.2411 1.45825 13.5198 1.45825 13.75C1.45825 13.9803 1.58211 14.259 1.93085 14.5444C2.27913 14.8293 2.80683 15.0781 3.46713 15.2229C3.8043 15.2968 4.01768 15.6301 3.94374 15.9672C3.86981 16.3044 3.53654 16.5178 3.19937 16.4438C2.39781 16.2681 1.6755 15.9506 1.13925 15.5118C0.603459 15.0733 0.208252 14.4707 0.208252 13.75C0.208252 13.0294 0.603459 12.4267 1.13925 11.9883C1.6755 11.5495 2.39781 11.232 3.19937 11.0562Z" fill="#152C2A"/>
</g>
</g>
</svg>
