<svg width="19" height="19" viewBox="0 0 19 19" fill="none" xmlns="http://www.w3.org/2000/svg">
<g id="Bold / Video, Audio, Sound / Videocamera">
<g id="Vector">
<path d="M2 9.125V9.875C2 12.3406 2 13.5734 2.68097 14.4032C2.80563 14.5551 2.94492 14.6944 3.09682 14.819C3.92658 15.5 5.15939 15.5 7.625 15.5C10.0906 15.5 11.3234 15.5 12.1532 14.819C12.3051 14.6944 12.4444 14.5551 12.569 14.4032C13.0952 13.762 13.2148 12.8802 13.242 11.375L13.7438 11.6219C15.2032 12.3516 15.9329 12.7164 16.4664 12.3867C17 12.0569 17 11.2411 17 9.60942V9.39058C17 7.7589 17 6.94306 16.4664 6.61331C15.9329 6.28355 15.2032 6.64841 13.7438 7.37812L13.242 7.62502C13.2148 6.11977 13.0952 5.23798 12.569 4.59682C12.4444 4.44492 12.3051 4.30563 12.1532 4.18097C11.3234 3.5 10.0906 3.5 7.625 3.5C5.15939 3.5 3.92658 3.5 3.09682 4.18097C2.94492 4.30563 2.80563 4.44492 2.68097 4.59682C2 5.42658 2 6.65939 2 9.125Z" fill="white"/>
</g>
</g>
</svg>
