<svg width="24" height="24" viewBox="0 0 24 24" fill="none" xmlns="http://www.w3.org/2000/svg">
<g id="Outline / Video, Audio, Sound / Volume Small">
<g id="Vector">
<path fill-rule="evenodd" clip-rule="evenodd" d="M12.1402 4.90972C11.426 5.25668 10.5209 5.85157 9.2311 6.70199L9.01216 6.84635C8.9955 6.85734 8.97905 6.86818 8.96283 6.87889C8.58263 7.12968 8.31931 7.30337 8.03077 7.43071C7.74641 7.55621 7.44756 7.64586 7.14108 7.69762C6.83009 7.75014 6.51464 7.75007 6.05918 7.74998C6.03974 7.74998 6.02004 7.74997 6.00008 7.74997C4.55641 7.74997 4.06911 7.76625 3.6548 7.95794C3.25445 8.14317 2.82804 8.54437 2.6188 8.93272C2.40052 9.33783 2.36045 9.75303 2.2834 11.0172C2.26225 11.3642 2.25 11.6968 2.25 12C2.25 12.3032 2.26225 12.6358 2.2834 12.9827C2.36045 14.2469 2.40052 14.6621 2.6188 15.0672C2.82804 15.4556 3.25445 15.8568 3.6548 16.042C4.06911 16.2337 4.55641 16.25 6.00008 16.25C6.02004 16.25 6.03973 16.25 6.05917 16.25C6.51464 16.2499 6.83009 16.2498 7.14108 16.3023C7.44756 16.3541 7.74641 16.4437 8.03077 16.5692C8.31931 16.6966 8.58263 16.8703 8.96282 17.1211C8.97905 17.1318 8.99549 17.1426 9.01216 17.1536L9.2311 17.2979C10.5209 18.1484 11.426 18.7433 12.1402 19.0902C12.8525 19.4362 13.2087 19.4501 13.4578 19.3651C13.5952 19.3182 13.7297 19.2498 13.8485 19.1663C14.0651 19.0141 14.2626 18.7195 14.4015 17.9481C14.541 17.1732 14.5924 16.1013 14.6635 14.5705C14.7156 13.451 14.75 12.5117 14.75 12C14.75 11.4882 14.7156 10.549 14.6635 9.4294C14.5924 7.89865 14.541 6.82671 14.4015 6.05182C14.2626 5.28046 14.0651 4.98589 13.8485 4.83364C13.7297 4.75017 13.5952 4.68175 13.4578 4.63486C13.2087 4.54983 12.8525 4.5637 12.1402 4.90972ZM11.4848 3.56049C12.3108 3.15922 13.1241 2.93604 13.9423 3.21525C14.2142 3.30803 14.4759 3.44122 14.7109 3.60639C15.417 4.1026 15.7159 4.88661 15.8778 5.78606C16.037 6.67042 16.0914 7.84236 16.1592 9.30226L16.1619 9.35977C16.2137 10.4747 16.25 11.448 16.25 12C16.25 12.552 16.2137 13.5252 16.1619 14.6402L16.1592 14.6977C16.0914 16.1576 16.037 17.3295 15.8778 18.2139C15.7159 19.1133 15.417 19.8973 14.7109 20.3935C14.4759 20.5587 14.2142 20.6919 13.9423 20.7847C13.1241 21.0639 12.3108 20.8407 11.4848 20.4395C10.6712 20.0442 9.68413 19.3934 8.45327 18.5818L8.18647 18.4059C7.73856 18.1106 7.58448 18.0119 7.42513 17.9415C7.25452 17.8662 7.0752 17.8124 6.89132 17.7814C6.71956 17.7524 6.5366 17.75 6.00008 17.75C5.94569 17.75 5.89203 17.75 5.83907 17.75C4.62215 17.7507 3.77659 17.7511 3.02496 17.4034C2.33016 17.0819 1.66141 16.4527 1.29828 15.7787C0.905663 15.05 0.859593 14.288 0.794087 13.2045C0.791489 13.1615 0.788861 13.118 0.786179 13.074C0.763733 12.7057 0.75 12.3415 0.75 12C0.75 11.6584 0.763733 11.2942 0.786179 10.9259C0.788861 10.8819 0.791489 10.8385 0.794087 10.7955C0.859593 9.71194 0.905663 8.9499 1.29828 8.22122C1.66141 7.54726 2.33016 6.91804 3.02496 6.59658C3.77659 6.24883 4.62215 6.24927 5.83906 6.24991C5.89203 6.24994 5.94569 6.24997 6.00008 6.24997C6.5366 6.24997 6.71956 6.24756 6.89132 6.21856C7.0752 6.18751 7.25452 6.13371 7.42513 6.05842C7.58448 5.98809 7.73856 5.88938 8.18647 5.59405L8.45328 5.41814C9.68414 4.60656 10.6712 3.9557 11.4848 3.56049Z" fill="#152C2A"/>
<path d="M18.6563 8.63705C18.4552 8.27496 17.9979 8.14319 17.6358 8.34435C17.2768 8.5438 17.1455 8.99437 17.3393 9.35495C17.3462 9.36935 17.3643 9.40831 17.3818 9.45195C17.4167 9.53916 17.4691 9.68647 17.5235 9.89875C17.6322 10.3228 17.75 11.0101 17.75 12C17.75 12.9899 17.6322 13.6771 17.5235 14.1012C17.4691 14.3135 17.4167 14.4608 17.3818 14.548L17.3393 14.645C17.1455 15.0056 17.2768 15.4561 17.6358 15.6556C17.9979 15.8567 18.4711 15.6951 18.6723 15.333C18.6795 15.3189 18.6884 15.3012 18.6986 15.2796C18.7191 15.2366 18.7451 15.1786 18.7745 15.1051C18.8333 14.9579 18.9059 14.749 18.9765 14.4738C19.1178 13.9228 19.25 13.1101 19.25 12C19.25 10.8899 19.1178 10.0771 18.9765 9.52619C18.9059 9.25097 18.8333 9.04203 18.7745 8.89487C18.7451 8.82132 18.7191 8.76332 18.6986 8.72029C18.6884 8.69879 18.6636 8.65112 18.6563 8.63705Z" fill="#152C2A"/>
</g>
</g>
</svg>
