<svg width="30" height="30" viewBox="0 0 30 30" fill="none" xmlns="http://www.w3.org/2000/svg">
<rect width="30" height="30" rx="10" fill="#FF4E00" fill-opacity="0.1"/>
<path fill-rule="evenodd" clip-rule="evenodd" d="M9.98378 14.0711C12.1726 10.1904 13.2669 8.25 15 8.25C16.7331 8.25 17.8274 10.1904 20.0162 14.0711L20.289 14.5547C22.1078 17.7796 23.0172 19.392 22.1953 20.571C21.3734 21.75 19.3398 21.75 15.2727 21.75H14.7273C10.6602 21.75 8.62663 21.75 7.80469 20.571C6.98276 19.392 7.89218 17.7796 9.71104 14.5547L9.98378 14.0711ZM15 11.4375C15.3107 11.4375 15.5625 11.6893 15.5625 12V15.75C15.5625 16.0607 15.3107 16.3125 15 16.3125C14.6893 16.3125 14.4375 16.0607 14.4375 15.75V12C14.4375 11.6893 14.6893 11.4375 15 11.4375ZM15 18.75C15.4142 18.75 15.75 18.4142 15.75 18C15.75 17.5858 15.4142 17.25 15 17.25C14.5858 17.25 14.25 17.5858 14.25 18C14.25 18.4142 14.5858 18.75 15 18.75Z" fill="#FF4E00"/>
</svg>
