<svg width="35" height="35" viewBox="0 0 35 35" fill="none" xmlns="http://www.w3.org/2000/svg">
<rect x="1" y="1" width="33" height="33" rx="16.5" fill="#57CFC8"/>
<rect x="1" y="1" width="33" height="33" rx="16.5" stroke="white" stroke-width="2"/>
<path d="M10 17.125V17.875C10 20.3406 10 21.5734 10.681 22.4032C10.8056 22.5551 10.9449 22.6944 11.0968 22.819C11.9266 23.5 13.1594 23.5 15.625 23.5C18.0906 23.5 19.3234 23.5 20.1532 22.819C20.3051 22.6944 20.4444 22.5551 20.569 22.4032C21.0952 21.762 21.2148 20.8802 21.242 19.375L21.7438 19.6219C23.2032 20.3516 23.9329 20.7164 24.4664 20.3867C25 20.0569 25 19.2411 25 17.6094V17.3906C25 15.7589 25 14.9431 24.4664 14.6133C23.9329 14.2836 23.2032 14.6484 21.7438 15.3781L21.242 15.625C21.2148 14.1198 21.0952 13.238 20.569 12.5968C20.4444 12.4449 20.3051 12.3056 20.1532 12.181C19.3234 11.5 18.0906 11.5 15.625 11.5C13.1594 11.5 11.9266 11.5 11.0968 12.181C10.9449 12.3056 10.8056 12.4449 10.681 12.5968C10 13.4266 10 14.6594 10 17.125Z" fill="white"/>
</svg>
