<svg width="30" height="30" viewBox="0 0 30 30" fill="none" xmlns="http://www.w3.org/2000/svg">
<rect width="30" height="30" rx="10" fill="#E9CB6C"/>
<path d="M14.0836 17.75C14.0836 17.9054 14.0964 18.058 14.1152 18.2083H13.0639L11.0111 19.4316C10.7205 19.6264 10.3314 19.6356 10.0202 19.4683C9.69937 19.2964 9.5 18.9641 9.5 18.6002V11.7917C9.50046 10.528 10.5285 9.5 11.792 9.5H17.2918C18.5554 9.5 19.5834 10.528 19.5834 11.7917V14.5792C19.0435 14.2657 18.4183 14.0833 17.7501 14.0833C15.7285 14.0833 14.0836 15.7283 14.0836 17.75ZM20.5 17.75C20.5 19.2689 19.269 20.5 17.7501 20.5C16.2313 20.5 15.0002 19.2689 15.0002 17.75C15.0002 16.2311 16.2313 15 17.7501 15C19.269 15 20.5 16.2311 20.5 17.75ZM19.5834 17.75C19.5834 17.4965 19.378 17.2917 19.1251 17.2917H17.7501V16.7779C17.7501 16.6152 17.6525 16.468 17.5022 16.4057C17.3532 16.3438 17.1791 16.3773 17.0636 16.4928L16.3761 17.1803C16.0621 17.4943 16.0621 18.0053 16.3761 18.3193L17.0636 19.0068C17.1786 19.1223 17.3518 19.1575 17.5022 19.0938C17.6525 19.0315 17.7501 18.8848 17.7501 18.7217V18.2079H19.1251C19.378 18.2079 19.5834 18.0035 19.5834 17.75Z" fill="white"/>
</svg>
